<svg id="Layer_1" data-name="Layer 1" xmlns="http://www.w3.org/2000/svg" viewBox="0 0 468.22 61.98"><defs><style>.cls-1,.cls-2,.cls-3{fill:#222;}.cls-1{stroke:#222;stroke-miterlimit:10;stroke-width:0.5px;}.cls-3{isolation:isolate;font-size:16px;font-family:Times New Roman;font-weight:700;}.cls-4{white-space:pre;}</style></defs><title>coas</title><line class="cls-1" x1="90.72" y1="38.6" x2="468.22" y2="38.6"/><path class="cls-2" d="M28,51.21a0.38,0.38,0,0,1-.2.2" transform="translate(-0.28 -3.01)"/><path class="cls-2" d="M30,36.21a0.4,0.4,0,1,0-.4-0.4,0.37,0.37,0,0,0,.4.4h0Z" transform="translate(-0.28 -3.01)"/><path class="cls-2" d="M48.6,19.21H34.1v11.7a2.77,2.77,0,0,0,1.1,2.4l5.6,3.3a0.76,0.76,0,0,0,.5.2,1.06,1.06,0,0,0,.5-0.2l5.7-3.4a2.55,2.55,0,0,0,1.1-2.4V19.21h0Zm-9.7,3.4H37.6v-3h1.3v3h0Zm-0.9,1,0.2-.2-0.1-.2h0.2l0.1-.2,0.1,0.2h0.2l-0.1.2,0.2,0.2H38.6v0.2l-0.2-.2-0.2.2v-0.2H38Zm-3.5,3.8v-2.8H36v2.8H34.5Zm0.3-4.2H35l0.1-.2,0.1,0.2h0.2l-0.1.2,0.2,0.2H35.3v0.2l-0.2-.2-0.2.2v-0.2H34.7l0.2-.2-0.1-.2h0Zm1.7,2.9h0.2l0.1-.2,0.1,0.2h0.2l-0.1.2,0.2,0.2H37v0.2l-0.2-.2-0.2.2v-0.2H36.4l0.2-.2-0.1-.2h0Zm1-2.3c0-.1-0.1-0.1-0.2-0.1s-0.2.2-.3,0.2-0.1,0-.1-0.1,0.2-.1.2-0.2A1.36,1.36,0,0,0,36,24c-0.2,0,.2-0.5.3-0.6a1.76,1.76,0,0,1-.5-0.4,0.19,0.19,0,0,1,.3,0,0.25,0.25,0,0,1,.3-0.2c0.4,0,.3.4,0.4,0.4s0-.4.3-0.4,0.9,1.1.5,1.1-0.1,0-.1-0.1h0Zm-1.1-3.1,0.2-.2-0.1-.2h0.2l0.1-.2,0.1,0.2h0.2l-0.1.2,0.2,0.2H37v0.2l-0.2-.2-0.2.2v-0.2H36.4ZM36,19.61v3H34.5v-3H36Zm2.9,15.5L35.4,33a2.2,2.2,0,0,1-.9-1.9v-3.3h4.4v7.3h0Zm-1.2-7.7v-2.8H39v2.8H37.7Zm5.7,7.9-1.6,1h0a0.6,0.6,0,0,1-.4.1,0.76,0.76,0,0,1-.4-0.2l-1.6-1v-7.5h4.1l-0.1,7.6h0Zm0-7.9H39.3v-7.8h4.1v7.8h0ZM48.2,31a2.85,2.85,0,0,1-.9,1.9L43.8,35v-7.3h4.4V31h0Zm0-3.6H43.8v-7.8h4.4v7.8h0Z" transform="translate(-0.28 -3.01)"/><path class="cls-2" d="M38.7,30.41a0.52,0.52,0,0,0-.4.2,1.27,1.27,0,0,1,.4-0.6c0-.2-0.3,0-0.5.1,0.8-1.2.3-.7-0.2-0.6,0.7-.8.5-0.8,0-0.5a1.19,1.19,0,0,0,.5-0.9c-0.4.5-.8,0.4-0.8,0.9a1.49,1.49,0,0,1-.3,1c-0.2.2-.1-0.9-0.6-0.9a0.84,0.84,0,0,0-.7.2,0.62,0.62,0,0,1,.3.4c0,0.1.1,0.4-.1,0.4a0.68,0.68,0,0,1-.4-0.6v-0.4A1.53,1.53,0,0,0,34.8,28a5.94,5.94,0,0,1,.4.8c-0.2,0-.4-0.3-0.4-0.1s0.3,0.2.3,0.4-0.3-.1-0.3.1,0.2,0.1.2,0.3H34.7a0.2,0.2,0,0,0,.1.2,0.58,0.58,0,0,0-.1.4,1.28,1.28,0,0,0,1,1.4,0.26,0.26,0,0,0,.3-0.3c0,0.2.2-.1,0.2,0.2a1.38,1.38,0,0,1-.3.4c0,0.3.5,0,.5,0.4a3.54,3.54,0,0,1-.1.6,1.06,1.06,0,0,0,.5-0.2,1,1,0,0,0,.3.4c0.1,0,.2-0.4.3-0.4a0.52,0.52,0,0,0,.4.2,2.57,2.57,0,0,0-.2-0.5c0-.3.6-0.2,0.5-0.4a0.38,0.38,0,0,1-.2-0.2s-0.5-.7.1-0.3,0.7-.9.7-1h0Z" transform="translate(-0.28 -3.01)"/><path class="cls-2" d="M54.1,33.51a0.41,0.41,0,1,0-.5-0.4,0.66,0.66,0,0,0,.5.4h0Z" transform="translate(-0.28 -3.01)"/><path class="cls-2" d="M52.2,34.61a0.41,0.41,0,1,0-.5-0.4,0.54,0.54,0,0,0,.5.4h0Z" transform="translate(-0.28 -3.01)"/><path class="cls-2" d="M29.3,37.31a0.41,0.41,0,1,0-.5-0.4,0.46,0.46,0,0,0,.5.4h0Z" transform="translate(-0.28 -3.01)"/><path class="cls-2" d="M30.8,37.41a0.41,0.41,0,1,0-.5-0.4,0.46,0.46,0,0,0,.5.4h0Z" transform="translate(-0.28 -3.01)"/><path class="cls-2" d="M72,17.41a3.08,3.08,0,0,1,.4,3.2c-0.3,0-.2-0.4-0.3-0.6a4,4,0,0,1-.5-3.2c0.4,0,.2.5,0.4,0.6h0Z" transform="translate(-0.28 -3.01)"/><path class="cls-2" d="M11.5,18.61a3.4,3.4,0,0,0,0,2c-0.1.1-.1-0.1-0.2-0.1-1-.7-0.5-2.1-0.8-3.1a0.31,0.31,0,0,1,.2-0.1,1.83,1.83,0,0,1,.8,1.3h0Z" transform="translate(-0.28 -3.01)"/><path class="cls-2" d="M74.2,18.71a0.61,0.61,0,0,1-.3.7,0.54,0.54,0,0,1-.6-0.3,0.67,0.67,0,0,1,.3-0.7,0.6,0.6,0,0,1,.6.3h0Z" transform="translate(-0.28 -3.01)"/><path class="cls-2" d="M10,19.81a1.14,1.14,0,0,1-.3.6,0.75,0.75,0,0,1-.5-0.1,0.35,0.35,0,0,1-.1-0.5,0.48,0.48,0,0,1,.5-0.2c0.1-.1.3,0,0.4,0.2h0Z" transform="translate(-0.28 -3.01)"/><path class="cls-2" d="M75.2,20.21a0.3,0.3,0,0,1,0,.4,0.62,0.62,0,0,1-.7.2,1,1,0,0,1-.3-0.4,1,1,0,0,1,.4-0.5,1.14,1.14,0,0,1,.6.3h0Z" transform="translate(-0.28 -3.01)"/><path class="cls-2" d="M73.7,20.21c0.2,0.1.1,0.4,0,.5a0.85,0.85,0,0,1-.5.3,0.45,0.45,0,0,1-.3-0.3,0.55,0.55,0,0,1,.4-0.6,0.48,0.48,0,0,1,.4.1h0Z" transform="translate(-0.28 -3.01)"/><path class="cls-2" d="M71.9,20.61a0.61,0.61,0,0,1-.3.7,0.51,0.51,0,0,1-.2-1,0.85,0.85,0,0,1,.5.3h0Z" transform="translate(-0.28 -3.01)"/><path class="cls-2" d="M12.7,20.71a0.46,0.46,0,0,1-.3.5,0.42,0.42,0,0,1-.5-0.3c-0.2-.2.1-0.3,0.1-0.5a0.61,0.61,0,0,1,.7.3h0Z" transform="translate(-0.28 -3.01)"/><path class="cls-2" d="M11.2,20.81a0.55,0.55,0,0,1-.3.5,0.48,0.48,0,0,1-.5-0.2,0.43,0.43,0,1,1,.8-0.3h0Z" transform="translate(-0.28 -3.01)"/><path class="cls-2" d="M65.8,20.91a5.34,5.34,0,0,1,.5,1.8,2.54,2.54,0,0,1-.3,1.5,1.56,1.56,0,0,1-.6-0.8c-0.5-.9-0.1-1.9.1-2.8,0.2-.1.2,0.2,0.3,0.3h0Z" transform="translate(-0.28 -3.01)"/><path class="cls-2" d="M10,21.21a0.49,0.49,0,0,1-.3.6,0.55,0.55,0,0,1-.6-0.4,0.71,0.71,0,0,1,.3-0.6,0.92,0.92,0,0,1,.6.4h0Z" transform="translate(-0.28 -3.01)"/><path class="cls-2" d="M69.8,22a3.3,3.3,0,0,1,.1,2.4l-0.2.1a5.8,5.8,0,0,1-1-2.1,4,4,0,0,1,.3-1.5c0.2-.1.3,0,0.4,0.2a1,1,0,0,0,.4.9h0Z" transform="translate(-0.28 -3.01)"/><path class="cls-2" d="M73,21.51a0.55,0.55,0,0,1-.4.6,0.45,0.45,0,0,1-.6-0.3,0.49,0.49,0,0,1,.3-0.6c0.3-.2.5,0.1,0.7,0.3h0Z" transform="translate(-0.28 -3.01)"/><path class="cls-2" d="M11.3,22.31a0.66,0.66,0,0,1-.4.5c-0.2.2-.4-0.1-0.5-0.2a0.64,0.64,0,0,1,0-.6,0.34,0.34,0,0,1,.4-0.2,0.82,0.82,0,0,1,.5.5h0Z" transform="translate(-0.28 -3.01)"/><path class="cls-2" d="M12.4,22.21a0.55,0.55,0,0,1-.3.5,0.49,0.49,0,0,1-.6-0.3c-0.1-.3.1-0.4,0.3-0.6s0.4,0.1.6,0.4h0Z" transform="translate(-0.28 -3.01)"/><path class="cls-2" d="M73.7,22.11a5.3,5.3,0,0,1-.6,1,2.48,2.48,0,0,1-1.6,1.4,1.14,1.14,0,0,1-.6.3,2.1,2.1,0,0,1,.7-1.4,3.93,3.93,0,0,1,2.1-1.3h0Z" transform="translate(-0.28 -3.01)"/><path class="cls-2" d="M10.8,23.21c0.4,0.4.6,0.8,1,1.2a0.34,0.34,0,0,1-.2.3c-1.2-.1-2.1-1.3-2.7-2.2,0.1-.3.4-0.1,0.6-0.1a3.07,3.07,0,0,1,1.3.8h0Z" transform="translate(-0.28 -3.01)"/><path class="cls-2" d="M74,23.51a3.24,3.24,0,0,1-1.6,2.7,1,1,0,0,1-.9.2,12.15,12.15,0,0,1,2.2-3H74v0.1Z" transform="translate(-0.28 -3.01)"/><path class="cls-2" d="M69.2,24.21a0.53,0.53,0,0,1-.4.7,0.68,0.68,0,0,1-.6-0.4,0.62,0.62,0,0,1,.4-0.6,0.37,0.37,0,0,1,.3-0.1,0.62,0.62,0,0,0,.3.4h0Z" transform="translate(-0.28 -3.01)"/><path class="cls-2" d="M9.4,24.51a14.93,14.93,0,0,1,1.4,1.2,2,2,0,0,1-1.1,0c-0.9-.3-1.4-1-2.3-1.3,0-.3.4-0.2,0.5-0.3a4.8,4.8,0,0,1,1.5.4h0Z" transform="translate(-0.28 -3.01)"/><path class="cls-2" d="M36.4,16.91c-1.4-.6-2.4.9-3.8,0.7a0.76,0.76,0,0,0-.2.4,0.32,0.32,0,0,1-.3,0c-0.1-.6-0.3-1.2-0.4-1.8-0.1-.2-0.1-0.6-0.2-0.9-0.8-2.2,2-.5,2.5-1.8,0.5-1.1-.9-1.2-1.4-2v-0.3a3.84,3.84,0,0,1-1.1-1.1,4.44,4.44,0,0,0,.1-2,0.28,0.28,0,0,0-.4-0.3c-0.5.7-.8,1.2-1.3,1.8a8.28,8.28,0,0,0-1.5-1.1,2.38,2.38,0,0,0-1.2-.3,0.3,0.3,0,0,0,.1.4,3.51,3.51,0,0,0,1.2,2.5l0.1,0.4c-0.5,1-.3,2.2-0.5,3.4a18.27,18.27,0,0,1-5.5,7.7c-1.4,1.6-3.2,3.2-3.4,5.4a1.5,1.5,0,0,1-.2,1,10.78,10.78,0,0,1-2.4-1.2c-1.2-.8-2.8-0.7-3.6-2.2a1.56,1.56,0,0,1,.4-1.6c0.9-.8.7-2.3,0.3-3.3-0.1,0-.1.1-0.2,0.1-0.1,1.5-1.3,2.5-.8,4.2,0.1,0.5.4,0.8,0.5,1.2a1.27,1.27,0,0,0-.6-0.1,5,5,0,0,0-1.7-.2c-1.2.5-2.8-.1-3.7,0.9-0.2,0-.4.1-0.3,0.3a9.15,9.15,0,0,0,1.6.1c0.9,0.2,1.5-.6,2.1-0.9h0.2a1.64,1.64,0,0,1,1-.2,9.94,9.94,0,0,1,4.1,1.7v0.1a11.11,11.11,0,0,0-1.6.7,3.33,3.33,0,0,0-1.4,1.7c-0.4.6,0.1,1.2,0.4,1.7a0.78,0.78,0,0,0,.3.7c0.8-.9.1-1.9,0.2-2.9a2,2,0,0,1,1.6-1.3c1.4-.6,2.5.6,3.6,1.2a19,19,0,0,1-.1,3.4,5,5,0,0,1-1.2.2c-2,.2-3.6,1.2-5.4,1.9-0.8.3-1.8,0.3-2.6,0.6a6.08,6.08,0,0,0,1.9-.1c2.5-.4,4.4-2.3,7-1.9l0.1,0.1a6.57,6.57,0,0,1-1.2,1.7,1,1,0,0,0-.4-0.7,0.52,0.52,0,0,0-.6.2,0.3,0.3,0,0,0,0,.4,1,1,0,0,0,.5.4,2.36,2.36,0,0,1-.5.5c-0.7,1.2-2.2.7-3,1.6-0.1.2-.6,0.3-0.4,0.6a3.79,3.79,0,0,0,2.6-.7c0.9-1,1.9-2,2.9-3a2.72,2.72,0,0,1-.6,2.3,4.35,4.35,0,0,0-.7-0.4,0.82,0.82,0,0,0-.5.5,1,1,0,0,0,.4.5,7.54,7.54,0,0,1-2.9.9,49.07,49.07,0,0,1-5.5.4c-0.9-.1-1.9.3-2.7,0-1,.2-2-0.1-2.8.4a0.55,0.55,0,0,0,0,.4c1.2,0.8,2.8.2,4.1,0.4h10a4.92,4.92,0,0,0,2.1-.4c1.3-.7,2-2.1,2.7-3.4a8.8,8.8,0,0,0,.5-1.5,2.13,2.13,0,0,1,1.9-1.6,13,13,0,0,1-.4,3.9c-0.2.8-.7,1.6-0.4,2.5a0.89,0.89,0,0,0,.8.5,72.35,72.35,0,0,1,9.3.1,10.1,10.1,0,0,0,1.7.3,0.34,0.34,0,0,0,.2-0.3,1.06,1.06,0,0,0-.6-0.7,0.76,0.76,0,0,0-.4-0.2c-1.6-.9-3.6-0.4-5.5-0.4-1,.1-2,0.3-2.8-0.3a3.17,3.17,0,0,1-.1-1.9A31.29,31.29,0,0,1,28,32a4.3,4.3,0,0,0,.2-1.2,1.77,1.77,0,0,0,.7-1.7,11.28,11.28,0,0,1,.8-2.4c0.1-.4.3-0.8,0.4-1.2a5,5,0,0,1,.5-1.3c0.8,0.5,1.6.5,2,1.4l0.4,2.1c0,0.1.1,0.4,0.3,0.2,0.7-.4.5-1.4,0.5-2.1s-0.4-1.2-.6-1.9a2.31,2.31,0,0,1-.5-0.7c-0.1-.6-1.3-0.9-1-1.6a2.37,2.37,0,0,1,.9-1.5,0.2,0.2,0,0,1,.1.2h0.2v-2.1c0.8,0,2,.1,2.9.1a1.49,1.49,0,0,0,.7.3l0.2-.3,2-.4c-0.9,0-1.5-1-2.3-1h0Z" transform="translate(-0.28 -3.01)"/><path class="cls-2" d="M38.6,17.81h0Z" transform="translate(-0.28 -3.01)"/><path class="cls-2" d="M16.6,24.91a0.68,0.68,0,0,1-.4.6,0.85,0.85,0,0,1-.5-0.3,0.55,0.55,0,0,1,.4-0.6,0.62,0.62,0,0,1,.5.3h0Z" transform="translate(-0.28 -3.01)"/><path class="cls-2" d="M15,24.91a0.47,0.47,0,0,1,.1.6c-0.2.2-.5,0.3-0.6,0.1s-0.3-.3-0.2-0.5,0.5-.4.7-0.2h0Z" transform="translate(-0.28 -3.01)"/><path class="cls-2" d="M50.2,25.21h0" transform="translate(-0.28 -3.01)"/><path class="cls-2" d="M69.4,25.61a0.49,0.49,0,0,1-.3.6c-0.3-.1-0.6-0.1-0.6-0.5a0.54,0.54,0,0,1,.4-0.4,0.85,0.85,0,0,1,.5.3h0Z" transform="translate(-0.28 -3.01)"/><path class="cls-2" d="M70.8,25.61a0.44,0.44,0,0,1,.1.5,0.38,0.38,0,0,0-.2.2,0.49,0.49,0,0,1-.6-0.3c-0.1-.3.2-0.4,0.4-0.5,0-.1.1,0,0.3,0.1h0Z" transform="translate(-0.28 -3.01)"/><path class="cls-2" d="M8.6,25.91a0.52,0.52,0,0,1-.7.3,0.53,0.53,0,0,1-.2-0.3,0.35,0.35,0,0,1,.3-0.4,0.49,0.49,0,0,1,.6.4h0Z" transform="translate(-0.28 -3.01)"/><path class="cls-2" d="M17.2,26.31a1,1,0,0,1-.4.5,0.82,0.82,0,0,1-.6-0.4,0.46,0.46,0,0,1,.3-0.5,0.67,0.67,0,0,1,.7.4h0Z" transform="translate(-0.28 -3.01)"/><path class="cls-2" d="M15.7,26.21a0.33,0.33,0,0,1,.1.4c-0.2.1-.4,0.4-0.6,0.2a0.46,0.46,0,0,1-.3-0.5,0.62,0.62,0,0,1,.4-0.3c0.1-.1.2,0.1,0.4,0.2h0Z" transform="translate(-0.28 -3.01)"/><path class="cls-2" d="M74.6,26.51a0.85,0.85,0,0,1-.3.5,0.66,0.66,0,0,1-.6-0.1,0.6,0.6,0,0,1-.1-0.4,0.55,0.55,0,0,1,.5-0.3,0.46,0.46,0,0,1,.5.3h0Z" transform="translate(-0.28 -3.01)"/><path class="cls-2" d="M76.3,26.71a0.82,0.82,0,0,1-.5.5,0.35,0.35,0,0,1-.4-0.3,0.39,0.39,0,0,1,.2-0.4,0.43,0.43,0,0,1,.7.2h0Z" transform="translate(-0.28 -3.01)"/><path class="cls-2" d="M11.5,27a0.49,0.49,0,0,1-.3.6,0.46,0.46,0,0,1-.6-0.6,1,1,0,0,1,.4-0.3,1.07,1.07,0,0,1,.5.3h0Z" transform="translate(-0.28 -3.01)"/><path class="cls-2" d="M12.8,27.31c0.1,0.2-.2.3-0.2,0.4a0.44,0.44,0,0,1-.5.1c-0.2-.2-0.4-0.4-0.2-0.6,0.2-.4.7-0.2,0.9,0.1h0Z" transform="translate(-0.28 -3.01)"/><path class="cls-2" d="M73.1,27.21a1.06,1.06,0,0,1-.4.6,0.38,0.38,0,0,1-.5-0.3,0.55,0.55,0,0,1,.3-0.5c0.3-.1.5-0.1,0.6,0.2h0Z" transform="translate(-0.28 -3.01)"/><path class="cls-2" d="M75.2,27.61a0.71,0.71,0,0,1-.3.6,0.61,0.61,0,0,1-.6-0.1,0.48,0.48,0,0,1-.1-0.5,0.54,0.54,0,0,1,.6-0.3,0.62,0.62,0,0,1,.4.3h0Z" transform="translate(-0.28 -3.01)"/><path class="cls-2" d="M10.6,28.11c0.1,0.2-.1.3-0.2,0.4a0.44,0.44,0,0,1-.5-0.1,0.48,0.48,0,0,1-.1-0.5c0.2-.4.7-0.1,0.8,0.2h0Z" transform="translate(-0.28 -3.01)"/><path class="cls-2" d="M73.6,28.61c0.1,0,.1.2,0,0.2a1.81,1.81,0,0,1-2-.1,5.3,5.3,0,0,0-1-.6,1.27,1.27,0,0,1,.9-0.4c0.7,0.2,1.3.9,2.1,0.9h0Z" transform="translate(-0.28 -3.01)"/><path class="cls-2" d="M11.8,28.31c0.1,0.2-.1.3-0.2,0.4a0.33,0.33,0,0,1-.4.1,0.52,0.52,0,0,1-.2-0.6,0.52,0.52,0,0,1,.8.1h0Z" transform="translate(-0.28 -3.01)"/><path class="cls-2" d="M14,28.51a0.73,0.73,0,0,1-.2.6,0.9,0.9,0,0,1-.5-0.1c-0.1-.2-0.4-0.4-0.1-0.6,0.2-.4.6-0.2,0.8,0.1h0Z" transform="translate(-0.28 -3.01)"/><path class="cls-2" d="M43.2,29.61c-0.1.5-.9-0.1-0.8,0.6a2.92,2.92,0,0,0,.5,1.4,2.77,2.77,0,0,1,.1,1.3,2,2,0,0,1-1,.8c-0.7-.1-1.8.4-2.1-0.5a5.64,5.64,0,0,1-.4-1.2,0.31,0.31,0,0,1,.2-0.1,1.47,1.47,0,0,0-.2-0.4c0.8-.1-0.3-0.9.4-0.9,0.6,0.6,1.5.4,2,1.1a1.38,1.38,0,0,0,.4.3c-0.1-.6-0.4-1.2-0.5-1.9a0.76,0.76,0,0,1,.3-0.8c0.5-.5.9,0,1.1,0.3h0Z" transform="translate(-0.28 -3.01)"/><path class="cls-2" d="M16.2,29.41c0.1,0.3-.1.4-0.3,0.5a0.55,0.55,0,0,1-.5-0.3c-0.1-.3.1-0.4,0.3-0.5a0.85,0.85,0,0,1,.5.3h0Z" transform="translate(-0.28 -3.01)"/><path class="cls-2" d="M31.8,29.71a3.67,3.67,0,0,1-.3,2.9c0,0.2.1,0.5-.2,0.5-0.7-.9-0.2-2.3.1-3.3,0-.3.4-0.4,0.4-0.1h0Z" transform="translate(-0.28 -3.01)"/><path class="cls-2" d="M53.5,30.11a2.88,2.88,0,0,1,.1,2.4l-0.2.2a6.36,6.36,0,0,1-.6-1.8,7.89,7.89,0,0,0,.3-1.3c0.3-.1.3,0.4,0.4,0.5h0Z" transform="translate(-0.28 -3.01)"/><path class="cls-2" d="M18.2,30.41a2.84,2.84,0,0,1-.9.6,2.49,2.49,0,0,1-2.2.4,2.77,2.77,0,0,1,2.9-1.2c0,0.2.2,0.1,0.2,0.2h0Z" transform="translate(-0.28 -3.01)"/><path class="cls-2" d="M7.8,31.31a7,7,0,0,1,1.7,2.5c0.1,0.1.3,0.1,0.2,0.3S9.3,33.91,9,34a2.55,2.55,0,0,1-1.5-2.6,0.37,0.37,0,0,1,.3-0.1h0Z" transform="translate(-0.28 -3.01)"/><path class="cls-2" d="M52.5,32.11a0.56,0.56,0,0,1-.2.6,0.44,0.44,0,0,1-.5-0.7,0.49,0.49,0,0,1,.7.1h0Z" transform="translate(-0.28 -3.01)"/><path class="cls-2" d="M63.1,33.51a6.75,6.75,0,0,1,.2-1.4,0.9,0.9,0,0,0,.1-0.5c0.6-.8,1.8-0.6,2.8-0.5a6.11,6.11,0,0,0,1.3.3,0.66,0.66,0,0,1,.6-0.1c0.8-.4.3-1.4,0.3-2.1l-0.3-.8a1.06,1.06,0,0,1-.2-0.5,2.51,2.51,0,0,0-.4-0.7,8.6,8.6,0,0,0-2-2.6,10.89,10.89,0,0,0-5.3-3.3c-2-.7-4,0.2-5.8.8a1.82,1.82,0,0,1-1-1.1,4.85,4.85,0,0,1,.5-2.7,12.2,12.2,0,0,1,.7-1.7,15.7,15.7,0,0,0,1-4.4,2.28,2.28,0,0,0-1.4-2,1.44,1.44,0,0,0-1.4.3A3.32,3.32,0,0,1,51.2,12c-0.1.4,0.5,0.2,0.7,0.3,0.6,0.1,1.2-.1,1.6.3a3.63,3.63,0,0,1-1.1,2.6,18,18,0,0,0-2.3,4l-0.1-.1,0.1,6.2c0.8,1.3,1.8,2.9,3.3,3.4,0.8,0.7,1.8,1.5,2.9.9,0.6-.2.6,0.6,0.9,1,0.3,0.9-.4,1.6-0.4,2.5l-0.7,1.4a17,17,0,0,1-2.6,4.3c-0.4,0-.6.4-1,0.4a1.34,1.34,0,0,1-.9.2c-0.8.3-1.9,0.1-2.4,0.9a0.2,0.2,0,0,0,.2.1c1.5,0,3.3.1,4.9,0.1a0.66,0.66,0,0,0,.4-0.5,1.13,1.13,0,0,1,.3-1.1,11.11,11.11,0,0,1,.7-1.6c0.5-1,1.1-2.1,1.7-3.1l0.8-1.3a10,10,0,0,1,.8-1.4,4.23,4.23,0,0,0,.5-0.7,0.59,0.59,0,0,0-.2-0.5,1.85,1.85,0,0,1,.7-0.2,2.91,2.91,0,0,1,1.4,1.7l0.2,0.7,0.1,0.3-0.1.8,0.1,0.8a23,23,0,0,1-.2,3.7c-0.4,1.5-2.1,1.3-3.3,1.7-0.3.2-.9,0.1-0.9,0.6a24.62,24.62,0,0,0,4.7.1,0.92,0.92,0,0,0,.4-0.6,1.69,1.69,0,0,0,.3-1c-0.3-.4,0-0.9-0.1-1.4a0.45,0.45,0,0,0,0-.5,18.1,18.1,0,0,0,.3-2.3l0.2-1.2h0Z" transform="translate(-0.28 -3.01)"/><path class="cls-2" d="M75.6,32.51a7.24,7.24,0,0,1-3.1,2.9c-0.1,0-.2.1-0.2-0.1,0.9-.9,1.3-2.3,2.7-2.7a0.61,0.61,0,0,1,.6-0.1h0Z" transform="translate(-0.28 -3.01)"/><path class="cls-2" d="M6.6,33.71a0.76,0.76,0,0,1-.2.4,0.37,0.37,0,0,1-.5-0.2,0.49,0.49,0,0,1,.3-0.6,1.51,1.51,0,0,1,.4.4h0Z" transform="translate(-0.28 -3.01)"/><path class="cls-2" d="M13.9,34.11c0.1,0.2-.2.2-0.3,0.3a2.82,2.82,0,0,1-2.9-.7c0-.1,0-0.2.1-0.2,1,0.2,2.2,0,3.1.6h0Z" transform="translate(-0.28 -3.01)"/><path class="cls-2" d="M8,33.81a0.6,0.6,0,0,1,.1.4,0.52,0.52,0,0,1-.6.2,0.85,0.85,0,0,1-.3-0.3,0.54,0.54,0,0,1,.4-0.5,0.48,0.48,0,0,1,.4.2H8Z" transform="translate(-0.28 -3.01)"/><path class="cls-2" d="M31.6,33.91a0.55,0.55,0,0,1-.3.5,0.48,0.48,0,0,1-.5-0.2,0.37,0.37,0,0,1,.2-0.5c0.2-.1.6,0,0.6,0.2h0Z" transform="translate(-0.28 -3.01)"/><path class="cls-2" d="M76.5,34a0.42,0.42,0,0,1-.3.5,0.48,0.48,0,0,1-.5-0.1,0.48,0.48,0,0,1-.1-0.4,0.6,0.6,0,0,1,.6-0.3L76.5,34h0Z" transform="translate(-0.28 -3.01)"/><path class="cls-2" d="M78.2,33.91c0.2,0.2,0,.4-0.1.6a0.48,0.48,0,0,1-.5.2,0.66,0.66,0,0,1-.4-0.5,0.43,0.43,0,0,1,.4-0.4c0.3-.2.4,0.1,0.6,0.1h0Z" transform="translate(-0.28 -3.01)"/><path class="cls-2" d="M5.5,34.61a0.52,0.52,0,0,1-.2.4,0.3,0.3,0,0,1-.4.1,0.78,0.78,0,0,1-.4-0.4,0.82,0.82,0,0,1,.5-0.5,1,1,0,0,1,.5.4h0Z" transform="translate(-0.28 -3.01)"/><path class="cls-2" d="M58.7,34.61a0.32,0.32,0,0,1,0,.3c-0.2.2-.4,0.4-0.6,0.2s-0.3-.3-0.2-0.5a0.52,0.52,0,0,1,.8,0h0Z" transform="translate(-0.28 -3.01)"/><path class="cls-2" d="M9.6,35c-0.1.2-.1,0.4-0.4,0.4a0.45,0.45,0,0,1-.4-0.3,0.64,0.64,0,0,1,.2-0.6,0.5,0.5,0,0,1,.6.5h0Z" transform="translate(-0.28 -3.01)"/><path class="cls-2" d="M7.2,35.11a0.64,0.64,0,0,1-.2.6,0.57,0.57,0,0,1-.7-0.4,0.74,0.74,0,0,1,.5-0.6,1.4,1.4,0,0,1,.4.4h0Z" transform="translate(-0.28 -3.01)"/><path class="cls-2" d="M60.4,35a0.45,0.45,0,0,1-.3.6,0.67,0.67,0,0,1-.7-0.4,0.64,0.64,0,0,1,.5-0.5,0.55,0.55,0,0,1,.5.3h0Z" transform="translate(-0.28 -3.01)"/><path class="cls-2" d="M8.3,35.11a0.4,0.4,0,0,1-.5.5,0.49,0.49,0,0,1,0-.9,0.46,0.46,0,0,1,.5.4h0Z" transform="translate(-0.28 -3.01)"/><path class="cls-2" d="M75.1,35.31a0.78,0.78,0,0,1-.4.4c-0.2.1-.3-0.1-0.5-0.2a0.45,0.45,0,0,1,0-.5,0.5,0.5,0,0,1,.9.3h0Z" transform="translate(-0.28 -3.01)"/><path class="cls-2" d="M77,35.41a0.62,0.62,0,0,1-.6.4c-0.2-.1-0.5-0.3-0.3-0.6a0.34,0.34,0,0,1,.3-0.2,0.49,0.49,0,0,1,.6.4h0Z" transform="translate(-0.28 -3.01)"/><path class="cls-2" d="M65.1,35.61c0.1,0.3-.2.4-0.4,0.6a1.06,1.06,0,0,1-.5-0.2,0.62,0.62,0,0,1,.4-0.7,0.68,0.68,0,0,1,.5.3h0Z" transform="translate(-0.28 -3.01)"/><path class="cls-2" d="M58.1,35.91a0.37,0.37,0,0,1,.1.3c-0.2.1-.4,0.4-0.6,0.2a0.55,0.55,0,0,1-.3-0.5c0.1-.2.7-0.3,0.8,0h0Z" transform="translate(-0.28 -3.01)"/><path class="cls-2" d="M59.5,36.11a0.34,0.34,0,0,1-.2.4c-0.2.2-.4,0-0.6-0.1a0.3,0.3,0,0,1,0-.4,0.53,0.53,0,0,1,.3-0.2,0.85,0.85,0,0,1,.5.3h0Z" transform="translate(-0.28 -3.01)"/><path class="cls-2" d="M16.6,36.11c0.2,0.2,0,.3-0.1.5a0.38,0.38,0,0,1-.6.1,0.64,0.64,0,0,1-.2-0.6,0.76,0.76,0,0,1,.4-0.2,0.59,0.59,0,0,1,.5.2h0Z" transform="translate(-0.28 -3.01)"/><path class="cls-2" d="M67.8,36.21c0.1,0.3-.2.4-0.4,0.4a0.49,0.49,0,0,1-.6-0.3,0.76,0.76,0,0,1,.2-0.4,0.83,0.83,0,0,1,.8.3h0Z" transform="translate(-0.28 -3.01)"/><path class="cls-2" d="M66.4,36.21a0.46,0.46,0,0,1-.3.5,0.47,0.47,0,0,1-.6-0.1,0.48,0.48,0,0,1-.1-0.4,1,1,0,0,1,.4-0.3,0.6,0.6,0,0,1,.6.3h0Z" transform="translate(-0.28 -3.01)"/><path class="cls-2" d="M77.8,36.51c0.1,0.4-.4.2-0.6,0.3a4,4,0,0,1-3.4-.2,0.91,0.91,0,0,1,.7-0.3c1-.8,2.1.1,3.3,0.2h0Z" transform="translate(-0.28 -3.01)"/><path class="cls-2" d="M8.6,36.21l-0.1.2a4.17,4.17,0,0,1-3.3.6l-0.1-.2a4.65,4.65,0,0,1,3.5-.6h0Z" transform="translate(-0.28 -3.01)"/><path class="cls-2" d="M70.3,36.41a0.76,0.76,0,0,1-.2.5,0.55,0.55,0,0,1-.7-0.3,0.42,0.42,0,0,1,.3-0.5,0.54,0.54,0,0,1,.6.3h0Z" transform="translate(-0.28 -3.01)"/><path class="cls-2" d="M13.1,36.51a0.85,0.85,0,0,1-.3.5,0.49,0.49,0,0,1-.6-0.3,0.41,0.41,0,0,1,.2-0.5,0.49,0.49,0,0,1,.7.3h0Z" transform="translate(-0.28 -3.01)"/><path class="cls-2" d="M11.4,36.61a0.48,0.48,0,0,1-.1.4,0.48,0.48,0,0,1-.5.1c-0.2-.2-0.4-0.3-0.3-0.6,0.2-.1.2-0.2,0.4-0.3a1,1,0,0,1,.5.4h0Z" transform="translate(-0.28 -3.01)"/><path class="cls-2" d="M72.1,37.21a0.66,0.66,0,0,1-.4.5,0.55,0.55,0,0,1-.5-0.3,0.33,0.33,0,0,1,.1-0.5,0.37,0.37,0,0,1,.3-0.1,0.46,0.46,0,0,1,.5.4h0Z" transform="translate(-0.28 -3.01)"/><path class="cls-2" d="M9.5,36.91a0.48,0.48,0,0,1-.1.4c-0.1.4-.4,0.7-0.5,1.1a3.26,3.26,0,0,1-1.8.8L7,39a5.18,5.18,0,0,1,2.5-2.1h0Z" transform="translate(-0.28 -3.01)"/><path class="cls-2" d="M70.8,37.51c0.1,0.3-.2.4-0.4,0.5a0.55,0.55,0,0,1-.5-0.3,0.46,0.46,0,0,1,.3-0.5,0.44,0.44,0,0,1,.6.3h0Z" transform="translate(-0.28 -3.01)"/><path class="cls-2" d="M12.4,37.51h0a0.44,0.44,0,0,1-.3.6,1.42,1.42,0,0,1-.6-0.2,0.49,0.49,0,0,1,.9-0.4h0Z" transform="translate(-0.28 -3.01)"/><path class="cls-2" d="M75.5,38.21a6.13,6.13,0,0,0,.6-0.4,0.54,0.54,0,0,1,.6.3,0.49,0.49,0,0,1-.3.6c-0.2.1-.6-0.2-0.5,0.2a1,1,0,0,1,.4.5,0.19,0.19,0,0,1-.3,0,3.14,3.14,0,0,1-1.8-1.6c-0.1-.2-0.6-0.4-0.3-0.6a2.75,2.75,0,0,1,1.6,1h0Z" transform="translate(-0.28 -3.01)"/><path class="cls-2" d="M77.9,37.51a0.45,0.45,0,0,1,0,.5c-0.1.3-.5,0.2-0.7,0.1a0.76,0.76,0,0,1-.2-0.5,0.62,0.62,0,0,1,.4-0.3c0.2-.1.3,0,0.5,0.2h0Z" transform="translate(-0.28 -3.01)"/><path class="cls-2" d="M68.7,38.81a5.3,5.3,0,0,1,.6,1,0.31,0.31,0,0,1-.2.1c-0.9-.5-2-1-2.3-2-0.1-.1-0.3-0.2-0.2-0.4a2.41,2.41,0,0,1,1.7.7c0.1,0.2.3,0.4,0.4,0.6h0Z" transform="translate(-0.28 -3.01)"/><path class="cls-2" d="M11,37.91a0.48,0.48,0,0,1-.2.5,0.64,0.64,0,0,1-.6-0.2c-0.2-.3.2-0.5,0.4-0.6s0.2,0.1.4,0.3h0Z" transform="translate(-0.28 -3.01)"/><path class="cls-2" d="M71.9,38.51a1.47,1.47,0,0,1-.2.4,0.66,0.66,0,0,1-.6-0.1,0.33,0.33,0,0,1,0-.5c0.2-.4.6-0.1,0.8,0.2h0Z" transform="translate(-0.28 -3.01)"/><path class="cls-2" d="M78.2,38.81a0.55,0.55,0,0,1-.4.6,0.64,0.64,0,0,1-.6-0.2,0.85,0.85,0,0,1,0-.5,0.62,0.62,0,0,1,.7-0.2l0.3,0.3h0Z" transform="translate(-0.28 -3.01)"/><path class="cls-2" d="M60.7,42.31c0,0.3-.6.2-0.8,0.5a5.91,5.91,0,0,1-2.7.4V43a4,4,0,0,1,3.5-.7h0Z" transform="translate(-0.28 -3.01)"/><path class="cls-2" d="M23.8,43.41a0.43,0.43,0,0,1-.4.4,0.39,0.39,0,0,1-.4-0.2,0.71,0.71,0,0,1,.3-0.6,0.55,0.55,0,0,1,.5.4h0Z" transform="translate(-0.28 -3.01)"/><path class="cls-2" d="M60.3,43.71a0.82,0.82,0,0,1-.4.6,0.73,0.73,0,0,1-.6-0.2,0.6,0.6,0,0,1-.1-0.4,0.59,0.59,0,0,1,1.1,0h0Z" transform="translate(-0.28 -3.01)"/><path class="cls-2" d="M65.3,43.81a4,4,0,0,1-2.2.9H61.7l-0.1-.1c0.8-1,2.4-1,3.7-.8h0Z" transform="translate(-0.28 -3.01)"/><path class="cls-2" d="M16.9,44.41a0.55,0.55,0,0,1-.3.5,0.48,0.48,0,0,1-.5-0.2,0.48,0.48,0,0,1,.2-0.6c0.2-.2.5,0.1,0.6,0.3h0Z" transform="translate(-0.28 -3.01)"/><path class="cls-2" d="M18.2,44.71c0.1,0.1-.1.2-0.1,0.3a0.45,0.45,0,0,1-.5,0,0.4,0.4,0,0,1-.2-0.4,0.53,0.53,0,0,1,.3-0.2,0.55,0.55,0,0,1,.5.3h0Z" transform="translate(-0.28 -3.01)"/><path class="cls-2" d="M8.5,47.21c-0.2.3-.7-0.1-0.9-0.2-0.9-.5-0.9-1.5-1.7-2.1,0.1-.3.3,0,0.5,0a2.19,2.19,0,0,1,.5.3c0.8,0.5,1,1.3,1.6,2h0Z" transform="translate(-0.28 -3.01)"/><path class="cls-2" d="M82.2,37.41a2.06,2.06,0,0,0-1.9-1,1.87,1.87,0,0,0-1.4,1,1.23,1.23,0,0,0,.5,1.4,0.33,0.33,0,0,0,.5-0.1c0.1-.3-0.2-0.3-0.3-0.6a0.76,0.76,0,0,1,.3-0.9,1.15,1.15,0,0,1,1-.1,2.7,2.7,0,0,1,.8.7,1.48,1.48,0,0,1,0,1.3,2.62,2.62,0,0,1-1.6,1.3c-2.1.3-25.1,0.2-25.1,0.2-2.7.3-5.8-.5-8.1,0.9a4,4,0,0,0-1.9,2.7,18.88,18.88,0,0,0-2,2l-0.1-.1c0.1-.6.4-1.2,0.5-1.8a9.62,9.62,0,0,0,.7-1.8,14,14,0,0,1,3.4-4.2c0.6-.8,1.7-0.7,2.7-0.7a6.65,6.65,0,0,0,3.5.5,0.2,0.2,0,0,0,.1-0.2c-0.4-.3-0.9-0.5-1.3-0.8-1-.5-2,0.2-3,0.1a0.2,0.2,0,0,1-.1-0.2,23.78,23.78,0,0,1,3.1-1.7,23.29,23.29,0,0,1,2.8-1.1,2.08,2.08,0,0,1,1.1-.1l1.3-.4c0.1,0,.1.1,0.2,0.1,1.1-.4,2.6,0,3.9-0.1l0.2,0.2,1.2,0.3c0.5,0.1.7,0.6,1.1,0.6,0.2-.4-0.3-0.5-0.4-0.7a2.49,2.49,0,0,1,1.7.3l-0.2.3a0.44,0.44,0,0,0,.7.5c0.3-.2,0-0.5.1-0.7A23.93,23.93,0,0,1,71.6,36a3.81,3.81,0,0,0,1.5.5,6.92,6.92,0,0,0-1.9-1c-0.4-.3-1-0.3-1.4-0.6,0.1-.1.2-0.1,0.3-0.2a3.52,3.52,0,0,0,2.2-1.4,0.85,0.85,0,0,0,.3-0.3c-0.2-.3-0.6.1-0.9,0.1-1.1.2-1.5,1.5-2.6,1.7l-3.9-.9a12.86,12.86,0,0,1-1.9-.4l-1.4-.1H59.3c0-.1-0.1-0.1-0.1-0.2,0.9-.2,1.7-0.8,2.6-1l6.8-3.1A12.87,12.87,0,0,0,70.5,27a0.55,0.55,0,0,0-.3-0.5,0.33,0.33,0,0,0-.5.1c-0.3.2,0,.5,0,0.8a3.78,3.78,0,0,1-1.2,1c-0.1,0-7,3.1-7,3.1a16.29,16.29,0,0,1-3.1,1.1l-1.5.2a1.17,1.17,0,0,1-.6.6,4.22,4.22,0,0,1-1.2.3c-3.3,1.3-6.7,2.6-9.3,5.2a2,2,0,0,0,.2-1.1,2,2,0,0,0-.3-1.1,1.45,1.45,0,0,1-.2-0.7l-0.4.2a4.16,4.16,0,0,0-.2,2.2c0.1,0.5.5,1,.1,1.4a26.24,26.24,0,0,0-2.7,4.9,0.9,0.9,0,0,1-.6-0.6,8.54,8.54,0,0,0,1.8-3.7,1.42,1.42,0,0,0,.2-0.6,4.82,4.82,0,0,0,0-1.2c0.2-.5-0.7-1.1-0.2-1.4l-0.5.2c-1.1,1.4.6,3.6-.7,4.9v0.1a4,4,0,0,1-1,1.2,3.09,3.09,0,0,1-1.2-1.5,2.08,2.08,0,0,1-.2-2.4,6.48,6.48,0,0,0-.2-2l-0.2-.2a3.19,3.19,0,0,0-.4,3,4.13,4.13,0,0,0,.7,1.5,9.3,9.3,0,0,0,1.1,1.9c0.1,0.3-.2.3-0.3,0.4-0.3-.2-0.2-0.6-0.5-0.8a18.62,18.62,0,0,0-3.2-4.7,0.84,0.84,0,0,1-.2-0.7,1.68,1.68,0,0,0,.3-1.9,0.76,0.76,0,0,1-.2-0.4l-0.4-.3c0.1,0.9-.5,1.7-0.3,2.6v0.1a48.27,48.27,0,0,0-8.4-5.1l-0.2.6a20.68,20.68,0,0,1,2.7,1.4,19.65,19.65,0,0,1,2.5,1.3A18.07,18.07,0,0,1,40,45a1.41,1.41,0,0,1,.1.9A11.38,11.38,0,0,0,38.2,44a3.81,3.81,0,0,0-1.9-2.8,3,3,0,0,0-1.8-.8l-9.2-.1c-7.5-.1-14.3.2-21.7,0.1-1-.1-2.3-0.5-2.6-1.6a1.71,1.71,0,0,1,0-1.4,1.71,1.71,0,0,1,1.3-.7,1.6,1.6,0,0,1,.9.7,3.55,3.55,0,0,1-.4.9,0.21,0.21,0,0,0,.3.2,1.39,1.39,0,0,0,.7-0.8,0.66,0.66,0,0,0-.1-0.6,1.72,1.72,0,0,0-1.2-1,1.83,1.83,0,0,0-1.7.6,2,2,0,0,0-.4,2.1,3.63,3.63,0,0,0,2.7,2.1L27.7,41c2.4,0.1,5.1-.3,7.5.2a3.07,3.07,0,0,1,2.1,1.9c0,0.1-.1,0-0.2,0a11,11,0,0,0-7.2-1.5,6.71,6.71,0,0,0-2.8.6,1.29,1.29,0,0,1-1.2-.4,4.32,4.32,0,0,0-3.7-.5v0.2c1.2-.1,2,1,3.1,1.1a1.65,1.65,0,0,1,.7,0,27.17,27.17,0,0,1-3.5,1.6,2.84,2.84,0,0,1-.9-0.6c-0.5-.5-1.4-0.3-2-0.4-0.2.1-.4-0.1-0.6,0a2.26,2.26,0,0,0,1.1.8c0.6,0.3,1.4,0,1.9.4a2.18,2.18,0,0,0-.5.4c-1.2.5-2.2,1.5-3.5,1.5a4.42,4.42,0,0,1-3.7-1.2,2.55,2.55,0,0,0-2.5-1.5,0.38,0.38,0,0,0-.2.2,10,10,0,0,1,1.5,1.4c0.4,0.4,1,0,1.4.5a5.58,5.58,0,0,0,1.6.7,6.47,6.47,0,0,0,1.3.4l-0.2.1a20.85,20.85,0,0,1-7.5.7c-0.8,0-1.5-.2-2.2-0.2a1.27,1.27,0,0,0,.6.4,1.45,1.45,0,0,1-.7.2,3.81,3.81,0,0,0-1,.3,3.59,3.59,0,0,0-1.1.2,5.26,5.26,0,0,1-1.4,1.2c0,0.1,0,.3.1,0.3,0.5-.2,1.1-0.1,1.6-0.3,0.8-.1,1.3-1,2-1.4,0.7-.6,1.7-0.4,2.6-0.3,0.5,0.1-.1.3,0.1,0.7a0.67,0.67,0,0,0,.7.3,0.2,0.2,0,0,1,.2-0.1,0.46,0.46,0,0,0,0-.6,4.87,4.87,0,0,1,1.2-.1,28.5,28.5,0,0,0,2.9-.3c0.2,0,.3-0.2.5,0-0.1.2-.3,0.2-0.2,0.5a1,1,0,0,0,.5.4,0.55,0.55,0,0,0,.4-0.6,0.62,0.62,0,0,0-.4-0.3c0.5-.3,1.1-0.3,1.7-0.6a4.87,4.87,0,0,0,1.1-.4,2.92,2.92,0,0,1,.9-0.2,6.12,6.12,0,0,1-.5,1.2,6.07,6.07,0,0,0,0,4.4,0.2,0.2,0,0,0,.2-0.1,6.72,6.72,0,0,1,.2-4.2c0.4-2.2,2.6-2.8,4.2-3.6l0.1,0.1c-0.4,1.1-1.1,2.2-1,3.5,0.1,0.2-.1.5,0,0.6a2.26,2.26,0,0,0,.9-1.2c0.2-1.1-.5-2.6.7-3.4,2.1-.8,4-1.9,6.4-1.9,0.1,0.1.2-.1,0.3,0.1A8.45,8.45,0,0,0,29.8,44a5.55,5.55,0,0,0-.4,4.4c0.2,0.8-.5,1.2-0.8,1.8a2.61,2.61,0,0,0-.3.8l0.5,0.1a3.5,3.5,0,0,0,.9-1.7,0.63,0.63,0,0,0,.5.5c0.2-.3-0.2-0.5-0.2-0.8,0.4-.2.6,0.3,0.9,0.4a8.33,8.33,0,0,0,1.5.4l0.2-.2a3.27,3.27,0,0,0-2.6-1.1,5.57,5.57,0,0,1-.5-2.9,4.94,4.94,0,0,1,.5-1.6,3.59,3.59,0,0,1,.7-1,5.07,5.07,0,0,1,1.6-.9h0.1v0.1a5.54,5.54,0,0,0-1.2,1.9,2.17,2.17,0,0,0-.2,2.2,4.87,4.87,0,0,0,.4,1.1,4.28,4.28,0,0,0,.5-1.6c-0.1-.8-0.6-1.6-0.1-2.4a2,2,0,0,1,1.4-1.1,8.37,8.37,0,0,1,3.8,1.1,1.21,1.21,0,0,1,.7.7,2.07,2.07,0,0,1-.9,1.7,2.13,2.13,0,0,1-2.3,0,1.8,1.8,0,0,1-.4-1.6,1,1,0,0,1,1.1-.4,0.83,0.83,0,0,0,.8.2,0.33,0.33,0,0,0,.1-0.4,2.41,2.41,0,0,0-.8-0.6,1.38,1.38,0,0,0-1.4.3,2.11,2.11,0,0,0-.6,1.8,2.17,2.17,0,0,0,1.6,1.6,2.85,2.85,0,0,0,3.1-1.1,3.88,3.88,0,0,0,.6-1.1A6.4,6.4,0,0,1,41.2,48a5.65,5.65,0,0,1,0,1.3l0.9,0.1a0.66,0.66,0,0,1,.1-0.6,7.73,7.73,0,0,1,2.6-4.2c0.4-.3.3,0.3,0.4,0.5A3.19,3.19,0,0,0,47.4,47a2.64,2.64,0,0,0,2.7-.9c0.3-.6.7-1.5,0.2-2.1a1.91,1.91,0,0,0-1.4-.7,1.77,1.77,0,0,0-1.4.9,0.48,0.48,0,0,0,.2.5,0.6,0.6,0,0,0,.4-0.1,1.39,1.39,0,0,1,.7-0.8,0.63,0.63,0,0,1,.8.2,1.53,1.53,0,0,1,.4,1,1.74,1.74,0,0,1-.8,1.2,2.55,2.55,0,0,1-2.4-.2,4.13,4.13,0,0,1-.7-1.1,1.66,1.66,0,0,1,0-1.2,9.17,9.17,0,0,1,3.6-1.3,2.87,2.87,0,0,1,1.3.8c1.2,1.2-.2,2.9.6,4.2a1,1,0,0,0,.4-0.7c0.4-.9-0.1-1.9-0.3-2.8a4.92,4.92,0,0,0-1-1.5,0.37,0.37,0,0,1,.3-0.1,9.34,9.34,0,0,1,1.5,1.3,7.29,7.29,0,0,1,1,4.2,2.48,2.48,0,0,1-1.6,1.4,2.7,2.7,0,0,0-.7.8,1.18,1.18,0,0,0,1-.1,3.84,3.84,0,0,0,1.1-1.1c0.1,0,0,.1.1,0.2,0,0.3-.1.7,0.1,0.7a5.85,5.85,0,0,0,.2-1.3,3,3,0,0,1,.5,1.3,1.5,1.5,0,0,0,1.2,1.1,0.62,0.62,0,0,0-.1-0.7,2.81,2.81,0,0,0-1-1.4c-0.9-1.2-.5-3.1-1.2-4.5a4.93,4.93,0,0,0-1.4-1.9l0.1-.1a18.57,18.57,0,0,1,3.4.6c1.4,0.7,3.4.5,4.1,2.3a6.34,6.34,0,0,0,1.4,2.7l0.1-.1a0.75,0.75,0,0,0,0-.9c-0.2-1.3-1.3-1.6-1.8-2.6l0.1-.1a12.67,12.67,0,0,1,1.8.6,5.55,5.55,0,0,1,3.7,4.6,10.82,10.82,0,0,1-.9,4.4c-0.1.2-.4,0.4-0.2,0.6a2.18,2.18,0,0,0,.5-0.8,6.85,6.85,0,0,0,.8-5.1,1.49,1.49,0,0,1-.2-0.9,0.4,0.4,0,0,0,.4.2,0.55,0.55,0,0,0,.5-0.8,1,1,0,0,0-.7-0.2,1.69,1.69,0,0,0-.3.6,3.81,3.81,0,0,0-.9-1.3l0.1-.1c1.1,0.4,2.2.9,3.3,1.2a1.22,1.22,0,0,0,.9.3c1,0.4,2.1.5,3.1,0.8,0.8-.1,1.4.3,2.1,0.1v-0.1h0c-0.3-.4-0.9,0-1.2-0.3a21.45,21.45,0,0,1-5-1.2c0-.1.1-0.1,0.2-0.1a0.82,0.82,0,0,0,.4-0.6,0.6,0.6,0,0,0-.6-0.3,0.54,0.54,0,0,0-.4.4,0.66,0.66,0,0,0,.4.5,0.14,0.14,0,0,1-.2,0,22.88,22.88,0,0,0-2.3-1,2.61,2.61,0,0,0-.8-0.3c-0.6-.3-1.2-0.6-1.7-0.8a44.45,44.45,0,0,0-5.1-1.9l-1.1-.3c-0.6-.2-1.3-0.3-1.9-0.5-2.1-.5-5-0.6-6.9.6-0.3-.1-0.5.4-0.6,0.1,0.5-1.4,2.1-1.9,3.5-1.9l29.6-.3a3.07,3.07,0,0,0,2.9-1.5c0.1,0.3.2-.8-0.1-1.4h0ZM42,46.71a3.18,3.18,0,0,0-.3.9l-0.1.1c0.1-.4-0.3-0.6-0.2-1-0.2-.3-0.2-0.7-0.4-1s0.2-.6.4-0.9a1.78,1.78,0,0,1,.7.8,2.08,2.08,0,0,1-.1,1.1h0Z" transform="translate(-0.28 -3.01)"/><path class="cls-2" d="M69.4,45.11c0,0.1.2,0.1,0.1,0.2a5.54,5.54,0,0,1-3.4,1.1c-0.1,0-.2.1-0.3,0.1a0.2,0.2,0,0,1-.1-0.2,3.89,3.89,0,0,1,3.7-1.2h0Z" transform="translate(-0.28 -3.01)"/><path class="cls-2" d="M65.3,45.61a0.53,0.53,0,0,1-.4.7,0.82,0.82,0,0,1-.6-0.4c-0.1-.2.1-0.3,0.2-0.4a0.44,0.44,0,0,1,.8.1h0Z" transform="translate(-0.28 -3.01)"/><path class="cls-2" d="M17.3,45.61a0.46,0.46,0,0,1-.6.6,0.35,0.35,0,0,1-.3-0.4,0.55,0.55,0,0,1,.3-0.5,1.69,1.69,0,0,1,.6.3h0Z" transform="translate(-0.28 -3.01)"/><path class="cls-2" d="M12.8,47.31v0.2a1.8,1.8,0,0,1-1.6-.4,5.35,5.35,0,0,0-1.3-1.3c0-.1-0.2-0.2,0-0.2,1.2,0,1.9,1,2.9,1.7h0Z" transform="translate(-0.28 -3.01)"/><path class="cls-2" d="M73.2,45.61a5.23,5.23,0,0,1-2.1,2.3c-0.2,0-.3.3-0.5,0.1a4.71,4.71,0,0,1,2.2-2.4,0.53,0.53,0,0,1,.4,0h0Z" transform="translate(-0.28 -3.01)"/><path class="cls-2" d="M18.8,45.91a0.66,0.66,0,0,1-.4.5,0.42,0.42,0,0,1-.4-0.3c-0.1-.3.1-0.4,0.3-0.5a0.68,0.68,0,0,1,.5.3h0Z" transform="translate(-0.28 -3.01)"/><path class="cls-2" d="M76.4,46a8.4,8.4,0,0,1-.4,1.2,3.33,3.33,0,0,1-1.7,1.4,1.08,1.08,0,0,1,.3-0.7,4.18,4.18,0,0,1,1.7-2L76.4,46h0Z" transform="translate(-0.28 -3.01)"/><path class="cls-2" d="M4.9,46.31a0.46,0.46,0,0,1,0,.6,0.61,0.61,0,0,1-.6.1,0.48,0.48,0,0,1-.2-0.6c0.2-.3.7-0.4,0.8-0.1h0Z" transform="translate(-0.28 -3.01)"/><path class="cls-2" d="M3.5,46.61a2.27,2.27,0,0,1,.1.4,0.62,0.62,0,0,1-.4.3A0.49,0.49,0,0,1,2.6,47a0.76,0.76,0,0,1,.2-0.5,0.47,0.47,0,0,1,.7.1h0Z" transform="translate(-0.28 -3.01)"/><path class="cls-2" d="M6.5,46.71c0.1,0.2.1,0.6-.2,0.6A0.63,0.63,0,0,1,5.5,47a0.55,0.55,0,0,1,.3-0.5,0.84,0.84,0,0,1,.7.2h0Z" transform="translate(-0.28 -3.01)"/><path class="cls-2" d="M10.6,47.11a0.48,0.48,0,0,1-.2.5,0.9,0.9,0,0,1-.5.1c-0.1-.2-0.3-0.3-0.2-0.5a1.38,1.38,0,0,1,.4-0.3c0.2,0,.4-0.1.5,0.2h0Z" transform="translate(-0.28 -3.01)"/><path class="cls-2" d="M78.9,47.21a0.54,0.54,0,0,1-.4.4,0.71,0.71,0,0,1-.6-0.3c-0.1-.3.1-0.4,0.3-0.5a0.84,0.84,0,0,1,.7.4h0Z" transform="translate(-0.28 -3.01)"/><path class="cls-2" d="M74.2,47.41a0.45,0.45,0,0,1-.3.4,0.57,0.57,0,0,1-.8-0.4,1,1,0,0,1,.4-0.5,0.67,0.67,0,0,1,.7.5h0Z" transform="translate(-0.28 -3.01)"/><path class="cls-2" d="M77.4,47.31a0.39,0.39,0,0,1-.2.4,0.45,0.45,0,0,1-.6-0.1,0.29,0.29,0,0,1,.1-0.5,0.51,0.51,0,0,1,.7.2h0Z" transform="translate(-0.28 -3.01)"/><path class="cls-2" d="M4.3,47.71a0.49,0.49,0,0,1-.3.6,0.62,0.62,0,0,1-.6-0.4,0.59,0.59,0,0,1,.2-0.5,1.49,1.49,0,0,1,.7.3h0Z" transform="translate(-0.28 -3.01)"/><path class="cls-2" d="M73,48a0.62,0.62,0,0,1-.4.7c-0.2.1-.3-0.1-0.5-0.2s-0.2-.4,0-0.5a0.52,0.52,0,0,1,.9,0h0Z" transform="translate(-0.28 -3.01)"/><path class="cls-2" d="M17.9,48.31c0.1,0.3-.2.3-0.3,0.5a0.3,0.3,0,0,1-.4,0c-0.1-.2-0.3-0.3-0.2-0.5a0.53,0.53,0,0,1,.3-0.2c0.3-.2.4,0,0.6,0.2h0Z" transform="translate(-0.28 -3.01)"/><path class="cls-2" d="M78.4,48.51a0.48,0.48,0,0,1-.1.4,0.66,0.66,0,0,1-.6.1,0.56,0.56,0,0,1-.2-0.6,1.38,1.38,0,0,1,.4-0.3,0.6,0.6,0,0,1,.5.4h0Z" transform="translate(-0.28 -3.01)"/><path class="cls-2" d="M76.8,48.61a0.4,0.4,0,0,1-.4.5c-0.1,0-.2-0.1-0.3.1a7,7,0,0,1,1.6,1.3v0.2a3.11,3.11,0,0,1-2.5-1,2.12,2.12,0,0,1-.7-0.3,2.1,2.1,0,0,1,1.4-.2c0.3-.4-0.4-0.6.1-0.9a0.75,0.75,0,0,1,.5-0.1,1.38,1.38,0,0,1,.3.4h0Z" transform="translate(-0.28 -3.01)"/><path class="cls-2" d="M66.5,48.61a0.6,0.6,0,0,1-.1.4,0.47,0.47,0,0,1-.6.1,0.64,0.64,0,0,1-.2-0.6,0.49,0.49,0,0,1,.9.1h0Z" transform="translate(-0.28 -3.01)"/><path class="cls-2" d="M10,49.51a0.54,0.54,0,0,1-.4.4,0.55,0.55,0,0,1-.5-0.3,2.27,2.27,0,0,1,.1-0.4,0.46,0.46,0,0,1,.8.3h0Z" transform="translate(-0.28 -3.01)"/><path class="cls-2" d="M12,49.11a2.62,2.62,0,0,1-.5.9,2.84,2.84,0,0,1-2,1.7A1.27,1.27,0,0,1,9.9,51a5.75,5.75,0,0,1,1.9-1.9H12Z" transform="translate(-0.28 -3.01)"/><path class="cls-2" d="M65.9,49.51a0.68,0.68,0,0,1-.4.6,0.48,0.48,0,0,1-.5-0.2,0.46,0.46,0,0,1,0-.6,0.58,0.58,0,0,1,.9.2h0Z" transform="translate(-0.28 -3.01)"/><path class="cls-2" d="M67.5,49.71a0.63,0.63,0,0,1-.5.6c-0.1-.1-0.2,0-0.2-0.1a0.55,0.55,0,0,1-.3-0.5,1.51,1.51,0,0,1,.4-0.4,0.72,0.72,0,0,1,.6.4h0Z" transform="translate(-0.28 -3.01)"/><path class="cls-2" d="M16,49.61a0.54,0.54,0,0,1-.4.5,0.41,0.41,0,0,1-.2-0.8,1.14,1.14,0,0,1,.6.3h0Z" transform="translate(-0.28 -3.01)"/><path class="cls-2" d="M17.7,49.71a0.54,0.54,0,0,1-.5.4,0.85,0.85,0,0,1-.5-0.3,0.54,0.54,0,0,1,.4-0.5,0.92,0.92,0,0,1,.6.4h0Z" transform="translate(-0.28 -3.01)"/><path class="cls-2" d="M72.9,51.51c0.1,0.1.4,0.2,0.3,0.4-0.4.2-.7-0.3-1.1-0.4a4.93,4.93,0,0,1-1.3-2,0.88,0.88,0,0,1,.7.1,8.47,8.47,0,0,1,1.4,1.9h0Z" transform="translate(-0.28 -3.01)"/><path class="cls-2" d="M73.8,49.71a0.47,0.47,0,0,1-.1.6,0.66,0.66,0,0,1-.7.2c-0.1-.2-0.4-0.4-0.2-0.6a0.55,0.55,0,0,1,.5-0.3,0.9,0.9,0,0,1,.5.1h0Z" transform="translate(-0.28 -3.01)"/><path class="cls-2" d="M20,50.41c0,0.2.1,0.5-.2,0.6a0.45,0.45,0,0,1-.6-0.3c-0.1-.3.1-0.4,0.3-0.5a0.76,0.76,0,0,1,.5.2h0Z" transform="translate(-0.28 -3.01)"/><path class="cls-2" d="M67.4,52.11a3.59,3.59,0,0,1,.7,1.8c-0.1.2,0.1,0.4,0,.5H67.9a5.81,5.81,0,0,1-1.8-3.1A0.37,0.37,0,0,1,66,51c0.2-.2.4,0.2,0.7,0.3l0.7,0.8h0Z" transform="translate(-0.28 -3.01)"/><path class="cls-2" d="M23.3,51.21h0a3.19,3.19,0,0,1-3.6.5c0-.1,0-0.2.1-0.2A5.45,5.45,0,0,1,22,51l1.3,0.2h0Z" transform="translate(-0.28 -3.01)"/><path class="cls-2" d="M17.5,51.31c-0.9.5-1.6,1.6-2.7,1.8-0.2.1-.3,0.4-0.6,0.2a3.61,3.61,0,0,1,3.3-2.2v0.2h0Z" transform="translate(-0.28 -3.01)"/><path class="cls-2" d="M65.9,52.51a0.34,0.34,0,0,1-.2.5,0.45,0.45,0,0,1-.5,0,0.48,0.48,0,0,1-.2-0.5,0.62,0.62,0,0,1,.4-0.3,0.85,0.85,0,0,1,.5.3h0Z" transform="translate(-0.28 -3.01)"/><path class="cls-2" d="M63.8,52.61a1.5,1.5,0,0,1-.9.7,3.93,3.93,0,0,1-2.4-.3c0-.2.3-0.1,0.4-0.2a4.57,4.57,0,0,1,2.6-.1c0-.2.2-0.2,0.3-0.1h0Z" transform="translate(-0.28 -3.01)"/><path class="cls-2" d="M17.5,53.31a1,1,0,0,1-.3.4,0.44,0.44,0,0,1-.5-0.1,0.48,0.48,0,0,1-.1-0.5,0.62,0.62,0,0,1,.4-0.3,0.63,0.63,0,0,1,.5.5h0Z" transform="translate(-0.28 -3.01)"/><path class="cls-2" d="M19,53.61a1,1,0,0,1-.4.5,0.55,0.55,0,0,1-.6-0.7,0.52,0.52,0,0,1,.4-0.2,0.55,0.55,0,0,1,.6.4h0Z" transform="translate(-0.28 -3.01)"/><path class="cls-2" d="M65.4,53.81a1.06,1.06,0,0,1-.2.5,0.45,0.45,0,0,1-.6.1c-0.2,0-.2-0.2-0.3-0.4s0.1-.3.2-0.5a0.59,0.59,0,0,1,.9.3h0Z" transform="translate(-0.28 -3.01)"/><path class="cls-2" d="M66.5,53.81a2.27,2.27,0,0,1,.1.4c-0.2.1-.2,0.5-0.6,0.3-0.1.1-.2-0.2-0.3-0.2a0.52,0.52,0,0,1,.3-0.7,0.48,0.48,0,0,1,.5.2h0Z" transform="translate(-0.28 -3.01)"/><path class="cls-2" d="M18.1,54.51a0.84,0.84,0,0,1-.2.7,0.46,0.46,0,0,1-.7-0.3,0.67,0.67,0,0,1,.3-0.7,0.54,0.54,0,0,1,.6.3h0Z" transform="translate(-0.28 -3.01)"/><path class="cls-2" d="M19.6,54.41a2.52,2.52,0,0,1-.9,2c-0.4.1-.8,0.5-1.2,0.2v-0.1a13.89,13.89,0,0,1,2.1-2.1h0Z" transform="translate(-0.28 -3.01)"/><path class="cls-2" d="M61.4,55a0.48,0.48,0,0,1-.1.4c-0.1.2-.4,0.1-0.6,0a0.33,0.33,0,0,1-.1-0.5,0.85,0.85,0,0,1,.3-0.3,0.66,0.66,0,0,1,.5.4h0Z" transform="translate(-0.28 -3.01)"/><path class="cls-2" d="M22.1,56.21c0.4,0.6.2,1.4,0.4,2-0.4.1-.6-0.4-0.9-0.7a6.37,6.37,0,0,1-.7-2.7,0.2,0.2,0,0,1,.2-0.1,3.57,3.57,0,0,1,1,1.1c-0.2.2,0,.2,0,0.4h0Z" transform="translate(-0.28 -3.01)"/><path class="cls-2" d="M62.7,55.21a0.54,0.54,0,0,1-.4.4,1.06,1.06,0,0,1-.5-0.2c-0.1-.2.1-0.3,0.2-0.5a0.49,0.49,0,0,1,.7.3h0Z" transform="translate(-0.28 -3.01)"/><path class="cls-2" d="M65.7,57.51a0.16,0.16,0,0,1-.2.2H65.4c-0.7-.7-1.5-1.4-1.4-2.4h0.2a2.75,2.75,0,0,1,1.5,2.2h0Z" transform="translate(-0.28 -3.01)"/><path class="cls-2" d="M63.8,56.61a0.76,0.76,0,0,1-.2.5,0.55,0.55,0,0,1-.8-0.3,0.7,0.7,0,0,1,.4-0.5,0.49,0.49,0,0,1,.6.3h0Z" transform="translate(-0.28 -3.01)"/><path class="cls-2" d="M62.1,57.21a8,8,0,0,1-2,2.1,0.6,0.6,0,0,1-.1-0.4,3.39,3.39,0,0,1,1.9-2.3c0.6,0.1.2,0.4,0.2,0.6h0Z" transform="translate(-0.28 -3.01)"/><path class="cls-2" d="M64,57.91a0.89,0.89,0,0,1-.4.5,0.86,0.86,0,0,1-.6-0.3,0.85,0.85,0,0,1,.3-0.5,0.68,0.68,0,0,1,.7.3h0Z" transform="translate(-0.28 -3.01)"/><path class="cls-2" d="M45.2,11.71a0.6,0.6,0,1,1,0,1.2H37.7a0.6,0.6,0,0,1,0-1.2h7.5Zm-5.3,1.1c0.7,0,0-.9-0.4-0.9H38.9c-0.7,0,0,.9.4,0.9h0.6Zm3.1,0c0.7,0,0-.9-0.4-0.9H41.9c-0.7,0,0,.9.4,0.9H43Zm2.3-.9H45c-0.7,0-.1.9,0.3,0.9s0.5-.9,0-0.9h0Z" transform="translate(-0.28 -3.01)"/><path class="cls-2" d="M44.6,20.31l1.4,0.5,1.4-.5-0.6,2.1,1.1-.2-0.4,1.3,0.4,1.2-1-.3,0.4,2.3-1.4-.5-1.4.5,0.6-2.3-1.1.3,0.3-1.3L44,22.21l1.1,0.2-0.5-2.1h0Zm2.1,3.8c0.3,0,.4-0.4.4-0.8,0-.9-0.7,0-1-0.8-0.3.7-1,.1-1,0.8,0,0.5,0,.8.5,0.8h1.1Zm-1.4-.7c0,0.3.4,0.1,0.8,0.1s0.8,0.2.8-.1c0-.5-0.4-0.3-0.8-0.3s-0.8-.2-0.8.3h0Z" transform="translate(-0.28 -3.01)"/><polygon class="cls-2" points="40.92 20.4 40.92 20.2 40.72 20.1 40.92 19.9 40.82 19.7 41.02 19.7 41.22 19.5 41.32 19.7 41.52 19.7 41.42 19.9 41.62 20.1 41.42 20.2 41.42 20.4 41.22 20.3 40.92 20.4"/><polygon class="cls-2" points="39.82 21.9 39.82 21.6 39.62 21.5 39.82 21.4 39.72 21.1 39.92 21.2 40.02 20.9 40.22 21.2 40.42 21.1 40.32 21.4 40.52 21.5 40.32 21.6 40.32 21.9 40.02 21.7 39.82 21.9"/><polygon class="cls-2" points="41.72 21.7 41.72 21.4 41.52 21.4 41.72 21.2 41.52 21 41.82 21 41.92 20.7 42.12 21 42.32 21 42.22 21.2 42.42 21.4 42.22 21.4 42.22 21.7 41.92 21.5 41.72 21.7"/><polygon class="cls-2" points="41.92 22.8 41.92 22.6 41.82 22.6 41.92 22.5 41.82 22.3 42.02 22.4 42.12 22.2 42.12 22.4 42.32 22.3 42.22 22.5 42.32 22.6 42.22 22.6 42.22 22.8 42.12 22.7 41.92 22.8"/><polygon class="cls-2" points="40.22 24 40.22 23.5 39.82 23.4 40.12 23.1 39.92 22.7 40.32 22.8 40.62 22.3 40.82 22.8 41.22 22.7 41.02 23.1 41.42 23.4 41.02 23.5 41.02 24 40.62 23.7 40.22 24"/><polygon class="cls-2" points="41.12 0 42.02 2.2 44.22 1.5 43.12 3.6 45.02 4.9 42.72 5.3 42.82 7.7 41.12 6.1 39.32 7.7 39.52 5.3 37.12 4.9 39.12 3.6 37.92 1.5 40.22 2.2 41.12 0"/><path class="cls-2" d="M33.2,52c-0.3.1-.4,0.2-0.3,0.5l0.3,1.3a1,1,0,0,1-.1.9,1.19,1.19,0,0,1-.9.5,2,2,0,0,1-1.1,0,0.81,0.81,0,0,1-.5-0.7l-0.3-1.4c-0.1-.4-0.2-0.3-0.5-0.3v-0.1l1.7-.4v0.1c-0.3.1-.5,0.1-0.4,0.5l0.3,1.4a0.7,0.7,0,0,0,.9.6,0.85,0.85,0,0,0,.7-1.1l-0.3-1.3c-0.1-.3-0.2-0.4-0.6-0.3v-0.1l1.1-.3V52h0Z" transform="translate(-0.28 -3.01)"/><path class="cls-2" d="M35.7,52.31a1.21,1.21,0,0,0-1.2-.6c-0.3.1-.5,0.2-0.4,0.5a0.72,0.72,0,0,0,.6.4l0.8,0.1a0.82,0.82,0,0,1,.7.7c0.1,0.4-.1,1-1.1,1.2a7.75,7.75,0,0,0-.9.1c-0.1,0-.1.1-0.1,0.2H34l-0.2-1h0.1a1.13,1.13,0,0,0,1.2.7,0.52,0.52,0,0,0,.5-0.6,0.72,0.72,0,0,0-.7-0.4l-0.4-.1a1.23,1.23,0,0,1-1.1-.7,0.92,0.92,0,0,1,.9-1.1,2,2,0,0,1,.8,0c0.1,0,.1-0.1.1-0.2h0.2l0.2,0.9,0.1-.1h0Z" transform="translate(-0.28 -3.01)"/><path class="cls-2" d="M39.1,54l-1.8.2v-0.1c0.4-.1.5-0.1,0.5-0.4l-0.2-2.3c-0.4.1-.9,0.1-0.9,0.8H36.6l-0.1-.9,3.1-.3,0.1,0.9H39.6a0.8,0.8,0,0,0-1.1-.6l0.2,2.3c0,0.4.2,0.4,0.5,0.4H39.1Z" transform="translate(-0.28 -3.01)"/><path class="cls-2" d="M43.3,54H42.2l-1-1.4H41.1v0.8a0.33,0.33,0,0,0,.4.4v0.1H39.8v-0.1c0.4,0,.5,0,0.5-0.4v-1.9a0.33,0.33,0,0,0-.4-0.4V51h1.7c0.4,0,1.5.1,1.4,0.8a0.76,0.76,0,0,1-.8.7l1,1.3a0.2,0.2,0,0,0,.2.1l-0.1.1h0Zm-2.2-1.5c0.7,0,.9-0.1,1-0.6a0.53,0.53,0,0,0-.6-0.6c-0.3,0-.3,0-0.3.2l-0.1,1h0Z" transform="translate(-0.28 -3.01)"/><path class="cls-2" d="M46.7,54.41l-1.7-.2v-0.1c0.3,0,.4,0,0.4-0.1a1.42,1.42,0,0,0-.2-0.6l-1.2-.1a5.2,5.2,0,0,0-.3.5c0,0.2.2,0.2,0.4,0.2v0.1l-1-.1v-0.1a0.62,0.62,0,0,0,.6-0.4l1.4-2.2h0.1l0.9,2.4a1.44,1.44,0,0,0,.6.7h0Zm-1.4-1.2-0.4-1.1-0.6,1,1,0.1h0Z" transform="translate(-0.28 -3.01)"/><path class="cls-2" d="M49.7,55l-2.9-.5v-0.1c0.3,0,.4,0,0.5-0.2l0.4-2.1c0.1-.3-0.2-0.3-0.4-0.4v-0.1l1.8,0.3V52c-0.4-.1-0.5-0.1-0.6.3l-0.4,2c0,0.2.1,0.3,0.4,0.3a1.29,1.29,0,0,0,1.4-.6H50l-0.3,1h0Z" transform="translate(-0.28 -3.01)"/><path class="cls-2" d="M51.7,55.51l-1.8-.4V55c0.3,0,.5.1,0.5-0.2l0.4-2.1c0.1-.3-0.2-0.3-0.4-0.4v-0.1l1.8,0.4v0.1c-0.2,0-.5-0.1-0.5.2L51.3,55c-0.1.3,0.1,0.3,0.4,0.5h0Z" transform="translate(-0.28 -3.01)"/><path class="cls-2" d="M55.3,55.91l-1.7-.2v-0.1c0.3,0,.4,0,0.4-0.1a1.42,1.42,0,0,0-.2-0.6l-1.2-.1a5.2,5.2,0,0,0-.3.5c0,0.2.2,0.2,0.4,0.2v0.1l-1-.1v-0.1c0.3,0,.4-0.1.5-0.5l1.4-2.2h0.1l0.9,2.4a0.81,0.81,0,0,0,.5.7l0.2,0.1h0Zm-1.5-1.1-0.4-1.1-0.6,1,1,0.1h0Z" transform="translate(-0.28 -3.01)"/><path class="cls-2" d="M42.1,21c0-1-.6-0.1-0.9-0.9-0.2.7-.9,0.1-0.9,0.9a0.85,0.85,0,0,0,.2.6v0.3a0.1,0.1,0,0,0,.1.1h1.1a0.1,0.1,0,0,0,.1-0.1v-0.3a0.6,0.6,0,0,0,.3-0.6h0Zm-0.9.2c-0.3,0-.7.2-0.7-0.1,0-.5.3-0.4,0.7-0.4s0.8-.1.8,0.4c-0.1.3-.5,0.1-0.8,0.1h0Z" transform="translate(-0.28 -3.01)"/><path class="cls-2" d="M51.1,33.81a0.41,0.41,0,1,0-.5-0.4,0.54,0.54,0,0,0,.5.4h0Z" transform="translate(-0.28 -3.01)"/><path class="cls-2" d="M48.9,18.41l-0.2.4a0.2,0.2,0,0,0,.4,0l-0.2-.4h0Z" transform="translate(-0.28 -3.01)"/><path class="cls-2" d="M33.6,18.41l-0.2.4a0.2,0.2,0,0,0,.4,0l-0.2-.4h0Z" transform="translate(-0.28 -3.01)"/><path class="cls-2" d="M37.4,18.41l-0.2.4a0.2,0.2,0,0,0,.4,0,0.76,0.76,0,0,0-.2-0.4h0Z" transform="translate(-0.28 -3.01)"/><path class="cls-2" d="M41.2,18.41l-0.2.4a0.2,0.2,0,0,0,.4,0,0.76,0.76,0,0,0-.2-0.4h0Z" transform="translate(-0.28 -3.01)"/><path class="cls-2" d="M45.1,18.41l-0.2.4a0.2,0.2,0,0,0,.4,0l-0.2-.4h0Z" transform="translate(-0.28 -3.01)"/><path class="cls-2" d="M33.6,23.61L33.8,24a0.2,0.2,0,1,1-.4,0,1.47,1.47,0,0,0,.2-0.4h0Z" transform="translate(-0.28 -3.01)"/><path class="cls-2" d="M33.6,28.71l0.2,0.4a0.2,0.2,0,1,1-.4,0,1.47,1.47,0,0,0,.2-0.4h0Z" transform="translate(-0.28 -3.01)"/><path class="cls-2" d="M34.2,32.71l0.2,0.4a0.2,0.2,0,0,1-.4,0,1.47,1.47,0,0,0,.2-0.4h0Z" transform="translate(-0.28 -3.01)"/><path class="cls-2" d="M37.4,34.91l0.2,0.4a0.2,0.2,0,0,1-.4,0l0.2-.4h0Z" transform="translate(-0.28 -3.01)"/><path class="cls-2" d="M49.1,23.61l-0.2.4a0.2,0.2,0,0,0,.4,0,1.47,1.47,0,0,1-.2-0.4h0Z" transform="translate(-0.28 -3.01)"/><path class="cls-2" d="M49.1,28.71l-0.2.4a0.2,0.2,0,0,0,.4,0,1.47,1.47,0,0,1-.2-0.4h0Z" transform="translate(-0.28 -3.01)"/><path class="cls-2" d="M48.5,32.71l-0.2.4a0.2,0.2,0,0,0,.4,0,1.47,1.47,0,0,1-.2-0.4h0Z" transform="translate(-0.28 -3.01)"/><path class="cls-2" d="M45.3,34.91l-0.2.4a0.2,0.2,0,0,0,.4,0l-0.2-.4h0Z" transform="translate(-0.28 -3.01)"/><path class="cls-2" d="M41.4,37.21l-0.2.4a0.2,0.2,0,0,0,.4,0l-0.2-.4h0Z" transform="translate(-0.28 -3.01)"/><path class="cls-2" d="M47.6,29.61a0.19,0.19,0,0,0,.3,0l0.1-.4a0.77,0.77,0,0,0-.3-0.2,1.61,1.61,0,0,0-1.1.5,0.68,0.68,0,0,0,.4.6c0.1-.1.2,0.1,0.3,0.2a0.22,0.22,0,0,1-.2.2c-0.3-.3-0.8.1-1-0.3a1.08,1.08,0,0,0,0-1.1c0-.1.1-0.1,0.1-0.2-0.1-.3-0.5-0.1-0.7-0.1a0.81,0.81,0,0,0-.9.4,1.42,1.42,0,0,0,.2.4,0.2,0.2,0,0,1,.2.1l-0.2.1a0.37,0.37,0,0,1,.1.3c-0.2.1-.3-0.2-0.4-0.3a0.64,0.64,0,0,0-.2-0.6,0.35,0.35,0,0,0-.2.1,0.48,0.48,0,0,0-.1.4,1,1,0,0,0,.1.4,3.61,3.61,0,0,1,.9.9,2.39,2.39,0,0,1-.7,1.3,0.48,0.48,0,0,0-.1.4l0.1,0.1c0.3-.2.9-0.2,0.9-0.7a1,1,0,0,1,.5-0.6,0.38,0.38,0,0,1,.5.3,0.88,0.88,0,0,1-.6.7v0.2a0.48,0.48,0,0,0,.5.1c0.4-.3.6-0.7,0.9-0.9,0.1,0.2-.5.3-0.1,0.6a1.08,1.08,0,0,0,.7-0.3c-0.2-.4.6-0.6,0.1-1,0-.4.4-0.5,0.4-0.9a4.62,4.62,0,0,0-.7-0.7c-0.2-.1,0-0.1.2,0h0Z" transform="translate(-0.28 -3.01)"/><path class="cls-2" d="M30,34a0.41,0.41,0,1,0-.5-0.4,0.66,0.66,0,0,0,.5.4h0Z" transform="translate(-0.28 -3.01)"/><path class="cls-2" d="M5.3,48.41a0.41,0.41,0,1,0,0-.8,0.41,0.41,0,1,0,0,.8h0Z" transform="translate(-0.28 -3.01)"/><path class="cls-2" d="M21,51.91h0Zm0,0h0Z" transform="translate(-0.28 -3.01)"/><path class="cls-2" d="M21.1,51.91h0Z" transform="translate(-0.28 -3.01)"/><path class="cls-2" d="M21.3,51.91h0Z" transform="translate(-0.28 -3.01)"/><path class="cls-2" d="M21.3,51.91h0Zm0,0h0Z" transform="translate(-0.28 -3.01)"/><path class="cls-2" d="M21.4,51.91h0Z" transform="translate(-0.28 -3.01)"/><path class="cls-2" d="M50.2,17.81H32.6v13.5c0,1.4.6,2.6,1.4,2.9l6.8,4.3a0.71,0.71,0,0,0,.6.3,0.76,0.76,0,0,0,.5-0.2l6.9-4.4a3.29,3.29,0,0,0,1.4-2.9V17.81h0Zm-0.5,13.6a2.84,2.84,0,0,1-1.1,2.3L42,37.91h0a0.73,0.73,0,0,1-1,0l-6.6-4.2a3,3,0,0,1-1.1-2.3V18.31H49.9l-0.2,13.1h0Z" transform="translate(-0.28 -3.01)"/><path class="cls-2" d="M43.7,37.41l0.2-.1c-0.1,0-.1.1-0.2,0.1h0Z" transform="translate(-0.28 -3.01)"/><path class="cls-2" d="M30.4,55.81l-1.7.2v-0.1c0.3-.1.4-0.1,0.4-0.2a1.33,1.33,0,0,0-.3-0.5l-1.2.1a3.93,3.93,0,0,0-.2.6c0,0.2.3,0.1,0.4,0.1v0.1l-1,.1v-0.1c0.3-.1.3-0.2,0.4-0.6L28.1,53h0.1l1.4,2.1c0.3,0.4.4,0.6,0.6,0.5l0.2,0.2h0ZM28.8,55l-0.6-1-0.4,1.1,1-.1h0Z" transform="translate(-0.28 -3.01)"/><path class="cls-2" d="M59.6,49.51a2.7,2.7,0,0,0-1.7-1.6,2,2,0,0,0-2.2.6c-0.9.7-.3,2-0.2,3a0.48,0.48,0,0,1-.2.5c-3.7-.3-7.1-1.2-10.7-1.6a21.3,21.3,0,0,1-2.5-.3l-1-.1a47.3,47.3,0,0,0-9.3,1,19.44,19.44,0,0,0-2,.5c-0.5-.1-0.8.2-1.3,0.1l-0.8.2H27.4c-0.4-1,.8-1.7.4-2.7a1.76,1.76,0,0,0-1.7-1,2.12,2.12,0,0,0-2,1c-0.6,1.3.2,2.6,0.4,3.8-0.1.4,0.4,0.9,0,1.2a3.34,3.34,0,0,0-2.9-.6c-0.3.2-.9-0.1-1,0.3a7.76,7.76,0,0,0,3.7.5,0.3,0.3,0,0,1,.4,0c0.1,0.7-.1,1.6.3,2.1a2.36,2.36,0,0,0,1.9.8,34,34,0,0,0,6.5-1.3c0.3,0,.6-0.2.9-0.2a14.22,14.22,0,0,1,3.6-.5,9.73,9.73,0,0,0-1.1,2.3c-0.3.7,0.5,0.8,0.8,1.2a21.16,21.16,0,0,0-2.1,1.1c-1.6-.1-3,0.6-4.5.7,0,0.3.5,0.2,0.6,0.6a1,1,0,0,1-.5.4c0,0.2,0,.2.2,0.2a2.07,2.07,0,0,1,.6-0.2c0.5,0,.9-0.2,1.4-0.2a6.94,6.94,0,0,0,1.3-.5c0.5-.2.9-0.5,1.4-0.7,0.8,0,1.4-.3,2.1-0.3V60c-0.6.9-1.2,1.9-1.8,2.8a0.25,0.25,0,0,0,.2.4,1.16,1.16,0,0,0,1-.2c0.5-.9,1-1.8,1.4-2.7a3.81,3.81,0,0,1,1.4-1.9,0.3,0.3,0,0,1,.4-0.1,18.76,18.76,0,0,0-1.2,1.8,2,2,0,0,0,.4,2.2,1.64,1.64,0,0,0,1.2.2c1-.5,2.2.3,3-0.7,0.5-.1.5,0.5,0.8,0.7s0.9,0.6,1.3.2a1.77,1.77,0,0,0-.5-0.8c-0.3-.5-0.7-1-1-1.5a6.31,6.31,0,0,1-.4-0.9,3.94,3.94,0,0,0,1.4.5c0.4,0.2,1,.2,1.4.4a4.49,4.49,0,0,0,1.3,1,11.69,11.69,0,0,0,2,.6,1.1,1.1,0,0,0,.8,0,1.38,1.38,0,0,0-.4-0.3c-0.1-.3.5-0.2,0.6-0.4a0.53,0.53,0,0,0-.3-0.2c-0.4-.2-1.3-0.3-1.5-0.4l-0.9-.3c-1.5,0-2.4-1.4-3.6-1.9a7.27,7.27,0,0,0,.9-0.8,1.5,1.5,0,0,0,.1-1.3c-0.2-.8-1.2-0.7-1.8-1.1l0.1-.1a8,8,0,0,1,2.7.4c2.4,0.3,4.7,1.2,7.2,1.3,1.4,0,3.1.1,3.8-1.3,0.1-.8.3-1.6,0.4-2.4,0.4-1.1,1.2-2.3,1.1-3.7h0ZM32.3,61.11l-0.4-.3c0.2-.2.6-0.1,0.8-0.3a3.86,3.86,0,0,1,2.1-.3,5,5,0,0,1-2.5.9h0Zm15.8-.4a9.8,9.8,0,0,0,2.7.6c-0.1.3-.7,0-0.6,0.5a6.14,6.14,0,0,1-2.3-1.1h0.2ZM24.4,49.91a2.23,2.23,0,0,1,.6-1.3,2.34,2.34,0,0,1,2,.1,0.7,0.7,0,0,1,.4.5,1.37,1.37,0,0,1-.4,1.2H26.8a2.54,2.54,0,0,1,.2-1.2,0.82,0.82,0,0,0-.5-0.5,1.43,1.43,0,0,0-1.1.3,1.13,1.13,0,0,0-.3,1.1,3.4,3.4,0,0,1,.1,1l-0.1.1a1.46,1.46,0,0,1-.7-1.3h0Zm1.2,0.7a2.2,2.2,0,0,0,1.4.2,1,1,0,0,1-.1.9,1.66,1.66,0,0,1-1.2-.5,0.61,0.61,0,0,1-.1-0.6h0Zm-0.1-.9a0.71,0.71,0,0,1,.3-0.6c0.2-.1.5-0.1,0.5,0.2s-0.1.6-.1,0.9a0.59,0.59,0,0,1-.7-0.5h0Zm11.8,8.2a2.74,2.74,0,0,1,.8-2.3,1.07,1.07,0,0,1,1.1.1c-0.7.2-1.5,0.3-1.6,1.2a1.13,1.13,0,0,0,.1.8c0.3,0.5.9,0.3,1.3,0.7a0.34,0.34,0,0,1-.2.3c-0.5-.3-1.1-0.5-1.5-0.8h0Zm-0.9,1.8a2.7,2.7,0,0,1,1.9-.6,3.57,3.57,0,0,1-1.9.6h0Zm2.4,0.2-1.2,2.4a0.76,0.76,0,0,1-.4.2,2.62,2.62,0,0,1,.5-0.9,23.92,23.92,0,0,1,1.3-2.1,1.42,1.42,0,0,1-.2.4h0Zm0.7-1.4h0c0-.1-0.1-0.1,0,0h0Zm-0.3-.7-1.2-.3a1.1,1.1,0,0,1,0-.8,1.22,1.22,0,0,1,1.8-.3,2,2,0,0,1-.6,1.4h0Zm0.6,0a4.87,4.87,0,0,1,.4-1.1,2.46,2.46,0,0,1-.4,1.1h0Zm0.3-2.1a2.62,2.62,0,0,0-.9-0.5,1.7,1.7,0,0,1,1,0,0.75,0.75,0,0,1-.1.5h0Zm0.3,0.8h0v-0.3h0v0.3h0Zm0,1.1a2.27,2.27,0,0,0,.1-0.4c0.1-.1.2,0.1,0.3,0.2-0.1.2-.3,0.3-0.4,0.2h0Zm0.4-1.5a1.27,1.27,0,0,1,.4-0.9,1.7,1.7,0,0,1,.7.1c0.1,0.5.7,1.2,0,1.6a0.78,0.78,0,0,1-.8.1,0.63,0.63,0,0,1-.3-0.9h0Zm1.8-.8c-0.1-.2.2-0.1,0.3-0.2l0.8,0.1c-0.4,0-.9.9-1.1,0.1h0Zm1.3,0.4a3.51,3.51,0,0,1-.8.5,0.89,0.89,0,0,1,.8-0.5h0Zm-1.1,1.6h0Zm0.1,1.5a0.2,0.2,0,0,1-.1.2l-0.6-.5a0.91,0.91,0,0,1,.7.3h0ZM42.2,58c0.1-.1.2-0.1,0.2,0H42.2Zm-0.4-.4a0.54,0.54,0,0,1,.4-0.4,0.1,0.1,0,0,0,.1.1,0.68,0.68,0,0,1-.5.3h0Zm-0.6,0h0l0.1-.2c0.1,0.1,0,.1-0.1.2h0Zm0.1,0.9c0.3-.4.6,0.2,0.8,0.5,0.4,0.6,1.4,1.1,1,1.8-0.5.4-1.2,0-1.8,0.4a0.9,0.9,0,0,1-.9-0.2,25,25,0,0,1,.9-2.5h0Zm-0.7.5,0.1-.2a14.17,14.17,0,0,1-.8,1.8c-0.1-.5.5-1,0.7-1.6h0Zm1.1,3.1A2.5,2.5,0,0,1,40,62c0-.2-0.2-0.3-0.2-0.5,0.4-.2.8,0.3,1.1,0a5.46,5.46,0,0,1,1.8.1c0.3,0.1.7-.5,0.8,0.1-0.2.7-1.2,0.1-1.8,0.4h0Zm1.5-3.7h0ZM43.3,60c0,0.3.3,0.4,0.1,0.6a3.54,3.54,0,0,1-.1-0.6h0Zm0.8,1.5-0.1.1a0.9,0.9,0,0,1-.1-0.5,0.76,0.76,0,0,1,.2.4h0Zm1.2,0.6c0,0.1-.2.1-0.2,0A13,13,0,0,1,43.5,59h0.1c0.6,1.1,1.1,2.2,1.7,3.1h0Zm1-2.3c-0.1,0-.1.1,0,0a2.64,2.64,0,0,1-1.9-.7V59a5.17,5.17,0,0,1,1.9.8h0Zm-0.7-3.4a0.84,0.84,0,0,1,.4.7,1.56,1.56,0,0,1-1.9,1.3,1.42,1.42,0,0,0,1.5-.9v-1.1h0Zm-0.6-.1a1.47,1.47,0,0,1,.2,1.1,1.3,1.3,0,0,1-1.8.4c0-.1,0-0.2-0.1-0.2,0.1-.3-0.6-0.7-0.1-0.9,0.5-.4,1.4-1.3,1.8-0.4h0Zm12.9-1.8c-0.2.2,0,.7-0.3,0.9a1.11,1.11,0,0,1-.7.9c-3,.7-6-0.4-8.9-0.9a31.62,31.62,0,0,0-13-.2c-1.9.4-3.8,0.8-5.7,1.3a8.26,8.26,0,0,1-3.5,0c-0.9-.4-0.5-1.6-0.8-2.4a12.37,12.37,0,0,0-.2-1.8,1.7,1.7,0,0,1-.1-0.7c0.4,0.1.8,0.3,1.2,0.4,2.1,0.4,4-.3,6-0.6a54,54,0,0,1,5.8-.9,38.37,38.37,0,0,1,6.8.2c0.7,0,1.3.2,2,.2,1.4,0.2,2.7.6,4.2,0.7a2,2,0,0,0,.8.1c2.3,0.4,4.8,1,7,0-0.1,1-.5,1.9-0.6,2.8h0Zm-0.7-3.1c0,0.4-.4.3-0.6,0.5H56a1.7,1.7,0,0,1-.1-0.7,3,3,0,0,1,1.3.2h0Zm-0.3-.7c0.3-.3-0.1-1.9.7-0.8a1,1,0,0,1-.2.7,0.75,0.75,0,0,1-.5.1h0Zm2-.2a1.44,1.44,0,0,1-1.1.9c0-.6.6-1,0.4-1.7a1.54,1.54,0,0,0-1.6-.5,1.42,1.42,0,0,0-.2.6l-0.1.8c-0.5,0-.5-0.5-0.7-0.8a1.44,1.44,0,0,1,.8-1.3,1.6,1.6,0,0,1,1.5.1,1.13,1.13,0,0,1,.8.5,1.37,1.37,0,0,1,.2,1.4h0Z" transform="translate(-0.28 -3.01)"/><text class="cls-3" transform="translate(90.68 29.8)">Australian Government</text><text class="cls-3" transform="translate(90.57 57.08)">Australian Commission fo<tspan x="178.68" y="0">r</tspan><tspan class="cls-4" x="185.49" y="0"> Law Enfo</tspan><tspan x="256.62" y="0">r</tspan><tspan x="263.43" y="0">cement Integrity</tspan></text></svg>