<svg xmlns="http://www.w3.org/2000/svg" viewBox="0 0 468.24 60.53"><defs><style>.cls-1{fill:none;stroke:#222;stroke-miterlimit:10;stroke-width:0.5px;}.cls-2{fill:#222;}.cls-3{isolation:isolate;}</style></defs><title>coas</title><path class="cls-1" d="M90.74 38.6h377.5"/><path class="cls-2" d="M27.72 48.2a.38.38 0 0 1-.2.2" transform="translate(.02)"/><path class="cls-2" d="M29.72 33.2a.4.4 0 1 0-.4-.4.37.37 0 0 0 .34.4h.06zM48.32 16.2h-14.5v11.7a2.77 2.77 0 0 0 1.1 2.4l5.6 3.3a.76.76 0 0 0 .5.2 1.06 1.06 0 0 0 .5-.2l5.7-3.4a2.55 2.55 0 0 0 1.1-2.4v-11.6zm-9.7 3.4h-1.3v-3h1.3v3zm-.9 1l.2-.2-.1-.2h.18l.1-.2.1.2h.2l-.1.2.2.2h-.2v.2l-.2-.2-.2.2v-.2h-.2zm-3.5 3.8v-2.8h1.5v2.8h-1.5zm.3-4.2h.2l.1-.2.1.2h.2l-.1.2.2.2h-.22v.2l-.2-.2-.2.2v-.2h-.2l.2-.2-.1-.2zm1.7 2.9h.2l.1-.2.1.2h.2l-.1.2.2.2h-.2v.2l-.2-.2-.2.2v-.2h-.2l.2-.2-.1-.2zm1-2.3c0-.1-.1-.1-.2-.1s-.2.2-.3.2-.1 0-.1-.1.2-.1.2-.2a1.36 1.36 0 0 0-1.1.39c-.2 0 .2-.5.3-.6a1.76 1.76 0 0 1-.5-.4.19.19 0 0 1 .27 0 .25.25 0 0 1 .29-.2c.4 0 .3.4.4.4s0-.4.3-.4.9 1.1.5 1.1-.1 0-.1-.1zm-1.1-3.1l.2-.2-.1-.2h.2l.1-.2.1.2h.2l-.1.2.2.2h-.2v.2l-.2-.2-.2.2v-.2h-.2zm-.4-1.1v3h-1.5v-3h1.5zm2.9 15.5l-3.5-2.1a2.2 2.2 0 0 1-.9-1.9v-3.3h4.4v7.3zm-1.2-7.7v-2.8h1.3v2.8h-1.3zm5.7 7.9l-1.6 1a.6.6 0 0 1-.4.1.76.76 0 0 1-.4-.2l-1.6-1v-7.5h4.1l-.1 7.6zm0-7.9h-4.12v-7.8h4.1v7.8zm4.8 3.6a2.85 2.85 0 0 1-.9 1.9l-3.5 2.1v-7.3h4.4v3.3zm0-3.6h-4.4v-7.8h4.4v7.8zM38.42 27.4a.52.52 0 0 0-.4.2 1.27 1.27 0 0 1 .4-.6c0-.2-.3 0-.5.1.8-1.2.3-.7-.2-.6.7-.8.5-.8 0-.5a1.19 1.19 0 0 0 .5-.9c-.4.5-.8.4-.8.9a1.49 1.49 0 0 1-.3 1c-.2.2-.1-.9-.6-.9a.84.84 0 0 0-.7.2.62.62 0 0 1 .3.4c0 .1.1.4-.1.4a.68.68 0 0 1-.4-.6v-.4a1.53 1.53 0 0 0-1.1-1.1 5.94 5.94 0 0 1 .4.8c-.2 0-.4-.3-.4-.1s.3.2.3.4-.3-.1-.3.1.2.1.2.3h-.3a.2.2 0 0 0 .1.2.58.58 0 0 0-.1.4 1.28 1.28 0 0 0 1 1.4.26.26 0 0 0 .3-.3c0 .2.2-.1.2.2a1.38 1.38 0 0 1-.3.4c0 .3.5 0 .5.4a3.54 3.54 0 0 1-.1.6 1.06 1.06 0 0 0 .5-.2 1 1 0 0 0 .3.4l.3-.4a.52.52 0 0 0 .4.2 2.57 2.57 0 0 0-.2-.5c0-.3.6-.2.5-.4a.38.38 0 0 1-.2-.2s-.5-.7.1-.3.7-.9.7-1zM53.82 30.5a.41.41 0 1 0-.5-.4.66.66 0 0 0 .5.4zM51.92 31.6a.41.41 0 1 0-.5-.4.54.54 0 0 0 .5.4zM29 34.3a.41.41 0 1 0-.5-.4.46.46 0 0 0 .5.4zM30.52 34.4a.41.41 0 1 0-.52-.4.46.46 0 0 0 .5.4zM71.72 14.4a3.08 3.08 0 0 1 .4 3.2c-.3 0-.2-.4-.3-.6a4 4 0 0 1-.5-3.2c.4 0 .2.5.4.6zM11.22 15.6a3.4 3.4 0 0 0 0 2c-.1.1-.1-.1-.2-.1-1-.7-.5-2.1-.8-3.1a.31.31 0 0 1 .2-.1 1.83 1.83 0 0 1 .8 1.3zM73.92 15.7a.61.61 0 0 1-.3.7.54.54 0 0 1-.6-.3.67.67 0 0 1 .3-.7.6.6 0 0 1 .6.3zM9.72 16.8a1.14 1.14 0 0 1-.3.6.75.75 0 0 1-.5-.1.35.35 0 0 1-.11-.48.48.48 0 0 1 .5-.2c.1-.1.3 0 .4.2zM74.92 17.2a.3.3 0 0 1 0 .4.62.62 0 0 1-.7.2 1 1 0 0 1-.3-.4 1 1 0 0 1 .4-.5 1.14 1.14 0 0 1 .6.3zM73.42 17.2c.2.1.1.4 0 .5a.85.85 0 0 1-.5.3.45.45 0 0 1-.3-.3.55.55 0 0 1 .4-.6.48.48 0 0 1 .4.1zM71.62 17.6a.61.61 0 0 1-.3.7.51.51 0 0 1-.2-1 .85.85 0 0 1 .5.3zM12.42 17.7a.46.46 0 0 1-.3.5.42.42 0 0 1-.5-.3c-.2-.2.1-.3.1-.5a.61.61 0 0 1 .7.3zM10.92 17.8a.55.55 0 0 1-.3.5.48.48 0 0 1-.5-.2.43.43 0 1 1 .8-.3zM65.52 17.9a5.34 5.34 0 0 1 .5 1.8 2.54 2.54 0 0 1-.3 1.5 1.56 1.56 0 0 1-.6-.8c-.5-.9-.1-1.9.1-2.8.2-.1.2.2.3.3zM9.72 18.2a.49.49 0 0 1-.3.6.55.55 0 0 1-.6-.4.71.71 0 0 1 .3-.6.92.92 0 0 1 .6.4zM69.52 19a3.3 3.3 0 0 1 .1 2.4l-.2.1a5.8 5.8 0 0 1-1-2.1 4 4 0 0 1 .3-1.5c.2-.1.3 0 .4.2a1 1 0 0 0 .4.9zM72.72 18.5a.55.55 0 0 1-.4.6.45.45 0 0 1-.58-.25.49.49 0 0 1 .3-.6c.3-.2.5.1.7.3zM11 19.3a.66.66 0 0 1-.4.5c-.2.2-.4-.1-.5-.2a.64.64 0 0 1 0-.6.34.34 0 0 1 .4-.2.82.82 0 0 1 .5.5zM12.12 19.2a.55.55 0 0 1-.3.5.49.49 0 0 1-.6-.3c-.1-.3.1-.4.3-.6s.4.1.6.4zM73.42 19.1a5.3 5.3 0 0 1-.6 1 2.48 2.48 0 0 1-1.6 1.4 1.14 1.14 0 0 1-.6.3 2.1 2.1 0 0 1 .7-1.4 3.93 3.93 0 0 1 2.1-1.3zM10.52 20.2l1 1.2a.34.34 0 0 1-.2.3c-1.2-.1-2.1-1.3-2.7-2.2.1-.3.4-.1.6-.1a3.07 3.07 0 0 1 1.3.8zM73.72 20.5a3.24 3.24 0 0 1-1.6 2.7 1 1 0 0 1-.9.2 12.15 12.15 0 0 1 2.2-3h.3v.1zM68.92 21.2a.53.53 0 0 1-.32.68h-.08a.68.68 0 0 1-.6-.4.62.62 0 0 1 .4-.6.37.37 0 0 1 .3-.1.62.62 0 0 0 .3.4zM9.12 21.5a14.93 14.93 0 0 1 1.4 1.2 2 2 0 0 1-1.1 0l-2.3-1.3c0-.3.4-.2.5-.3a4.8 4.8 0 0 1 1.5.4zM36.12 13.9c-1.4-.6-2.4.9-3.8.7a.76.76 0 0 0-.2.4.32.32 0 0 1-.3 0l-.4-1.8c-.1-.2-.1-.6-.2-.9-.8-2.2 2-.5 2.5-1.8.5-1.1-.9-1.2-1.4-2v-.3a3.84 3.84 0 0 1-1.1-1.1 4.44 4.44 0 0 0 .1-2 .28.28 0 0 0-.4-.3c-.5.7-.8 1.2-1.3 1.8a8.28 8.28 0 0 0-1.5-1.1 2.38 2.38 0 0 0-1.2-.3.3.3 0 0 0 .1.4 3.51 3.51 0 0 0 1.2 2.5l.1.4c-.5 1-.3 2.2-.5 3.4a18.27 18.27 0 0 1-5.5 7.7c-1.4 1.6-3.2 3.2-3.4 5.4a1.5 1.5 0 0 1-.2 1 10.78 10.78 0 0 1-2.4-1.2c-1.2-.8-2.8-.7-3.6-2.2a1.56 1.56 0 0 1 .4-1.6c.9-.8.7-2.3.3-3.3l-.2.1c-.1 1.5-1.3 2.5-.8 4.2.1.5.4.8.5 1.2a1.27 1.27 0 0 0-.6-.1 5 5 0 0 0-1.7-.2c-1.2.5-2.8-.1-3.7.9-.2 0-.4.1-.3.3a9.15 9.15 0 0 0 1.6.1c.9.2 1.5-.6 2.1-.9h.2a1.64 1.64 0 0 1 1-.2 9.94 9.94 0 0 1 4.1 1.7v.1a11.11 11.11 0 0 0-1.6.7 3.33 3.33 0 0 0-1.4 1.7c-.4.6.1 1.2.4 1.7a.78.78 0 0 0 .3.7c.8-.9.1-1.9.2-2.9a2 2 0 0 1 1.6-1.3c1.4-.6 2.5.6 3.6 1.2a19 19 0 0 1-.1 3.4 5 5 0 0 1-1.2.2c-2 .2-3.6 1.2-5.4 1.9l-2.6.6a6.08 6.08 0 0 0 1.9-.1c2.5-.4 4.4-2.3 7-1.9l.1.1a6.57 6.57 0 0 1-1.2 1.7 1 1 0 0 0-.4-.7.52.52 0 0 0-.6.2.3.3 0 0 0 0 .4 1 1 0 0 0 .5.4 2.36 2.36 0 0 1-.5.5c-.7 1.2-2.2.7-3 1.6-.1.2-.6.3-.4.6a3.79 3.79 0 0 0 2.6-.7c.9-1 1.9-2 2.9-3a2.72 2.72 0 0 1-.6 2.3 4.35 4.35 0 0 0-.7-.4.82.82 0 0 0-.5.5 1 1 0 0 0 .4.5 7.54 7.54 0 0 1-2.9.9 49.07 49.07 0 0 1-5.5.4c-.9-.1-1.9.3-2.7 0-1 .2-2-.1-2.8.4a.55.55 0 0 0 0 .4c1.2.8 2.8.2 4.1.4h10a4.92 4.92 0 0 0 2.1-.4c1.3-.7 2-2.1 2.7-3.4a8.8 8.8 0 0 0 .5-1.5 2.13 2.13 0 0 1 1.9-1.6 13 13 0 0 1-.4 3.9c-.2.8-.7 1.6-.4 2.5a.89.89 0 0 0 .8.5 72.35 72.35 0 0 1 9.3.1 10.1 10.1 0 0 0 1.7.3.34.34 0 0 0 .2-.3 1.06 1.06 0 0 0-.6-.7.76.76 0 0 0-.4-.2c-1.6-.9-3.6-.4-5.5-.4-1 .1-2 .3-2.8-.3a3.17 3.17 0 0 1-.1-1.9 31.29 31.29 0 0 1 1.6-4.9 4.3 4.3 0 0 0 .2-1.2 1.77 1.77 0 0 0 .7-1.7 11.28 11.28 0 0 1 .8-2.4l.4-1.2a5 5 0 0 1 .5-1.3c.8.5 1.6.5 2 1.4l.4 2.1c0 .1.1.4.3.2.7-.4.5-1.4.5-2.1a7 7 0 0 0-.6-1.9 2.31 2.31 0 0 1-.5-.7c-.1-.6-1.3-.9-1-1.6a2.37 2.37 0 0 1 .9-1.5.2.2 0 0 1 .1.2h.2v-2.1c.8 0 2 .1 2.9.1a1.49 1.49 0 0 0 .7.3l.2-.3 2-.4c-.9 0-1.5-1-2.3-1z" transform="translate(.02)"/><path class="cls-2" d="M38.34 14.8z"/><path class="cls-2" d="M16.32 21.9a.68.68 0 0 1-.4.6.85.85 0 0 1-.5-.3.55.55 0 0 1 .4-.6.62.62 0 0 1 .5.3zM14.72 21.9a.47.47 0 0 1 .1.6c-.2.2-.5.3-.6.1s-.3-.3-.2-.5a.51.51 0 0 1 .7-.2z" transform="translate(.02)"/><path class="cls-2" d="M49.94 22.2"/><path class="cls-2" d="M69.12 22.6a.49.49 0 0 1-.3.6c-.3-.1-.6-.1-.6-.5a.54.54 0 0 1 .4-.4.85.85 0 0 1 .5.3zM70.52 22.6a.44.44 0 0 1 .1.5.38.38 0 0 0-.2.2.49.49 0 0 1-.6-.3c-.1-.3.2-.4.4-.5 0-.1.1 0 .3.1zM8.32 22.9a.52.52 0 0 1-.66.31.53.53 0 0 1-.2-.3.35.35 0 0 1 .29-.4.49.49 0 0 1 .59.36zM16.92 23.3a1 1 0 0 1-.4.5.82.82 0 0 1-.6-.4.46.46 0 0 1 .3-.5.67.67 0 0 1 .7.4zM15.42 23.2a.33.33 0 0 1 .1.4c-.2.1-.4.4-.6.2a.46.46 0 0 1-.3-.5.62.62 0 0 1 .38-.3c.1-.1.2.1.4.2zM74.32 23.5a.85.85 0 0 1-.3.5.66.66 0 0 1-.6-.1.6.6 0 0 1-.1-.4.55.55 0 0 1 .5-.3.46.46 0 0 1 .5.3zM76 23.7a.82.82 0 0 1-.5.5.35.35 0 0 1-.4-.29.39.39 0 0 1 .2-.4.43.43 0 0 1 .7.2zM11.22 24a.49.49 0 0 1-.3.6.46.46 0 0 1-.6-.6 1 1 0 0 1 .4-.3 1.07 1.07 0 0 1 .5.3zM12.52 24.3c.1.2-.2.3-.2.4a.44.44 0 0 1-.5.1c-.2-.2-.4-.4-.2-.6.2-.4.7-.2.9.1zM72.82 24.2a1.06 1.06 0 0 1-.4.6.38.38 0 0 1-.48-.23v-.07a.55.55 0 0 1 .3-.5c.3-.1.5-.1.6.2zM74.92 24.6a.71.71 0 0 1-.3.6.61.61 0 0 1-.6-.1.48.48 0 0 1-.1-.5.54.54 0 0 1 .6-.3.62.62 0 0 1 .4.3zM10.32 25.1c.1.2-.1.3-.2.4a.44.44 0 0 1-.5-.1.48.48 0 0 1-.1-.5c.2-.4.7-.1.8.2zM73.32 25.6c.1 0 .1.2 0 .2a1.81 1.81 0 0 1-2-.1 5.3 5.3 0 0 0-1-.6 1.27 1.27 0 0 1 .9-.4c.7.2 1.3.9 2.1.9zM11.52 25.3c.1.2-.1.3-.2.4a.33.33 0 0 1-.4.1.52.52 0 0 1-.2-.6.52.52 0 0 1 .74 0l.06.08zM13.72 25.5a.73.73 0 0 1-.2.6.9.9 0 0 1-.52-.1c-.1-.2-.4-.4-.1-.6.2-.4.6-.2.8.1zM42.92 26.6c-.1.5-.9-.1-.8.6a2.92 2.92 0 0 0 .5 1.4 2.77 2.77 0 0 1 .1 1.3 2 2 0 0 1-1 .8c-.7-.1-1.8.4-2.1-.5a5.64 5.64 0 0 1-.4-1.2.31.31 0 0 1 .2-.1 1.47 1.47 0 0 0-.2-.4c.8-.1-.3-.9.4-.9.6.6 1.5.4 2 1.1a1.38 1.38 0 0 0 .4.3c-.1-.6-.4-1.2-.5-1.9a.76.76 0 0 1 .3-.8c.5-.5.9 0 1.1.3zM15.92 26.4c.1.3-.1.4-.3.5a.55.55 0 0 1-.5-.3c-.1-.3.1-.4.3-.5a.85.85 0 0 1 .5.3zM31.52 26.7a3.67 3.67 0 0 1-.3 2.9c0 .2.1.5-.2.5-.7-.9-.2-2.3.1-3.3 0-.3.4-.4.4-.1zM53.22 27.1a2.88 2.88 0 0 1 .1 2.4l-.2.2a6.36 6.36 0 0 1-.6-1.8 7.89 7.89 0 0 0 .3-1.3c.3-.1.3.4.4.5zM17.92 27.4a2.84 2.84 0 0 1-.9.6 2.49 2.49 0 0 1-2.2.4 2.77 2.77 0 0 1 2.9-1.2c0 .2.2.1.2.2zM7.52 28.3a7 7 0 0 1 1.7 2.5c.1.1.3.1.2.3s-.42-.2-.7-.1a2.55 2.55 0 0 1-1.5-2.6.37.37 0 0 1 .3-.1zM52.22 29.1a.56.56 0 0 1-.2.6.44.44 0 0 1-.5-.7.49.49 0 0 1 .69.08zM62.82 30.5a6.75 6.75 0 0 1 .2-1.4.9.9 0 0 0 .1-.5c.6-.8 1.8-.6 2.8-.5a6.11 6.11 0 0 0 1.3.3.66.66 0 0 1 .6-.1c.8-.4.3-1.4.3-2.1l-.3-.8a1.06 1.06 0 0 1-.2-.5 2.51 2.51 0 0 0-.4-.7 8.6 8.6 0 0 0-2-2.6 10.89 10.89 0 0 0-5.3-3.3c-2-.7-4 .2-5.8.8a1.82 1.82 0 0 1-1-1.1 4.85 4.85 0 0 1 .5-2.7 12.2 12.2 0 0 1 .7-1.7 15.7 15.7 0 0 0 1-4.4 2.28 2.28 0 0 0-1.4-2 1.44 1.44 0 0 0-1.4.3 3.32 3.32 0 0 1-1.6 1.5c-.1.4.5.2.7.3.6.1 1.2-.1 1.6.3a3.63 3.63 0 0 1-1.1 2.6 18 18 0 0 0-2.3 4l-.1-.1.1 6.2c.8 1.3 1.8 2.9 3.3 3.4.8.7 1.8 1.5 2.9.9.6-.2.6.6.9 1 .3.9-.4 1.6-.4 2.5l-.7 1.4a17 17 0 0 1-2.6 4.3l-1 .4a1.34 1.34 0 0 1-.9.2c-.8.3-1.9.1-2.4.9a.2.2 0 0 0 .2.1c1.5 0 3.3.1 4.9.1a.66.66 0 0 0 .4-.5 1.13 1.13 0 0 1 .3-1.1 11.11 11.11 0 0 1 .7-1.6c.5-1 1.1-2.1 1.7-3.1l.8-1.3a10 10 0 0 1 .8-1.4 4.23 4.23 0 0 0 .5-.7.59.59 0 0 0-.2-.5 1.85 1.85 0 0 1 .7-.2 2.91 2.91 0 0 1 1.4 1.7l.2.7.1.3-.1.8.1.8a23 23 0 0 1-.2 3.7c-.4 1.5-2.1 1.3-3.3 1.7-.3.2-.9.1-.9.6a24.62 24.62 0 0 0 4.7.1.92.92 0 0 0 .4-.6 1.69 1.69 0 0 0 .3-1c-.3-.4 0-.9-.1-1.4a.45.45 0 0 0 0-.5 18.1 18.1 0 0 0 .3-2.3l.2-1.2zM75.32 29.5a7.24 7.24 0 0 1-3.1 2.9c-.1 0-.2.1-.2-.1.9-.9 1.3-2.3 2.7-2.7a.61.61 0 0 1 .6-.1zM6.32 30.7a.76.76 0 0 1-.2.4.37.37 0 0 1-.49-.18.49.49 0 0 1 .3-.6 1.51 1.51 0 0 1 .4.4zM13.62 31.1c.1.2-.2.2-.3.3a2.82 2.82 0 0 1-2.9-.7c0-.1 0-.2.1-.2 1 .2 2.2 0 3.1.6zM7.72 30.8a.6.6 0 0 1 .1.4.52.52 0 0 1-.6.2.85.85 0 0 1-.3-.3.54.54 0 0 1 .4-.5.48.48 0 0 1 .4.2zM31.32 30.9a.55.55 0 0 1-.3.5.48.48 0 0 1-.5-.2.37.37 0 0 1 .18-.49c.2-.1.6 0 .6.2zM76.22 31a.42.42 0 0 1-.3.5.43.43 0 0 1-.6-.5.6.6 0 0 1 .6-.3l.3.3zM77.92 30.9c.2.2 0 .4-.1.6a.48.48 0 0 1-.5.2.66.66 0 0 1-.4-.5.43.43 0 0 1 .4-.4c.3-.2.4.1.6.1zM5.22 31.6a.52.52 0 0 1-.22.4.3.3 0 0 1-.4.1.78.78 0 0 1-.4-.4.82.82 0 0 1 .5-.5 1 1 0 0 1 .5.4zM58.42 31.6a.32.32 0 0 1 0 .3c-.2.2-.4.4-.6.2s-.3-.3-.2-.5a.52.52 0 0 1 .73-.07l.07.07zM9.32 32c-.1.2-.1.4-.4.4a.45.45 0 0 1-.4-.3.64.64 0 0 1 .2-.6.5.5 0 0 1 .6.5zM6.92 32.1a.64.64 0 0 1-.2.6.57.57 0 0 1-.72-.4.74.74 0 0 1 .5-.6 1.4 1.4 0 0 1 .4.4zM60.12 32a.45.45 0 0 1-.25.58.67.67 0 0 1-.7-.4.64.64 0 0 1 .5-.5.55.55 0 0 1 .5.3zM8 32.1a.4.4 0 0 1-.5.5.49.49 0 0 1 0-.9.46.46 0 0 1 .5.4zM74.82 32.3a.78.78 0 0 1-.4.4c-.2.1-.3-.1-.5-.2a.45.45 0 0 1 0-.5.5.5 0 0 1 .9.3zM76.72 32.4a.62.62 0 0 1-.6.4c-.2-.1-.5-.3-.3-.6a.34.34 0 0 1 .3-.2.49.49 0 0 1 .59.36zM64.82 32.6c.1.3-.2.4-.4.6a1.06 1.06 0 0 1-.5-.2.62.62 0 0 1 .4-.7.68.68 0 0 1 .5.3zM57.82 32.9a.37.37 0 0 1 .1.3c-.2.1-.4.4-.6.2a.55.55 0 0 1-.3-.5c.1-.2.7-.3.8 0zM59.22 33.1a.34.34 0 0 1-.2.4c-.2.2-.4 0-.6-.1a.3.3 0 0 1 0-.4.53.53 0 0 1 .3-.2.85.85 0 0 1 .5.3zM16.32 33.1c.2.2 0 .3-.1.5a.38.38 0 0 1-.51.16l-.09-.06a.64.64 0 0 1-.2-.6.76.76 0 0 1 .4-.2.59.59 0 0 1 .5.2zM67.52 33.2c.1.3-.2.4-.4.4a.49.49 0 0 1-.6-.3.76.76 0 0 1 .2-.4.83.83 0 0 1 .8.3zM66.12 33.2a.46.46 0 0 1-.3.5.47.47 0 0 1-.6-.1.48.48 0 0 1-.1-.4 1 1 0 0 1 .4-.3.6.6 0 0 1 .6.3zM77.52 33.5c.1.4-.4.2-.6.3a4 4 0 0 1-3.4-.2.91.91 0 0 1 .7-.3c1-.8 2.1.1 3.3.2zM8.32 33.2l-.1.2a4.17 4.17 0 0 1-3.3.6l-.1-.2a4.65 4.65 0 0 1 3.5-.6zM70 33.4a.76.76 0 0 1-.2.5.55.55 0 0 1-.7-.3.42.42 0 0 1 .3-.5.54.54 0 0 1 .6.3zM12.82 33.5a.85.85 0 0 1-.3.5.49.49 0 0 1-.6-.3.41.41 0 0 1 .2-.5.49.49 0 0 1 .66.2v.1zM11.12 33.6a.43.43 0 0 1-.6.5c-.2-.2-.4-.3-.3-.6l.4-.3a1 1 0 0 1 .5.4zM71.82 34.2a.66.66 0 0 1-.4.5.55.55 0 0 1-.5-.3.33.33 0 0 1 0-.46h.05a.37.37 0 0 1 .3-.1.46.46 0 0 1 .5.4zM9.22 33.9a.48.48 0 0 1-.1.4l-.5 1.1a3.26 3.26 0 0 1-1.8.8l-.1-.2a5.18 5.18 0 0 1 2.5-2.1zM70.52 34.5c.1.3-.2.4-.4.5a.55.55 0 0 1-.5-.3.46.46 0 0 1 .3-.5.44.44 0 0 1 .58.23v.07zM12.12 34.5a.44.44 0 0 1-.23.58h-.07a1.42 1.42 0 0 1-.6-.2.49.49 0 1 1 .9-.4zM75.22 35.2a6.13 6.13 0 0 0 .6-.4.54.54 0 0 1 .6.3.49.49 0 0 1-.3.6c-.2.1-.6-.2-.5.2a1 1 0 0 1 .4.5.19.19 0 0 1-.27 0 3.14 3.14 0 0 1-1.8-1.6c-.1-.2-.6-.4-.3-.6a2.75 2.75 0 0 1 1.6 1zM77.62 34.5a.45.45 0 0 1 0 .5c-.1.3-.5.2-.7.1a.76.76 0 0 1-.2-.5.62.62 0 0 1 .4-.3c.2-.1.3 0 .5.2zM68.42 35.8a5.3 5.3 0 0 1 .6 1 .31.31 0 0 1-.2.1c-.9-.5-2-1-2.3-2-.1-.1-.3-.2-.2-.4a2.41 2.41 0 0 1 1.7.7l.4.6zM10.72 34.9a.48.48 0 0 1-.2.5.64.64 0 0 1-.6-.2c-.2-.3.2-.5.4-.6s.2.1.4.3zM71.62 35.5a1.47 1.47 0 0 1-.2.4.66.66 0 0 1-.6-.1.33.33 0 0 1 0-.47c.2-.4.6-.1.8.2zM77.92 35.8a.55.55 0 0 1-.4.6.64.64 0 0 1-.6-.2.85.85 0 0 1 0-.5.62.62 0 0 1 .7-.2l.3.3zM60.42 39.3c0 .3-.6.2-.8.5a5.91 5.91 0 0 1-2.7.4v-.2a4 4 0 0 1 3.5-.7zM23.52 40.4a.43.43 0 0 1-.4.4.39.39 0 0 1-.4-.2.71.71 0 0 1 .28-.6.55.55 0 0 1 .5.4zM60 40.7a.82.82 0 0 1-.4.6.73.73 0 0 1-.6-.2.6.6 0 0 1-.1-.4.59.59 0 0 1 1.1 0zM65 40.8a4 4 0 0 1-2.2.9h-1.4l-.1-.1c.8-1 2.4-1 3.7-.8zM16.62 41.4a.55.55 0 0 1-.3.5.43.43 0 0 1-.3-.8c.2-.2.5.1.6.3zM17.92 41.7c.1.1-.1.2-.1.3a.45.45 0 0 1-.5 0 .4.4 0 0 1-.2-.4.53.53 0 0 1 .3-.2.55.55 0 0 1 .5.3zM8.22 44.2c-.2.3-.7-.1-.9-.2-.9-.5-.9-1.5-1.7-2.1.1-.3.3 0 .5 0a2.19 2.19 0 0 1 .5.3c.8.5 1 1.3 1.6 2zM81.92 34.4a2.06 2.06 0 0 0-1.9-1 1.87 1.87 0 0 0-1.4 1 1.23 1.23 0 0 0 .5 1.4.33.33 0 0 0 .46 0v-.05c.1-.3-.2-.3-.3-.6a.76.76 0 0 1 .3-.9 1.15 1.15 0 0 1 1-.1 2.7 2.7 0 0 1 .8.7 1.48 1.48 0 0 1 0 1.3 2.62 2.62 0 0 1-1.6 1.3c-2.1.3-25.1.2-25.1.2-2.7.3-5.8-.5-8.1.9a4 4 0 0 0-1.9 2.7 18.88 18.88 0 0 0-2 2l-.1-.1.5-1.8a9.62 9.62 0 0 0 .7-1.8 14 14 0 0 1 3.4-4.2c.6-.8 1.7-.7 2.7-.7a6.65 6.65 0 0 0 3.5.5.2.2 0 0 0 .1-.2l-1.3-.8c-1-.5-2 .2-3 .1a.2.2 0 0 1-.1-.2 23.78 23.78 0 0 1 3.1-1.7 23.29 23.29 0 0 1 2.82-1.15 2.08 2.08 0 0 1 1.1-.1l1.3-.4.2.1c1.1-.4 2.6 0 3.9-.1l.2.2 1.2.3c.5.1.7.6 1.1.6.2-.4-.3-.5-.4-.7a2.49 2.49 0 0 1 1.7.3l-.2.3a.44.44 0 0 0 .7.5c.3-.2 0-.5.1-.7a23.93 23.93 0 0 1 5.42 1.5 3.81 3.81 0 0 0 1.5.5 6.92 6.92 0 0 0-1.9-1l-1.4-.6.3-.2a3.52 3.52 0 0 0 2.2-1.4.85.85 0 0 0 .3-.3c-.2-.3-.6.1-.9.1l-2.6 1.7-3.9-.9a12.86 12.86 0 0 1-1.9-.4l-1.4-.1h-2.62l-.1-.2 2.6-1 6.8-3.1a12.87 12.87 0 0 0 1.9-2.1.55.55 0 0 0-.3-.5.33.33 0 0 0-.46 0v.05c-.3.2 0 .5 0 .8a3.78 3.78 0 0 1-1.2 1c-.1 0-7 3.1-7 3.1a16.29 16.29 0 0 1-3.1 1.1l-1.5.2a1.17 1.17 0 0 1-.6.6 4.22 4.22 0 0 1-1.2.3c-3.3 1.3-6.7 2.6-9.3 5.2a2.55 2.55 0 0 0-.1-2.2 1.45 1.45 0 0 1-.2-.7l-.4.2a4.16 4.16 0 0 0-.2 2.2c.1.5.5 1 .1 1.4a26.24 26.24 0 0 0-2.7 4.9.9.9 0 0 1-.6-.6 8.54 8.54 0 0 0 1.8-3.7 1.42 1.42 0 0 0 .2-.6 4.82 4.82 0 0 0 0-1.2c.2-.5-.7-1.1-.2-1.4l-.5.2c-1.1 1.4.6 3.6-.7 4.9v.1a4 4 0 0 1-1 1.2 3.09 3.09 0 0 1-1.2-1.5 2.08 2.08 0 0 1-.2-2.4 6.48 6.48 0 0 0-.2-2l-.2-.2a3.19 3.19 0 0 0-.4 3 4.13 4.13 0 0 0 .7 1.5 9.3 9.3 0 0 0 1.1 1.9c.1.3-.2.3-.3.4l-.5-.8a18.62 18.62 0 0 0-3.2-4.7.84.84 0 0 1-.2-.7 1.68 1.68 0 0 0 .3-1.9.76.76 0 0 1-.2-.4l-.4-.3c.1.9-.5 1.7-.3 2.6v.1a48.27 48.27 0 0 0-8.4-5.1l-.2.6a20.68 20.68 0 0 1 2.7 1.4 19.65 19.65 0 0 1 2.5 1.3 18.07 18.07 0 0 1 7.3 8.6 1.41 1.41 0 0 1 .1.9 11.38 11.38 0 0 0-1.9-1.9 3.81 3.81 0 0 0-1.9-2.8 3 3 0 0 0-1.8-.8l-9.2-.1c-7.5-.1-14.3.2-21.7.1-1-.1-2.3-.5-2.6-1.6a1.71 1.71 0 0 1 0-1.4 1.71 1.71 0 0 1 1.3-.7 1.6 1.6 0 0 1 .9.7 3.55 3.55 0 0 1-.4.9.21.21 0 0 0 .2.22h.1a1.39 1.39 0 0 0 .7-.8.66.66 0 0 0-.1-.6 1.72 1.72 0 0 0-1.2-1 1.83 1.83 0 0 0-1.7.6 2 2 0 0 0-.4 2.1 3.63 3.63 0 0 0 2.7 2.1l24.58.13c2.4.1 5.1-.3 7.5.2a3.07 3.07 0 0 1 2.1 1.9c0 .1-.1 0-.2 0a11 11 0 0 0-7.2-1.5 6.71 6.71 0 0 0-2.8.6 1.29 1.29 0 0 1-1.2-.4 4.32 4.32 0 0 0-3.7-.5v.2c1.2-.1 2 1 3.1 1.1a1.65 1.65 0 0 1 .7 0 27.17 27.17 0 0 1-3.5 1.6 2.84 2.84 0 0 1-.9-.6c-.5-.5-1.4-.3-2-.4h-.6a2.26 2.26 0 0 0 1.1.8c.6.3 1.4 0 1.9.4a2.18 2.18 0 0 0-.5.4c-1.2.5-2.2 1.5-3.5 1.5a4.42 4.42 0 0 1-3.7-1.2 2.55 2.55 0 0 0-2.5-1.5.38.38 0 0 0-.2.2 10 10 0 0 1 1.5 1.4c.4.4 1 0 1.4.5a5.58 5.58 0 0 0 1.6.7 6.47 6.47 0 0 0 1.3.4l-.2.1a20.85 20.85 0 0 1-7.5.7c-.8 0-1.5-.2-2.2-.2a1.27 1.27 0 0 0 .6.4 1.45 1.45 0 0 1-.7.2 3.81 3.81 0 0 0-1 .3 3.59 3.59 0 0 0-1.1.2 5.26 5.26 0 0 1-1.4 1.2c0 .1 0 .3.1.3l1.6-.3c.8-.1 1.3-1 2-1.4.7-.6 1.7-.4 2.6-.3.5.1-.1.3.1.7a.67.67 0 0 0 .7.3.2.2 0 0 1 .2-.1.46.46 0 0 0 0-.6 4.87 4.87 0 0 1 1.2-.1 28.5 28.5 0 0 0 2.9-.3c.2 0 .3-.2.5 0-.1.2-.3.2-.2.5a1 1 0 0 0 .5.4.55.55 0 0 0 .4-.6.62.62 0 0 0-.4-.3c.5-.3 1.1-.3 1.7-.6a4.87 4.87 0 0 0 1.1-.4 2.92 2.92 0 0 1 .9-.2 6.12 6.12 0 0 1-.5 1.2 6.07 6.07 0 0 0 0 4.4.2.2 0 0 0 .2-.1 6.72 6.72 0 0 1 .2-4.2c.4-2.2 2.6-2.8 4.2-3.6l.1.1c-.4 1.1-1.1 2.2-1 3.5.1.2-.1.5 0 .6a2.26 2.26 0 0 0 .9-1.2c.2-1.1-.5-2.6.7-3.4 2.1-.8 4-1.9 6.4-1.9.1.1.2-.1.3.1a8.45 8.45 0 0 0-1.5 1.8 5.55 5.55 0 0 0-.4 4.4c.2.8-.5 1.2-.8 1.8a2.61 2.61 0 0 0-.3.8l.5.1a3.5 3.5 0 0 0 .9-1.7.63.63 0 0 0 .5.5c.2-.3-.2-.5-.2-.8.4-.2.6.3.9.4a8.33 8.33 0 0 0 1.5.4l.2-.2a3.27 3.27 0 0 0-2.6-1.1 5.57 5.57 0 0 1-.5-2.9 4.94 4.94 0 0 1 .5-1.6 3.59 3.59 0 0 1 .7-1 5.07 5.07 0 0 1 1.6-.9h.1v.1a5.54 5.54 0 0 0-1.2 1.9 2.17 2.17 0 0 0-.2 2.2 4.87 4.87 0 0 0 .4 1.1 4.28 4.28 0 0 0 .5-1.6c-.1-.8-.6-1.6-.1-2.4a2 2 0 0 1 1.4-1.1 8.37 8.37 0 0 1 3.8 1.1 1.21 1.21 0 0 1 .7.7 2.07 2.07 0 0 1-.9 1.7 2.13 2.13 0 0 1-2.3 0 1.8 1.8 0 0 1-.4-1.6 1 1 0 0 1 1.1-.4.83.83 0 0 0 .8.2.33.33 0 0 0 .1-.4 2.41 2.41 0 0 0-.8-.6 1.38 1.38 0 0 0-1.4.3 2.11 2.11 0 0 0-.6 1.8 2.17 2.17 0 0 0 1.6 1.6 2.85 2.85 0 0 0 3.1-1.1 3.88 3.88 0 0 0 .6-1.1 6.4 6.4 0 0 1 2.6 3.4 5.65 5.65 0 0 1 0 1.3l.9.1a.66.66 0 0 1 .1-.6 7.73 7.73 0 0 1 2.6-4.2c.4-.3.3.3.4.5a3.19 3.19 0 0 0 2.2 1.9 2.64 2.64 0 0 0 2.7-.9c.3-.6.7-1.5.2-2.1a1.91 1.91 0 0 0-1.4-.7 1.77 1.77 0 0 0-1.4.9.48.48 0 0 0 .2.5.6.6 0 0 0 .4-.1 1.39 1.39 0 0 1 .7-.8.63.63 0 0 1 .8.2 1.53 1.53 0 0 1 .4 1 1.74 1.74 0 0 1-.8 1.2 2.55 2.55 0 0 1-2.4-.2 4.13 4.13 0 0 1-.7-1.1 1.66 1.66 0 0 1 0-1.2 9.17 9.17 0 0 1 3.6-1.3 2.87 2.87 0 0 1 1.3.8c1.2 1.2-.2 2.9.6 4.2a1 1 0 0 0 .4-.7c.4-.9-.1-1.9-.3-2.8a4.92 4.92 0 0 0-1-1.5.37.37 0 0 1 .3-.1 9.34 9.34 0 0 1 1.5 1.3 7.29 7.29 0 0 1 1 4.2 2.48 2.48 0 0 1-1.6 1.4 2.7 2.7 0 0 0-.7.8 1.18 1.18 0 0 0 1-.1 3.84 3.84 0 0 0 1.1-1.1l.1.2c0 .3-.1.7.1.7a5.85 5.85 0 0 0 .2-1.3 3 3 0 0 1 .5 1.3 1.5 1.5 0 0 0 1.2 1.1.62.62 0 0 0-.1-.7 2.81 2.81 0 0 0-1-1.4c-.9-1.2-.5-3.1-1.2-4.5a4.93 4.93 0 0 0-1.4-1.9l.1-.1a18.57 18.57 0 0 1 3.4.6c1.4.7 3.4.5 4.1 2.3a6.34 6.34 0 0 0 1.4 2.7l.1-.1a.75.75 0 0 0 0-.9c-.2-1.3-1.3-1.6-1.8-2.6l.1-.1a12.67 12.67 0 0 1 1.8.6 5.55 5.55 0 0 1 3.7 4.6 10.82 10.82 0 0 1-.9 4.4c-.1.2-.4.4-.2.6a2.18 2.18 0 0 0 .5-.8 6.85 6.85 0 0 0 .8-5.1 1.49 1.49 0 0 1-.2-.9.4.4 0 0 0 .4.2.55.55 0 0 0 .5-.8 1 1 0 0 0-.7-.2 1.69 1.69 0 0 0-.3.6 3.81 3.81 0 0 0-.9-1.3l.1-.1c1.1.4 2.2.9 3.3 1.2a1.22 1.22 0 0 0 .9.3c1 .4 2.1.5 3.1.8.8-.1 1.4.3 2.1.1v-.1c-.3-.4-.9 0-1.2-.3a21.45 21.45 0 0 1-5-1.2c0-.1.1-.1.2-.1a.82.82 0 0 0 .4-.6.6.6 0 0 0-.6-.3.54.54 0 0 0-.4.4.66.66 0 0 0 .4.5.14.14 0 0 1-.2 0 22.88 22.88 0 0 0-2.3-1 2.61 2.61 0 0 0-.8-.3c-.6-.3-1.2-.6-1.7-.8a44.45 44.45 0 0 0-5.1-1.9l-1.1-.3-1.9-.5c-2.1-.5-5-.6-6.9.6-.3-.1-.5.4-.6.1.5-1.4 2.1-1.9 3.5-1.9l29.6-.3a3.07 3.07 0 0 0 2.9-1.5c.1.3.2-.8-.1-1.4zm-40.2 9.3a3.18 3.18 0 0 0-.3.9l-.1.1-.2-1-.4-1s.2-.6.4-.9a1.78 1.78 0 0 1 .7.8 2.08 2.08 0 0 1-.1 1.1zM69.12 42.1c0 .1.2.1.1.2a5.54 5.54 0 0 1-3.4 1.1l-.3.1a.2.2 0 0 1-.1-.2 3.89 3.89 0 0 1 3.7-1.2zM65 42.6a.53.53 0 0 1-.32.68h-.08a.82.82 0 0 1-.6-.4c-.1-.2.1-.3.2-.4a.44.44 0 0 1 .8.1zM17 42.6a.46.46 0 0 1-.6.6.35.35 0 0 1-.3-.39.55.55 0 0 1 .3-.5 1.69 1.69 0 0 1 .6.3zM12.52 44.3v.2a1.8 1.8 0 0 1-1.6-.4 5.35 5.35 0 0 0-1.3-1.3c0-.1-.2-.2 0-.2 1.2 0 1.9 1 2.9 1.7zM72.92 42.6a5.23 5.23 0 0 1-2.1 2.3c-.2 0-.3.3-.5.1a4.71 4.71 0 0 1 2.2-2.4.53.53 0 0 1 .4 0zM18.52 42.9a.66.66 0 0 1-.4.5.42.42 0 0 1-.4-.3c-.1-.3.1-.4.3-.5a.68.68 0 0 1 .5.3zM76.12 43a8.4 8.4 0 0 1-.4 1.2 3.33 3.33 0 0 1-1.7 1.4 1.08 1.08 0 0 1 .3-.7 4.18 4.18 0 0 1 1.7-2l.1.1zM4.62 43.3a.46.46 0 0 1 0 .6.61.61 0 0 1-.62.1.48.48 0 0 1-.2-.6c.2-.3.7-.4.8-.1zM3.22 43.6a2.27 2.27 0 0 1 .1.4.62.62 0 0 1-.4.3.49.49 0 0 1-.6-.3.76.76 0 0 1 .2-.5.47.47 0 0 1 .66.05zM6.22 43.7c.1.2.1.6-.2.6a.63.63 0 0 1-.8-.3.55.55 0 0 1 .3-.5.84.84 0 0 1 .7.2zM10.32 44.1a.48.48 0 0 1-.2.5.9.9 0 0 1-.5.1c-.1-.2-.3-.3-.2-.5a1.38 1.38 0 0 1 .4-.3c.2 0 .4-.1.5.2zM78.62 44.2a.54.54 0 0 1-.4.4.71.71 0 0 1-.6-.3c-.1-.3.1-.4.3-.5a.84.84 0 0 1 .7.4zM73.92 44.4a.45.45 0 0 1-.3.4.57.57 0 0 1-.8-.4 1 1 0 0 1 .4-.5.67.67 0 0 1 .7.5zM77.12 44.3a.39.39 0 0 1-.2.4.45.45 0 0 1-.6-.1.29.29 0 0 1 .1-.5.51.51 0 0 1 .7.19zM4 44.7a.49.49 0 0 1-.3.6.62.62 0 0 1-.6-.4.59.59 0 0 1 .2-.5 1.49 1.49 0 0 1 .7.3zM72.72 45a.62.62 0 0 1-.4.7c-.2.1-.3-.1-.5-.2a.28.28 0 0 1 0-.5.52.52 0 0 1 .9 0zM17.62 45.3c.1.3-.2.3-.3.5a.3.3 0 0 1-.4 0c-.1-.2-.3-.3-.2-.5a.53.53 0 0 1 .3-.2c.3-.2.4 0 .6.2zM78.12 45.5a.48.48 0 0 1-.1.4.66.66 0 0 1-.6.1.56.56 0 0 1-.2-.6 1.38 1.38 0 0 1 .4-.3.6.6 0 0 1 .5.4zM76.52 45.6a.4.4 0 0 1-.29.49h-.11c-.1 0-.2-.1-.3.1a7 7 0 0 1 1.6 1.3v.2a3.11 3.11 0 0 1-2.5-1 2.12 2.12 0 0 1-.7-.3 2.1 2.1 0 0 1 1.4-.2c.3-.4-.4-.6.1-.9a.75.75 0 0 1 .5-.1 1.38 1.38 0 0 1 .3.4zM66.22 45.6a.6.6 0 0 1-.1.4.47.47 0 0 1-.6.1.64.64 0 0 1-.2-.6.49.49 0 0 1 .9.1zM9.72 46.5a.54.54 0 0 1-.4.4.55.55 0 0 1-.5-.3 2.27 2.27 0 0 1 .1-.4.46.46 0 0 1 .8.3zM11.72 46.1a2.62 2.62 0 0 1-.5.9 2.84 2.84 0 0 1-2 1.7 1.27 1.27 0 0 1 .4-.7 5.75 5.75 0 0 1 1.9-1.9h.2zM65.62 46.5a.68.68 0 0 1-.4.6.48.48 0 0 1-.5-.2.46.46 0 0 1 0-.6.58.58 0 0 1 .9.2zM67.22 46.7a.63.63 0 0 1-.5.6l-.2-.1a.55.55 0 0 1-.3-.5 1.51 1.51 0 0 1 .4-.4.72.72 0 0 1 .6.4zM15.72 46.6a.54.54 0 0 1-.4.5.41.41 0 0 1-.2-.8 1.14 1.14 0 0 1 .6.3zM17.42 46.7a.54.54 0 0 1-.5.4.85.85 0 0 1-.5-.3.54.54 0 0 1 .4-.5.92.92 0 0 1 .6.4zM72.62 48.5c.1.1.4.2.3.4-.4.2-.7-.3-1.1-.4a4.93 4.93 0 0 1-1.3-2 .88.88 0 0 1 .7.1 8.47 8.47 0 0 1 1.4 1.9zM73.52 46.7a.47.47 0 0 1-.1.6.66.66 0 0 1-.7.2c-.1-.2-.4-.4-.2-.6a.55.55 0 0 1 .5-.3.9.9 0 0 1 .5.1zM19.72 47.4c0 .2.1.5-.2.6a.45.45 0 0 1-.58-.25c-.1-.3.1-.4.3-.5a.76.76 0 0 1 .5.2zM67.12 49.1a3.59 3.59 0 0 1 .7 1.8c-.1.2.1.4 0 .5h-.2a5.81 5.81 0 0 1-1.8-3.1.37.37 0 0 1-.1-.31c.2-.2.4.2.7.3l.7.8zM23 48.2a3.19 3.19 0 0 1-3.6.5c0-.1 0-.2.1-.2a5.45 5.45 0 0 1 2.2-.51l1.3.2zM17.22 48.3c-.9.5-1.6 1.6-2.7 1.8-.2.1-.3.4-.6.2a3.61 3.61 0 0 1 3.3-2.2v.2zM65.62 49.5a.34.34 0 0 1-.12.47h-.08a.45.45 0 0 1-.5 0 .48.48 0 0 1-.2-.5.62.62 0 0 1 .4-.3.85.85 0 0 1 .5.3zM63.52 49.6a1.5 1.5 0 0 1-.9.7 3.93 3.93 0 0 1-2.4-.3c0-.2.3-.1.4-.2a4.57 4.57 0 0 1 2.6-.1c0-.2.2-.2.3-.1zM17.22 50.3a1 1 0 0 1-.3.4.44.44 0 0 1-.5-.1.48.48 0 0 1-.1-.5.62.62 0 0 1 .4-.3.63.63 0 0 1 .5.5zM18.72 50.6a1 1 0 0 1-.4.5.55.55 0 0 1-.6-.7.52.52 0 0 1 .4-.2.55.55 0 0 1 .6.4zM65.12 50.8a1.06 1.06 0 0 1-.2.5.45.45 0 0 1-.6.1c-.2 0-.2-.2-.3-.4s.1-.3.2-.5a.59.59 0 0 1 .9.3zM66.22 50.8a2.27 2.27 0 0 1 .1.4c-.2.1-.2.5-.6.3-.1.1-.2-.2-.3-.2a.52.52 0 0 1 .26-.69.48.48 0 0 1 .5.2zM17.82 51.5a.84.84 0 0 1-.2.7.46.46 0 0 1-.7-.3.67.67 0 0 1 .3-.7.54.54 0 0 1 .6.3zM19.32 51.4a2.52 2.52 0 0 1-.9 2c-.4.1-.8.5-1.2.2v-.1a13.89 13.89 0 0 1 2.1-2.1zM61.12 52a.48.48 0 0 1-.1.4c-.1.2-.4.1-.6 0a.33.33 0 0 1-.14-.45v-.05a.85.85 0 0 1 .3-.3.66.66 0 0 1 .5.4zM21.82 53.2c.4.6.2 1.4.4 2-.4.1-.6-.4-.9-.7a6.37 6.37 0 0 1-.7-2.7.2.2 0 0 1 .2-.1 3.57 3.57 0 0 1 1 1.1c-.2.2 0 .2 0 .4zM62.42 52.2a.54.54 0 0 1-.4.4 1.06 1.06 0 0 1-.5-.2c-.1-.2.1-.3.2-.5a.49.49 0 0 1 .66.2v.1zM65.42 54.5a.16.16 0 0 1-.11.2h-.19c-.7-.7-1.5-1.4-1.4-2.4h.2a2.75 2.75 0 0 1 1.5 2.2zM63.52 53.6a.76.76 0 0 1-.2.5.55.55 0 0 1-.75-.2v-.1a.7.7 0 0 1 .4-.5.49.49 0 0 1 .6.3zM61.82 54.2a8 8 0 0 1-2 2.1.6.6 0 0 1-.1-.4 3.39 3.39 0 0 1 1.9-2.3c.6.1.2.4.2.6zM63.72 54.9a.89.89 0 0 1-.4.5.86.86 0 0 1-.6-.3.85.85 0 0 1 .3-.5.68.68 0 0 1 .7.3zM44.92 8.7a.6.6 0 0 1 0 1.2h-7.5a.6.6 0 0 1 0-1.2h7.5zm-5.3 1.1c.7 0 0-.9-.4-.9h-.6c-.7 0 0 .9.4.9h.6zm3.1 0c.7 0 0-.9-.4-.9h-.7c-.7 0 0 .9.4.9h.7zm2.28-.9h-.3c-.7 0-.1.9.3.9s.5-.9 0-.9z" transform="translate(.02)"/><path class="cls-2" d="M44.34 17.3l1.4.5 1.4-.5-.6 2.1 1.1-.2-.4 1.3.4 1.2-1-.3.38 2.3-1.4-.5-1.4.5.6-2.3-1.1.3.3-1.3-.3-1.2 1.1.2-.5-2.1zm2.1 3.8c.3 0 .4-.4.4-.8 0-.9-.7 0-1-.8-.3.7-1 .1-1 .8 0 .5 0 .8.5.8h1.1zm-1.42-.7c0 .3.4.1.8.1s.8.2.8-.1c0-.5-.4-.3-.8-.3s-.8-.2-.8.3zM40.94 20.4v-.2l-.2-.1.2-.2-.1-.2h.2l.2-.2.1.2h.2l-.1.2.2.2-.2.1v.2l-.2-.1-.3.1zM39.84 21.9v-.3l-.2-.1.2-.1-.1-.3.2.1.1-.3.2.3.2-.1-.1.3.2.1-.2.1v.3l-.3-.2-.2.2zM41.74 21.7v-.3h-.2l.2-.2-.2-.2h.3l.1-.3.2.3h.2l-.1.2.2.2h-.2v.3l-.3-.2-.2.2zM41.94 22.8v-.2h-.1l.1-.1-.1-.2.2.1.1-.2v.2l.2-.1-.1.2.1.1h-.1v.2l-.1-.1-.2.1zM40.24 24v-.5l-.4-.1.3-.3-.2-.4.4.1.3-.5.2.5.4-.1-.2.4.4.3-.4.1v.5l-.4-.3-.4.3zM41.14 0l.9 2.2 2.2-.7-1.1 2.1 1.9 1.3-2.3.4.1 2.4-1.7-1.6-1.8 1.6.2-2.4-2.4-.4 2-1.3-1.2-2.1 2.3.7.9-2.2z"/><path class="cls-2" d="M32.92 49c-.3.1-.4.2-.3.5l.3 1.3a1 1 0 0 1-.1.9 1.19 1.19 0 0 1-.9.5 2 2 0 0 1-1.1 0 .81.81 0 0 1-.5-.7l-.32-1.41c-.1-.4-.2-.3-.5-.3v-.1l1.7-.4v.1c-.3.1-.5.1-.4.5l.3 1.4a.7.7 0 0 0 .77.63h.13a.85.85 0 0 0 .7-1.1l-.3-1.3c-.1-.3-.2-.4-.6-.3v-.1l1.1-.3v.18zM35.42 49.3a1.21 1.21 0 0 0-1.2-.6c-.3.1-.5.2-.4.5a.72.72 0 0 0 .6.4l.8.1a.82.82 0 0 1 .7.7c.1.4-.1 1-1.1 1.2a7.75 7.75 0 0 0-.9.1c-.1 0-.1.1-.1.2h-.1l-.2-1h.1a1.13 1.13 0 0 0 1.2.7.52.52 0 0 0 .5-.6.72.72 0 0 0-.7-.4l-.4-.1a1.23 1.23 0 0 1-1.1-.7.92.92 0 0 1 .72-1.08h.18a2 2 0 0 1 .8 0c.1 0 .1-.1.1-.2h.2l.2.9.1-.1zM38.82 51l-1.8.2v-.1c.4-.1.5-.1.5-.4l-.2-2.3c-.4.1-.9.1-.9.8h-.1l-.1-.9 3.1-.3.1.9h-.1a.8.8 0 0 0-.92-.65l-.18.05.2 2.3c0 .4.2.4.5.4h-.1zM43 51h-1.1l-1-1.4h-.1v.8a.33.33 0 0 0 .4.4v.1h-1.7v-.1c.4 0 .5 0 .5-.4v-1.9a.33.33 0 0 0-.4-.4v-.1h1.7c.4 0 1.5.1 1.4.8a.76.76 0 0 1-.8.7l1 1.3a.2.2 0 0 0 .2.1l-.1.1zm-2.2-1.5c.7 0 .9-.1 1-.6a.53.53 0 0 0-.45-.6h-.13c-.3 0-.3 0-.3.2l-.1 1zM46.42 51.4l-1.7-.2v-.1c.3 0 .4 0 .4-.1a1.42 1.42 0 0 0-.2-.6l-1.2-.1a5.2 5.2 0 0 0-.3.5c0 .2.2.2.4.2v.1l-1-.1v-.1a.62.62 0 0 0 .6-.4l1.4-2.2h.1l.9 2.4a1.44 1.44 0 0 0 .6.7zm-1.42-1.2l-.4-1.1-.6 1 1 .1zM49.42 52l-2.9-.5v-.1c.3 0 .4 0 .5-.2l.4-2.1c.1-.3-.2-.3-.4-.4v-.1l1.8.3v.1c-.4-.1-.5-.1-.6.3l-.4 2c0 .2.1.3.4.3a1.29 1.29 0 0 0 1.4-.6h.1l-.3 1z" transform="translate(.02)"/><path class="cls-2" d="M51.44 52.5l-1.8-.4v-.1c.3 0 .5.1.5-.2l.4-2.1c.1-.3-.2-.3-.4-.4v-.1l1.8.4v.1c-.2 0-.5-.1-.5.2l-.42 2.1c-.1.3.1.3.4.5z"/><path class="cls-2" d="M55 52.9l-1.7-.2v-.1c.3 0 .4 0 .4-.1a1.42 1.42 0 0 0-.2-.6l-1.2-.1a5.2 5.2 0 0 0-.3.5c0 .2.2.2.4.2v.1l-1-.1v-.1c.3 0 .4-.1.5-.5l1.4-2.2h.1l.9 2.4a.81.81 0 0 0 .5.7l.2.1zm-1.5-1.1l-.4-1.1-.6 1 1 .1zM41.82 18c0-1-.6-.1-.9-.9-.2.7-.9.1-.9.9a.85.85 0 0 0 .2.6v.3a.1.1 0 0 0 .1.1h1.1a.1.1 0 0 0 .1-.1v-.3a.6.6 0 0 0 .3-.6zm-.9.2c-.3 0-.7.2-.7-.1 0-.5.3-.4.7-.4s.8-.1.8.4c-.1.3-.5.1-.8.1zM50.82 30.8a.41.41 0 1 0-.5-.4.54.54 0 0 0 .5.4zM48.62 15.4l-.2.4a.2.2 0 0 0 .4 0l-.2-.4zM33.32 15.4l-.2.4a.2.2 0 0 0 .4 0l-.2-.4zM37.12 15.4l-.2.4a.2.2 0 0 0 .4 0 .76.76 0 0 0-.2-.4zM40.92 15.4l-.2.4a.2.2 0 0 0 .4 0 .76.76 0 0 0-.2-.4zM44.82 15.4l-.2.4a.2.2 0 0 0 .4 0l-.2-.4zM33.32 20.6l.2.4a.2.2 0 0 1-.4 0 1.47 1.47 0 0 0 .2-.4zM33.32 25.7l.2.4a.2.2 0 1 1-.4 0 1.47 1.47 0 0 0 .2-.4zM33.92 29.7l.2.4a.2.2 0 0 1-.4 0 1.47 1.47 0 0 0 .2-.4zM37.12 31.9l.2.4a.2.2 0 1 1-.4 0l.2-.4zM48.82 20.6l-.2.4a.2.2 0 0 0 .4 0 1.47 1.47 0 0 1-.2-.4zM48.82 25.7l-.2.4a.2.2 0 1 0 .4 0 1.47 1.47 0 0 1-.2-.4zM48.22 29.7l-.2.4a.2.2 0 1 0 .4 0 1.47 1.47 0 0 1-.2-.4zM45 31.9l-.2.4a.2.2 0 1 0 .4 0l-.2-.4zM41.12 34.2l-.2.4a.2.2 0 0 0 .4 0l-.2-.4zM47.32 26.6a.19.19 0 0 0 .27 0l.1-.4a.77.77 0 0 0-.3-.2 1.61 1.61 0 0 0-1.1.5.68.68 0 0 0 .4.6c.1-.1.2.1.3.2a.22.22 0 0 1-.2.2c-.3-.3-.8.1-1-.3a1.08 1.08 0 0 0 0-1.1l.1-.2c-.1-.3-.5-.1-.7-.1a.81.81 0 0 0-.9.4 1.42 1.42 0 0 0 .2.4.2.2 0 0 1 .2.1l-.2.1a.37.37 0 0 1 .1.3c-.2.1-.3-.2-.4-.3a.64.64 0 0 0-.2-.6.35.35 0 0 0-.2.1.48.48 0 0 0-.1.4 1 1 0 0 0 .1.4 3.61 3.61 0 0 1 .9.9 2.39 2.39 0 0 1-.7 1.3.48.48 0 0 0-.1.4l.11.1c.3-.2.9-.2.9-.7a1 1 0 0 1 .5-.6.38.38 0 0 1 .48.23v.07a.88.88 0 0 1-.6.7v.2a.48.48 0 0 0 .5.1c.4-.3.6-.7.9-.9.1.2-.5.3-.1.6a1.08 1.08 0 0 0 .7-.3c-.2-.4.6-.6.1-1l.4-.9a4.62 4.62 0 0 0-.7-.7c-.2-.1 0-.1.2 0zM29.72 31a.41.41 0 1 0-.5-.4.66.66 0 0 0 .5.4zM5 45.4a.41.41 0 1 0 0-.8.41.41 0 1 0 0 .8z" transform="translate(.02)"/><path class="cls-2" d="M20.74 48.9zm0 0zM20.84 48.9zM21.02 48.9zM21.02 48.9zm0 0zM21.14 48.9z"/><path class="cls-2" d="M49.92 14.8h-17.6v13.5c0 1.4.6 2.6 1.4 2.9l6.8 4.3a.71.71 0 0 0 .6.3.76.76 0 0 0 .5-.2l6.9-4.4a3.29 3.29 0 0 0 1.4-2.9v-13.5zm-.5 13.6a2.84 2.84 0 0 1-1.1 2.3l-6.6 4.2a.73.73 0 0 1-1 0l-6.6-4.2a3 3 0 0 1-1.12-2.3v-13.1h16.6l-.2 13.1z" transform="translate(.02)"/><path class="cls-2" d="M43.44 34.4l.2-.1-.2.1z"/><path class="cls-2" d="M30.12 52.8l-1.7.2v-.1c.3-.1.4-.1.4-.2a1.33 1.33 0 0 0-.3-.5l-1.2.1a3.93 3.93 0 0 0-.2.6c0 .2.3.1.4.1v.1l-1 .1v-.1c.3-.1.3-.2.4-.6l.9-2.5h.1l1.4 2.1c.3.4.4.6.6.5l.2.2zm-1.6-.8l-.6-1-.4 1.1 1-.1zM59.32 46.5a2.7 2.7 0 0 0-1.7-1.6 2 2 0 0 0-2.2.6c-.9.7-.3 2-.2 3a.48.48 0 0 1-.2.5c-3.7-.3-7.1-1.2-10.7-1.6a21.3 21.3 0 0 1-2.5-.3l-1-.1a47.3 47.3 0 0 0-9.3 1 19.44 19.44 0 0 0-2 .5l-1.3.1-.8.2h-.3l.4-2.7a1.76 1.76 0 0 0-1.7-1 2.12 2.12 0 0 0-2 1c-.6 1.3.2 2.6.4 3.8-.1.4.4.9 0 1.2a3.34 3.34 0 0 0-2.9-.6c-.3.2-.9-.1-1 .3a7.76 7.76 0 0 0 3.7.5.3.3 0 0 1 .4 0c.1.7-.1 1.6.3 2.1a2.36 2.36 0 0 0 1.9.8 34 34 0 0 0 6.5-1.3l.9-.2a14.22 14.22 0 0 1 3.6-.5 9.73 9.73 0 0 0-1.1 2.3c-.3.7.5.8.8 1.2a21.16 21.16 0 0 0-2.1 1.1c-1.6-.1-3 .6-4.5.7 0 .3.5.2.6.6a1 1 0 0 1-.5.4c0 .2 0 .2.2.2a2.07 2.07 0 0 1 .6-.2l1.4-.2a6.94 6.94 0 0 0 1.3-.5l1.4-.7c.8 0 1.4-.3 2.1-.3v.2l-1.8 2.8a.25.25 0 0 0 .2.4 1.16 1.16 0 0 0 1-.2c.5-.9 1-1.8 1.4-2.7a3.81 3.81 0 0 1 1.4-1.9.3.3 0 0 1 .4-.1 18.76 18.76 0 0 0-1.2 1.8 2 2 0 0 0 .4 2.2 1.64 1.64 0 0 0 1.2.2c1-.5 2.2.3 3-.7.5-.1.5.5.8.7a1.06 1.06 0 0 0 1.3.2 1.77 1.77 0 0 0-.5-.8l-1-1.5a6.31 6.31 0 0 1-.4-.9 3.94 3.94 0 0 0 1.4.5l1.4.4a4.49 4.49 0 0 0 1.3 1 11.69 11.69 0 0 0 2 .6 1.1 1.1 0 0 0 .8 0 1.38 1.38 0 0 0-.4-.3c-.1-.3.5-.2.6-.4a.53.53 0 0 0-.3-.2c-.4-.2-1.3-.3-1.5-.4l-.9-.3c-1.5 0-2.4-1.4-3.6-1.9a7.27 7.27 0 0 0 .9-.8 1.5 1.5 0 0 0 .1-1.3c-.2-.8-1.2-.7-1.8-1.1l.1-.1a8 8 0 0 1 2.7.4c2.4.3 4.7 1.2 7.2 1.3 1.4 0 3.1.1 3.8-1.3l.4-2.4c.4-1.1 1.2-2.3 1.1-3.7zm-27.32 11.6l-.4-.3.8-.3a3.86 3.86 0 0 1 2.1-.3 5 5 0 0 1-2.5.9zm15.8-.4a9.8 9.8 0 0 0 2.7.6c-.1.3-.7 0-.6.5a6.14 6.14 0 0 1-2.3-1.1h.2zm-23.68-10.8a2.23 2.23 0 0 1 .6-1.3 2.34 2.34 0 0 1 2 .1.7.7 0 0 1 .4.5 1.37 1.37 0 0 1-.4 1.2h-.2a2.54 2.54 0 0 1 .2-1.2.82.82 0 0 0-.5-.5 1.43 1.43 0 0 0-1.1.3 1.13 1.13 0 0 0-.3 1.1 3.4 3.4 0 0 1 .1 1l-.1.1a1.46 1.46 0 0 1-.7-1.3zm1.2.7a2.2 2.2 0 0 0 1.4.2 1 1 0 0 1-.1.9 1.66 1.66 0 0 1-1.2-.5.61.61 0 0 1-.1-.6zm-.1-.9a.71.71 0 0 1 .3-.6c.2-.1.5-.1.5.2s-.1.6-.1.9a.59.59 0 0 1-.69-.46zm11.78 8.2a2.74 2.74 0 0 1 .8-2.3 1.07 1.07 0 0 1 1.1.1c-.7.2-1.5.3-1.6 1.2a1.13 1.13 0 0 0 .1.8c.3.5.9.3 1.3.7a.34.34 0 0 1-.2.3c-.5-.3-1.1-.5-1.5-.8zm-.9 1.8a2.7 2.7 0 0 1 1.9-.6 3.57 3.57 0 0 1-1.9.6zm2.4.2l-1.2 2.4a.76.76 0 0 1-.4.2 2.62 2.62 0 0 1 .5-.9 23.92 23.92 0 0 1 1.3-2.1 1.42 1.42 0 0 1-.2.4zm.7-1.4c0-.1-.1-.1 0 0zm-.3-.7l-1.2-.3a1.1 1.1 0 0 1 0-.8 1.22 1.22 0 0 1 1.68-.38l.12.08a2 2 0 0 1-.6 1.4zm.6 0a4.87 4.87 0 0 1 .4-1.1 2.46 2.46 0 0 1-.4 1.1zm.3-2.1a2.62 2.62 0 0 0-.9-.5 1.7 1.7 0 0 1 1 0 .75.75 0 0 1-.1.5zm.3.8v-.3.3zm0 1.1a2.27 2.27 0 0 0 .1-.4c.1-.1.2.1.3.2-.1.2-.3.3-.4.2zm.4-1.5a1.27 1.27 0 0 1 .4-.9 1.7 1.7 0 0 1 .7.1c.1.5.7 1.2 0 1.6a.78.78 0 0 1-.8.1.63.63 0 0 1-.34-.82v-.08zm1.8-.8c-.1-.2.2-.1.3-.2l.8.1c-.4 0-.9.9-1.1.1zm1.3.4a3.51 3.51 0 0 1-.8.5.89.89 0 0 1 .8-.5zm-1.1 1.6zm.1 1.5a.2.2 0 0 1-.1.2l-.6-.5a.91.91 0 0 1 .7.3zm-.68-.8c.1-.1.2-.1.2 0h-.2zm-.4-.4a.54.54 0 0 1 .4-.4.1.1 0 0 0 .1.1.68.68 0 0 1-.5.3zm-.6 0l.1-.2c.1.1 0 .1-.1.2zm.1.9c.3-.4.6.2.8.5.4.6 1.4 1.1 1 1.8l-1.8.4a.9.9 0 0 1-.9-.2 25 25 0 0 1 .9-2.5zm-.7.5l.1-.2a14.17 14.17 0 0 1-.8 1.8c-.1-.5.5-1 .7-1.6zm1.1 3.1a2.5 2.5 0 0 1-1.7-.1l-.2-.5c.4-.2.8.3 1.1 0a5.46 5.46 0 0 1 1.8.1c.3.1.7-.5.8.1-.2.7-1.2.1-1.8.4zm1.5-3.7zm.08 1.6c0 .3.3.4.1.6a3.54 3.54 0 0 1-.1-.6zm.8 1.5l-.1.1a.9.9 0 0 1-.1-.5.76.76 0 0 1 .2.4zm1.2.6c0 .1-.2.1-.2 0a13 13 0 0 1-1.6-3.1h.1c.6 1.1 1.1 2.2 1.7 3.1zm1-2.3c-.1 0-.1.1 0 0a2.64 2.64 0 0 1-1.9-.7v-.1a5.17 5.17 0 0 1 1.9.8zm-.7-3.4a.84.84 0 0 1 .4.7 1.56 1.56 0 0 1-1.7 1.32h-.14a1.42 1.42 0 0 0 1.5-.9v-1.1zm-.6-.1a1.47 1.47 0 0 1 .2 1.1 1.3 1.3 0 0 1-1.79.4c0-.1 0-.2-.1-.2.1-.3-.6-.7-.1-.9.5-.4 1.4-1.3 1.8-.4zm12.9-1.8c-.2.2 0 .7-.3.9a1.11 1.11 0 0 1-.7.9c-3 .7-6-.4-8.9-.9a31.62 31.62 0 0 0-13-.2c-1.9.4-3.8.8-5.7 1.3a8.26 8.26 0 0 1-3.5 0c-.9-.4-.5-1.6-.8-2.4a12.37 12.37 0 0 0-.2-1.8 1.7 1.7 0 0 1-.1-.7l1.2.4c2.1.4 4-.3 6-.6a54 54 0 0 1 5.8-.9 38.37 38.37 0 0 1 6.8.2l2 .2c1.4.2 2.7.6 4.2.7a2 2 0 0 0 .8.1c2.3.4 4.8 1 7 0-.1 1-.5 1.9-.6 2.8zm-.7-3.1c0 .4-.4.3-.6.5h-.6a1.7 1.7 0 0 1-.1-.7 3 3 0 0 1 1.3.2zm-.3-.7c.3-.3-.1-1.9.7-.8a1 1 0 0 1-.2.7.75.75 0 0 1-.5.1zm2-.2a1.44 1.44 0 0 1-1.1.9c0-.6.6-1 .4-1.7a1.54 1.54 0 0 0-1.6-.5 1.42 1.42 0 0 0-.2.6l-.1.8c-.5 0-.5-.5-.7-.8a1.44 1.44 0 0 1 .8-1.3 1.6 1.6 0 0 1 1.5.1 1.13 1.13 0 0 1 .8.5 1.37 1.37 0 0 1 .2 1.4z" transform="translate(.02)"/><g class="cls-3"><path class="cls-2" d="M97.34 26.78h-3.75l-.45 1a2.29 2.29 0 0 0-.22.85.71.71 0 0 0 .36.66 3 3 0 0 0 1 .19v.32h-3.47v-.29a1.58 1.58 0 0 0 .93-.51 6.28 6.28 0 0 0 .91-1.6l3.79-8.4h.15l3.82 8.69a5.28 5.28 0 0 0 .9 1.55 1.23 1.23 0 0 0 .75.28v.28h-5.13v-.29h.21a1.61 1.61 0 0 0 .86-.17.42.42 0 0 0 .18-.34 1 1 0 0 0 0-.29s-.18-.26-.28-.61zm-.27-.58l-1.58-3.65-1.62 3.65h3.2zM109.83 22.5v5.72a2.09 2.09 0 0 0 .16 1 .9.9 0 0 0 .63.26v.32h-3v-1a3.77 3.77 0 0 1-1 .91 2.41 2.41 0 0 1-1.17.29 1.72 1.72 0 0 1-1.1-.38 1.85 1.85 0 0 1-.64-.89 6.54 6.54 0 0 1-.16-1.77v-2.9a2.1 2.1 0 0 0-.15-1 .93.93 0 0 0-.64-.27v-.29h3v5a4.13 4.13 0 0 0 .07 1 .66.66 0 0 0 .23.34.61.61 0 0 0 .37.12.91.91 0 0 0 .51-.15 3.25 3.25 0 0 0 .75-.82v-3.91a2.1 2.1 0 0 0-.15-1 .93.93 0 0 0-.64-.27v-.31h3zM116.29 22.29l.12 2.49h-.27a3.92 3.92 0 0 0-1-1.52 1.64 1.64 0 0 0-1-.41.76.76 0 0 0-.55.21.66.66 0 0 0-.23.5.64.64 0 0 0 .16.41 7.49 7.49 0 0 0 1.4 1.1 5.77 5.77 0 0 1 1.51 1.32 2.14 2.14 0 0 1 .36 1.21 2.56 2.56 0 0 1-.3 1.2 2.14 2.14 0 0 1-.86.9 2.46 2.46 0 0 1-1.23.31 4.25 4.25 0 0 1-1.4-.33 1.15 1.15 0 0 0-.32-.09.52.52 0 0 0-.43.39h-.25l-.12-2.62h.27a3.4 3.4 0 0 0 1 1.55 1.85 1.85 0 0 0 1.16.52.85.85 0 0 0 .61-.23.75.75 0 0 0 .24-.56 1 1 0 0 0-.23-.65 6.12 6.12 0 0 0-1-.83 8.18 8.18 0 0 1-1.55-1.27 2.2 2.2 0 0 1-.52-1.41 2.3 2.3 0 0 1 .58-1.53 2.09 2.09 0 0 1 1.68-.68 2.46 2.46 0 0 1 1.15.29.76.76 0 0 0 .34.12.4.4 0 0 0 .23-.06 1.48 1.48 0 0 0 .27-.33h.27zM120.8 19.82v2.68h1.73v.77h-1.73v4.51a3.44 3.44 0 0 0 .06.82.59.59 0 0 0 .21.3.47.47 0 0 0 .27.11 1.24 1.24 0 0 0 1-.77l.23.17a2.14 2.14 0 0 1-2.05 1.5 1.81 1.81 0 0 1-1.18-.39 1.71 1.71 0 0 1-.61-.86 7.35 7.35 0 0 1-.08-1.44v-3.95h-1v-.27a10.08 10.08 0 0 0 1.68-1.46 8.92 8.92 0 0 0 1.21-1.71h.26zM126.26 22.5v1.66a5.34 5.34 0 0 1 1.27-1.5 1.89 1.89 0 0 1 1.05-.37.93.93 0 0 1 .7.27 1 1 0 0 1 .26.76 1.19 1.19 0 0 1-.25.81.79.79 0 0 1-.61.29 1.06 1.06 0 0 1-.72-.27l-.36-.3a.34.34 0 0 0-.18 0 .66.66 0 0 0-.42.15 1.62 1.62 0 0 0-.48.76 5.3 5.3 0 0 0-.25 1.67v2.12a1.79 1.79 0 0 0 .05.57.62.62 0 0 0 .28.31 1.6 1.6 0 0 0 .62.12v.25h-3.95v-.28a.86.86 0 0 0 .64-.26 2.43 2.43 0 0 0 .17-1.18v-4.08a3 3 0 0 0-.06-.8.63.63 0 0 0-.23-.32 1.22 1.22 0 0 0-.52-.14v-.24h3zM134.36 28.72a3.85 3.85 0 0 1-2.36 1.18 1.42 1.42 0 0 1-1-.41 1.39 1.39 0 0 1-.41-1 2 2 0 0 1 .72-1.5 13.59 13.59 0 0 1 3.13-1.78v-.76a3.57 3.57 0 0 0-.09-1 .84.84 0 0 0-.34-.37 1 1 0 0 0-.56-.16 1.44 1.44 0 0 0-.84.23.4.4 0 0 0-.2.33.68.68 0 0 0 .22.41 1 1 0 0 1 .3.65.87.87 0 0 1-.29.65 1 1 0 0 1-.75.27 1.19 1.19 0 0 1-.82-.3.91.91 0 0 1-.33-.7 1.62 1.62 0 0 1 .45-1.07 2.82 2.82 0 0 1 1.24-.79 5.06 5.06 0 0 1 1.66-.27 2.74 2.74 0 0 1 1.64.44 2.07 2.07 0 0 1 .79 1 6.21 6.21 0 0 1 .11 1.51v2.72a2.92 2.92 0 0 0 0 .63.38.38 0 0 0 .12.19.28.28 0 0 0 .18.06.56.56 0 0 0 .41-.29l.23.19a2.86 2.86 0 0 1-.81.84 1.75 1.75 0 0 1-.95.26 1.48 1.48 0 0 1-1-.29 1.33 1.33 0 0 1-.45-.87zm0-.57v-2.44a4.56 4.56 0 0 0-1.36 1.18 1.45 1.45 0 0 0-.3.85.9.9 0 0 0 .26.63.71.71 0 0 0 .55.21 1.5 1.5 0 0 0 .85-.43zM141.19 19.21v9.08a1.74 1.74 0 0 0 .18 1 1 1 0 0 0 .7.25v.26h-3.95v-.28a1 1 0 0 0 .72-.28 1.75 1.75 0 0 0 .16-1v-7.52a1.72 1.72 0 0 0-.18-1 1 1 0 0 0-.7-.25v-.26h3.06zM145.63 22.5v5.79a1.74 1.74 0 0 0 .18 1 1 1 0 0 0 .7.25v.26h-3.95v-.28a1 1 0 0 0 .72-.28 1.75 1.75 0 0 0 .16-1v-4.24a1.74 1.74 0 0 0-.18-1 1 1 0 0 0-.7-.25v-.25h3.06zm-1.1-3.5a1.16 1.16 0 0 1 .86.36 1.17 1.17 0 0 1 .35.86 1.15 1.15 0 0 1-.36.85 1.17 1.17 0 0 1-.86.35 1.2 1.2 0 0 1-1.2-1.2 1.17 1.17 0 0 1 .35-.86 1.15 1.15 0 0 1 .86-.36zM151.25 28.72a3.85 3.85 0 0 1-2.4 1.18 1.42 1.42 0 0 1-1-.41 1.39 1.39 0 0 1-.41-1 2 2 0 0 1 .72-1.5 13.59 13.59 0 0 1 3.13-1.78v-.76a3.57 3.57 0 0 0-.09-1 .84.84 0 0 0-.34-.37 1 1 0 0 0-.56-.16 1.44 1.44 0 0 0-.84.23.4.4 0 0 0-.2.33.68.68 0 0 0 .22.41 1 1 0 0 1 .3.65.87.87 0 0 1-.29.65 1 1 0 0 1-.75.27 1.19 1.19 0 0 1-.82-.3.91.91 0 0 1-.33-.7 1.62 1.62 0 0 1 .45-1.07 2.82 2.82 0 0 1 1.24-.79 5.06 5.06 0 0 1 1.66-.27 2.74 2.74 0 0 1 1.64.44 2.07 2.07 0 0 1 .79 1 6.21 6.21 0 0 1 .11 1.51v2.72a2.92 2.92 0 0 0 0 .63.38.38 0 0 0 .12.19.28.28 0 0 0 .18.06.56.56 0 0 0 .41-.29l.23.19a2.86 2.86 0 0 1-.81.84 1.75 1.75 0 0 1-.95.26 1.48 1.48 0 0 1-1-.29 1.33 1.33 0 0 1-.41-.87zm0-.57v-2.44a4.56 4.56 0 0 0-1.41 1.19 1.45 1.45 0 0 0-.3.85.9.9 0 0 0 .26.63.71.71 0 0 0 .55.21 1.5 1.5 0 0 0 .9-.44zM158.2 22.5v.95a4.29 4.29 0 0 1 1.08-.89 2.31 2.31 0 0 1 1.11-.28 1.77 1.77 0 0 1 1.18.39 1.89 1.89 0 0 1 .63 1 7.58 7.58 0 0 1 .13 1.71v2.84a2.17 2.17 0 0 0 .15 1.05.89.89 0 0 0 .64.26v.27h-3.7v-.28a.77.77 0 0 0 .59-.34 2.25 2.25 0 0 0 .13-1v-3.18a5.32 5.32 0 0 0-.07-1.13.69.69 0 0 0-.24-.36.6.6 0 0 0-.37-.13 1.58 1.58 0 0 0-1.25 1v3.91a2.18 2.18 0 0 0 .15 1 .78.78 0 0 0 .57.27v.24h-3.7v-.28a.91.91 0 0 0 .66-.3 2.19 2.19 0 0 0 .13-1v-4.14a2.1 2.1 0 0 0-.15-1 .93.93 0 0 0-.64-.27v-.31h3zM178.62 19v3.7h-.29a4.76 4.76 0 0 0-1.57-2.33 3.7 3.7 0 0 0-2.29-.8 3 3 0 0 0-2 .67 3.61 3.61 0 0 0-1.12 1.86 9.22 9.22 0 0 0-.33 2.45 9 9 0 0 0 .36 2.67 3 3 0 0 0 1.16 1.69 3.33 3.33 0 0 0 1.9.54 3.93 3.93 0 0 0 .79-.08 5.56 5.56 0 0 0 .82-.24v-2.2a2.35 2.35 0 0 0-.09-.81.79.79 0 0 0-.36-.33 1.34 1.34 0 0 0-.65-.15h-.27v-.29h5.15v.29a2.25 2.25 0 0 0-.82.16.8.8 0 0 0-.36.4 2.21 2.21 0 0 0-.07.73v2.2a10.44 10.44 0 0 1-2.11.68 11.08 11.08 0 0 1-2.28.23 6.62 6.62 0 0 1-2.5-.41 6.25 6.25 0 0 1-1.69-1.07 5.08 5.08 0 0 1-1.19-1.5 5.26 5.26 0 0 1-.55-2.41 5.44 5.44 0 0 1 1.68-4 5.79 5.79 0 0 1 4.19-1.65 5.88 5.88 0 0 1 2.54.48 4.62 4.62 0 0 0 .91.29.62.62 0 0 0 .41-.16 1.43 1.43 0 0 0 .34-.61h.29zM184 22.28a3.39 3.39 0 0 1 1.77.49 3.15 3.15 0 0 1 1.25 1.4 4.61 4.61 0 0 1 .43 2 4.2 4.2 0 0 1-.79 2.6 3.11 3.11 0 0 1-2.66 1.23 3 3 0 0 1-2.54-1.16 4.27 4.27 0 0 1-.89-2.68 4.32 4.32 0 0 1 .91-2.74 3 3 0 0 1 2.52-1.14zm0 .55a.91.91 0 0 0-.68.3 2.1 2.1 0 0 0-.37 1.19q-.09.89-.09 2.46a10.46 10.46 0 0 0 .11 1.56 1.51 1.51 0 0 0 .37.84.87.87 0 0 0 .64.29.89.89 0 0 0 .59-.2 1.31 1.31 0 0 0 .41-.74 18.06 18.06 0 0 0 .16-3 7.43 7.43 0 0 0-.15-1.82 1.4 1.4 0 0 0-.44-.72.82.82 0 0 0-.55-.16zM191.86 30l-2.46-5.66a5.58 5.58 0 0 0-.7-1.3.93.93 0 0 0-.53-.27v-.27h3.88v.29a.71.71 0 0 0-.5.13.53.53 0 0 0-.19.41 3.49 3.49 0 0 0 .34 1.09l1.2 2.74 1-2.37a4.57 4.57 0 0 0 .41-1.44.5.5 0 0 0-.18-.39 1 1 0 0 0-.62-.17v-.29h2.39v.29a1 1 0 0 0-.56.26 4.77 4.77 0 0 0-.66 1.24l-2.45 5.71h-.37zM202.75 25.89h-4a3.78 3.78 0 0 0 .77 2.3 1.63 1.63 0 0 0 1.3.65 1.47 1.47 0 0 0 .85-.26 3.32 3.32 0 0 0 .82-.94l.27.17a4.42 4.42 0 0 1-1.31 1.71 2.83 2.83 0 0 1-1.66.5 2.77 2.77 0 0 1-2.46-1.25 4.41 4.41 0 0 1-.67-2.5 4.15 4.15 0 0 1 1-2.91 3 3 0 0 1 2.32-1.08 2.51 2.51 0 0 1 1.93.91 4.16 4.16 0 0 1 .84 2.7zm-1.92-.52a7.22 7.22 0 0 0-.14-1.73 1.42 1.42 0 0 0-.43-.71.65.65 0 0 0-.44-.14.77.77 0 0 0-.66.4 3.41 3.41 0 0 0-.46 1.91v.27h2.13zM206.7 22.5v1.66a5.34 5.34 0 0 1 1.27-1.5 1.89 1.89 0 0 1 1.05-.37.93.93 0 0 1 .7.27 1 1 0 0 1 .26.76 1.19 1.19 0 0 1-.25.81.79.79 0 0 1-.61.29 1.06 1.06 0 0 1-.72-.27l-.36-.3a.34.34 0 0 0-.18 0 .66.66 0 0 0-.43.17 1.62 1.62 0 0 0-.48.76 5.3 5.3 0 0 0-.25 1.67v2.12a1.79 1.79 0 0 0 .05.57.62.62 0 0 0 .28.31 1.6 1.6 0 0 0 .62.12v.23h-3.95v-.28a.86.86 0 0 0 .64-.26 2.43 2.43 0 0 0 .17-1.18v-4.08a3 3 0 0 0-.06-.8.63.63 0 0 0-.23-.32 1.22 1.22 0 0 0-.52-.14v-.24h3zM213.75 22.5v.95a4.29 4.29 0 0 1 1.08-.89 2.31 2.31 0 0 1 1.11-.28 1.77 1.77 0 0 1 1.18.39 1.89 1.89 0 0 1 .63 1 7.58 7.58 0 0 1 .13 1.71v2.84a2.17 2.17 0 0 0 .15 1.05.89.89 0 0 0 .64.26v.27h-3.67v-.28a.77.77 0 0 0 .59-.34 2.25 2.25 0 0 0 .13-1v-3.18a5.32 5.32 0 0 0-.07-1.13.69.69 0 0 0-.24-.36.6.6 0 0 0-.37-.13 1.58 1.58 0 0 0-1.25 1v3.91a2.18 2.18 0 0 0 .15 1 .78.78 0 0 0 .57.27v.24h-3.7v-.28a.91.91 0 0 0 .66-.3 2.19 2.19 0 0 0 .13-1v-4.14a2.1 2.1 0 0 0-.15-1 .93.93 0 0 0-.64-.27v-.31h3zM222.7 22.5v1a4.19 4.19 0 0 1 1.11-.92 2.42 2.42 0 0 1 1.12-.26 2 2 0 0 1 1.18.33 2.07 2.07 0 0 1 .73 1 4.64 4.64 0 0 1 1.2-1 2.48 2.48 0 0 1 1.2-.31 1.93 1.93 0 0 1 1.21.35 1.81 1.81 0 0 1 .63.88 6 6 0 0 1 .18 1.71v3a2.15 2.15 0 0 0 .15 1 .93.93 0 0 0 .64.27v.25h-3.77v-.28a.84.84 0 0 0 .66-.34 2.08 2.08 0 0 0 .14-1v-3.11a5.85 5.85 0 0 0-.08-1.24.75.75 0 0 0-.25-.39.63.63 0 0 0-.39-.13 1.17 1.17 0 0 0-.68.25 3.14 3.14 0 0 0-.7.74v3.92a2.23 2.23 0 0 0 .13 1 .81.81 0 0 0 .69.32v.26h-3.8v-.28a.84.84 0 0 0 .48-.15.65.65 0 0 0 .23-.33 3.61 3.61 0 0 0 .06-.83v-3.14a5.72 5.72 0 0 0-.08-1.24.76.76 0 0 0-.26-.39.64.64 0 0 0-.39-.14 1 1 0 0 0-.57.16 3.17 3.17 0 0 0-.78.83v3.92a2.22 2.22 0 0 0 .15 1 .79.79 0 0 0 .64.29v.3h-3.77v-.28a.91.91 0 0 0 .66-.3 2.19 2.19 0 0 0 .13-1v-4.14a2.1 2.1 0 0 0-.15-1 .93.93 0 0 0-.64-.27v-.31h3zM239.18 25.89h-4a3.78 3.78 0 0 0 .77 2.3 1.63 1.63 0 0 0 1.3.65 1.47 1.47 0 0 0 .85-.26 3.32 3.32 0 0 0 .82-.94l.27.17a4.41 4.41 0 0 1-1.31 1.71 2.83 2.83 0 0 1-1.66.5 2.77 2.77 0 0 1-2.46-1.25 4.41 4.41 0 0 1-.67-2.5 4.15 4.15 0 0 1 1-2.91 3 3 0 0 1 2.32-1.08 2.51 2.51 0 0 1 1.93.91 4.16 4.16 0 0 1 .84 2.7zm-1.92-.52a7.22 7.22 0 0 0-.14-1.73 1.41 1.41 0 0 0-.43-.71.65.65 0 0 0-.44-.14.77.77 0 0 0-.66.4 3.41 3.41 0 0 0-.46 1.91v.27h2.13zM243.08 22.5v.95a4.29 4.29 0 0 1 1.08-.89 2.31 2.31 0 0 1 1.11-.28 1.77 1.77 0 0 1 1.18.39 1.89 1.89 0 0 1 .63 1 7.58 7.58 0 0 1 .13 1.71v2.84a2.17 2.17 0 0 0 .15 1.05.89.89 0 0 0 .64.26v.27h-3.7v-.28a.77.77 0 0 0 .59-.34 2.25 2.25 0 0 0 .13-1v-3.18a5.32 5.32 0 0 0-.07-1.13.69.69 0 0 0-.24-.36.6.6 0 0 0-.37-.13 1.59 1.59 0 0 0-1.25 1v3.91a2.18 2.18 0 0 0 .15 1 .78.78 0 0 0 .57.27v.24h-3.7v-.28a.91.91 0 0 0 .66-.3 2.18 2.18 0 0 0 .13-1v-4.14a2.1 2.1 0 0 0-.15-1 .93.93 0 0 0-.64-.27v-.31h3zM251.89 19.82v2.68h1.73v.77h-1.73v4.51a3.44 3.44 0 0 0 .06.82.59.59 0 0 0 .21.3.47.47 0 0 0 .27.11 1.24 1.24 0 0 0 1-.77l.23.17a2.14 2.14 0 0 1-2.05 1.5 1.81 1.81 0 0 1-1.18-.39 1.71 1.71 0 0 1-.61-.86 7.4 7.4 0 0 1-.08-1.44v-3.95h-1v-.27a10.08 10.08 0 0 0 1.68-1.46 8.92 8.92 0 0 0 1.21-1.71h.26z" transform="translate(.02)"/></g><g class="cls-3"><g class="cls-3"><path class="cls-2" d="M97.23 54.06h-3.75l-.48 1.04a2.29 2.29 0 0 0-.22.85.71.71 0 0 0 .36.66 3 3 0 0 0 1 .19v.29h-3.45v-.3a1.58 1.58 0 0 0 .94-.47 6.28 6.28 0 0 0 .91-1.6l3.79-8.45h.15l3.82 8.73a5.28 5.28 0 0 0 .9 1.55 1.23 1.23 0 0 0 .75.28v.29h-5.13v-.33h.18a1.61 1.61 0 0 0 .87-.17.42.42 0 0 0 .17-.36 1 1 0 0 0-.04-.26l-.23-.59zm-.23-.57l-1.58-3.65-1.62 3.65h3.2zM109.72 49.78v5.72a2.09 2.09 0 0 0 .16 1 .9.9 0 0 0 .63.26v.28h-3v-1a3.77 3.77 0 0 1-1 .91 2.41 2.41 0 0 1-1.17.29 1.72 1.72 0 0 1-1.1-.38 1.85 1.85 0 0 1-.64-.89 6.54 6.54 0 0 1-.16-1.77v-2.9a2.1 2.1 0 0 0-.15-1 .93.93 0 0 0-.64-.27v-.25h3v5a4.13 4.13 0 0 0 .07 1 .66.66 0 0 0 .23.34.61.61 0 0 0 .37.12.91.91 0 0 0 .51-.15 3.25 3.25 0 0 0 .75-.82v-3.91a2.1 2.1 0 0 0-.15-1 .93.93 0 0 0-.64-.27v-.31h3zM116.18 49.57l.12 2.49h-.3a3.92 3.92 0 0 0-1-1.52 1.64 1.64 0 0 0-1-.41.76.76 0 0 0-.55.21.66.66 0 0 0-.23.5.64.64 0 0 0 .16.41 7.49 7.49 0 0 0 1.4 1.1 5.77 5.77 0 0 1 1.51 1.32 2.14 2.14 0 0 1 .36 1.21 2.56 2.56 0 0 1-.3 1.2 2.14 2.14 0 0 1-.86.9 2.46 2.46 0 0 1-1.23.31 4.25 4.25 0 0 1-1.4-.33 1.15 1.15 0 0 0-.32-.09.52.52 0 0 0-.43.39h-.26l-.12-2.62h.27a3.4 3.4 0 0 0 1 1.55 1.85 1.85 0 0 0 1.16.52.85.85 0 0 0 .61-.23.75.75 0 0 0 .24-.56 1 1 0 0 0-.23-.65 6.12 6.12 0 0 0-1-.83 8.18 8.18 0 0 1-1.55-1.27 2.2 2.2 0 0 1-.52-1.41 2.3 2.3 0 0 1 .58-1.53 2.09 2.09 0 0 1 1.68-.68 2.46 2.46 0 0 1 1.15.29.76.76 0 0 0 .34.12.4.4 0 0 0 .23-.06 1.48 1.48 0 0 0 .27-.33h.27zM120.69 47.1v2.67h1.73v.77h-1.73v4.51a3.44 3.44 0 0 0 .06.82.59.59 0 0 0 .21.3.47.47 0 0 0 .27.11 1.24 1.24 0 0 0 1-.77l.23.17a2.14 2.14 0 0 1-2.05 1.5 1.81 1.81 0 0 1-1.18-.39 1.71 1.71 0 0 1-.61-.86 7.35 7.35 0 0 1-.08-1.44v-3.94h-1v-.27a10.08 10.08 0 0 0 1.68-1.46 8.92 8.92 0 0 0 1.21-1.71h.26zM126.15 49.78v1.66a5.34 5.34 0 0 1 1.27-1.5 1.89 1.89 0 0 1 1.05-.37.93.93 0 0 1 .7.27 1 1 0 0 1 .26.76 1.19 1.19 0 0 1-.25.81.79.79 0 0 1-.61.29 1.06 1.06 0 0 1-.72-.27l-.36-.3a.34.34 0 0 0-.18 0 .66.66 0 0 0-.43.17 1.62 1.62 0 0 0-.48.76 5.3 5.3 0 0 0-.25 1.67v2.07a1.79 1.79 0 0 0 .05.57.62.62 0 0 0 .28.31 1.6 1.6 0 0 0 .62.12v.28h-3.95v-.28a.86.86 0 0 0 .64-.26 2.43 2.43 0 0 0 .17-1.18v-4a3 3 0 0 0-.06-.8.63.63 0 0 0-.23-.32 1.22 1.22 0 0 0-.52-.14v-.32h3zM134.25 56a3.85 3.85 0 0 1-2.4 1.18 1.42 1.42 0 0 1-1-.41 1.39 1.39 0 0 1-.41-1 2 2 0 0 1 .72-1.5 13.59 13.59 0 0 1 3.13-1.78v-.76a3.57 3.57 0 0 0-.09-1 .84.84 0 0 0-.34-.37 1 1 0 0 0-.56-.16 1.44 1.44 0 0 0-.84.23.4.4 0 0 0-.2.33.68.68 0 0 0 .22.41 1 1 0 0 1 .3.65.87.87 0 0 1-.29.65 1 1 0 0 1-.75.27 1.19 1.19 0 0 1-.82-.3.91.91 0 0 1-.33-.7 1.62 1.62 0 0 1 .45-1.07 2.82 2.82 0 0 1 1.24-.79 5.06 5.06 0 0 1 1.66-.27 2.74 2.74 0 0 1 1.64.44 2.07 2.07 0 0 1 .79 1 6.21 6.21 0 0 1 .11 1.51v2.74a2.92 2.92 0 0 0 0 .63.38.38 0 0 0 .12.19.28.28 0 0 0 .18.06.56.56 0 0 0 .41-.29l.23.19a2.86 2.86 0 0 1-.81.84 1.75 1.75 0 0 1-.95.26 1.48 1.48 0 0 1-1-.29 1.33 1.33 0 0 1-.41-.89zm0-.57v-2.43a4.56 4.56 0 0 0-1.41 1.19 1.45 1.45 0 0 0-.3.85.9.9 0 0 0 .26.63.71.71 0 0 0 .55.21 1.5 1.5 0 0 0 .9-.45zM141.08 46.49v9.08a1.74 1.74 0 0 0 .18 1 1 1 0 0 0 .7.25v.28h-3.96v-.3a1 1 0 0 0 .72-.28 1.75 1.75 0 0 0 .16-1v-7.52a1.72 1.72 0 0 0-.18-1 1 1 0 0 0-.7-.25v-.26h3.06zM145.52 49.78v5.79a1.74 1.74 0 0 0 .18 1 1 1 0 0 0 .7.25v.28h-3.95v-.3a1 1 0 0 0 .72-.28 1.75 1.75 0 0 0 .16-1v-4.22a1.74 1.74 0 0 0-.18-1 1 1 0 0 0-.7-.25v-.27h3.06zm-1.09-3.54a1.16 1.16 0 0 1 .86.36 1.17 1.17 0 0 1 .35.86 1.15 1.15 0 0 1-.36.85 1.17 1.17 0 0 1-.86.35 1.2 1.2 0 0 1-1.2-1.2 1.17 1.17 0 0 1 .35-.86 1.15 1.15 0 0 1 .85-.36zM151.14 56a3.85 3.85 0 0 1-2.4 1.18 1.42 1.42 0 0 1-1-.41 1.39 1.39 0 0 1-.41-1 2 2 0 0 1 .72-1.5 13.59 13.59 0 0 1 3.13-1.78v-.76a3.57 3.57 0 0 0-.09-1 .84.84 0 0 0-.34-.37 1 1 0 0 0-.56-.16 1.44 1.44 0 0 0-.84.23.4.4 0 0 0-.2.33.68.68 0 0 0 .22.41 1 1 0 0 1 .3.65.87.87 0 0 1-.29.65 1 1 0 0 1-.75.27 1.19 1.19 0 0 1-.82-.3.91.91 0 0 1-.33-.7 1.62 1.62 0 0 1 .45-1.07 2.82 2.82 0 0 1 1.24-.79 5.06 5.06 0 0 1 1.66-.27 2.74 2.74 0 0 1 1.64.44 2.07 2.07 0 0 1 .79 1 6.21 6.21 0 0 1 .11 1.51v2.74a2.92 2.92 0 0 0 0 .63.38.38 0 0 0 .12.19.28.28 0 0 0 .18.06.56.56 0 0 0 .41-.29l.23.19a2.86 2.86 0 0 1-.81.84 1.75 1.75 0 0 1-.95.26 1.48 1.48 0 0 1-1-.29 1.33 1.33 0 0 1-.41-.89zm0-.57v-2.43a4.56 4.56 0 0 0-1.41 1.19 1.45 1.45 0 0 0-.3.85.9.9 0 0 0 .26.63.71.71 0 0 0 .55.21 1.5 1.5 0 0 0 .9-.45zM158.09 49.78v.95a4.29 4.29 0 0 1 1.08-.89 2.31 2.31 0 0 1 1.11-.28 1.77 1.77 0 0 1 1.18.39 1.89 1.89 0 0 1 .63 1 7.58 7.58 0 0 1 .13 1.71v2.84a2.17 2.17 0 0 0 .15 1.05.89.89 0 0 0 .64.26v.28h-3.7v-.29a.77.77 0 0 0 .59-.34 2.25 2.25 0 0 0 .13-1v-3.22a5.32 5.32 0 0 0-.03-1.14.69.69 0 0 0-.24-.36.6.6 0 0 0-.37-.13 1.58 1.58 0 0 0-1.25 1v3.91a2.18 2.18 0 0 0 .15 1 .78.78 0 0 0 .57.27v.28h-3.7v-.27a.91.91 0 0 0 .66-.3 2.19 2.19 0 0 0 .13-1v-4.14a2.1 2.1 0 0 0-.15-1 .93.93 0 0 0-.64-.27v-.31h3zM178.15 46.24v3.67h-.3a3.92 3.92 0 0 0-1.28-2.2 3.27 3.27 0 0 0-2.12-.77 3.14 3.14 0 0 0-1.82.57 3.32 3.32 0 0 0-1.22 1.49 6.75 6.75 0 0 0-.49 2.63 8.77 8.77 0 0 0 .36 2.59 3.44 3.44 0 0 0 1.12 1.78 3.13 3.13 0 0 0 2 .6 3.87 3.87 0 0 0 1.83-.44 6.34 6.34 0 0 0 1.77-1.52v.91a5.78 5.78 0 0 1-1.86 1.35 5.64 5.64 0 0 1-2.25.42 6.47 6.47 0 0 1-3-.68 4.8 4.8 0 0 1-2-2 5.45 5.45 0 0 1-.79-2.64 5.78 5.78 0 0 1 2.9-5 5.8 5.8 0 0 1 2.86-.75 6.49 6.49 0 0 1 2.36.48 3.62 3.62 0 0 0 .91.28.59.59 0 0 0 .43-.18 1 1 0 0 0 .24-.58h.3zM183 49.56a3.39 3.39 0 0 1 1.77.49 3.15 3.15 0 0 1 1.25 1.4 4.61 4.61 0 0 1 .43 2 4.2 4.2 0 0 1-.79 2.6 3.11 3.11 0 0 1-2.66 1.25 3 3 0 0 1-2.54-1.16 4.27 4.27 0 0 1-.89-2.68 4.32 4.32 0 0 1 .91-2.74 3 3 0 0 1 2.52-1.16zm0 .55a.91.91 0 0 0-.68.3 2.1 2.1 0 0 0-.32 1.19q-.09.89-.09 2.46a10.46 10.46 0 0 0 .11 1.56 1.51 1.51 0 0 0 .37.84.87.87 0 0 0 .64.29.89.89 0 0 0 .59-.2 1.31 1.31 0 0 0 .41-.74 18.06 18.06 0 0 0 .16-3 7.43 7.43 0 0 0-.19-1.81 1.4 1.4 0 0 0-.44-.72.82.82 0 0 0-.56-.17zM190.59 49.78v1a4.19 4.19 0 0 1 1.11-.92 2.42 2.42 0 0 1 1.12-.26 2 2 0 0 1 1.18.33 2.07 2.07 0 0 1 .73 1 4.64 4.64 0 0 1 1.2-1 2.48 2.48 0 0 1 1.2-.31 1.93 1.93 0 0 1 1.21.35 1.81 1.81 0 0 1 .63.88 6 6 0 0 1 .18 1.71v3a2.15 2.15 0 0 0 .15 1 .93.93 0 0 0 .64.27v.28h-3.77v-.31a.84.84 0 0 0 .66-.34 2.08 2.08 0 0 0 .14-1v-3.11a5.85 5.85 0 0 0-.08-1.24.75.75 0 0 0-.25-.39.63.63 0 0 0-.39-.13 1.17 1.17 0 0 0-.68.25 3.14 3.14 0 0 0-.7.74v3.92a2.23 2.23 0 0 0 .13 1 .81.81 0 0 0 .69.32v.28h-3.78v-.3a.84.84 0 0 0 .48-.15.65.65 0 0 0 .23-.33 3.61 3.61 0 0 0 .06-.83v-3.14a5.72 5.72 0 0 0-.08-1.24.76.76 0 0 0-.26-.39.64.64 0 0 0-.39-.14 1 1 0 0 0-.57.16 3.17 3.17 0 0 0-.78.83v3.92a2.22 2.22 0 0 0 .15 1 .79.79 0 0 0 .64.29v.28h-3.77v-.26a.91.91 0 0 0 .66-.3 2.19 2.19 0 0 0 .13-1v-4.14a2.1 2.1 0 0 0-.15-1 .93.93 0 0 0-.64-.27v-.31h3zM203.92 49.78v1a4.19 4.19 0 0 1 1.11-.92 2.42 2.42 0 0 1 1.12-.26 2 2 0 0 1 1.18.33 2.07 2.07 0 0 1 .73 1 4.64 4.64 0 0 1 1.2-1 2.48 2.48 0 0 1 1.2-.31 1.93 1.93 0 0 1 1.21.35 1.81 1.81 0 0 1 .63.88 6 6 0 0 1 .18 1.71v3a2.15 2.15 0 0 0 .15 1 .93.93 0 0 0 .64.27v.28h-3.77v-.31a.84.84 0 0 0 .66-.34 2.08 2.08 0 0 0 .14-1v-3.11a5.85 5.85 0 0 0-.08-1.24.75.75 0 0 0-.25-.39.63.63 0 0 0-.39-.13 1.17 1.17 0 0 0-.68.25 3.14 3.14 0 0 0-.7.74v3.92a2.23 2.23 0 0 0 .13 1 .81.81 0 0 0 .69.32v.28h-3.78v-.3a.84.84 0 0 0 .48-.15.65.65 0 0 0 .23-.33 3.61 3.61 0 0 0 .06-.83v-3.14a5.72 5.72 0 0 0-.08-1.24.76.76 0 0 0-.26-.39.64.64 0 0 0-.39-.14 1 1 0 0 0-.57.16 3.17 3.17 0 0 0-.78.83v3.92a2.22 2.22 0 0 0 .15 1 .79.79 0 0 0 .64.29v.28h-3.77v-.26a.91.91 0 0 0 .66-.3 2.19 2.19 0 0 0 .13-1v-4.14a2.1 2.1 0 0 0-.15-1 .93.93 0 0 0-.64-.27v-.31h3zM217.07 49.78v5.79a1.74 1.74 0 0 0 .18 1 1 1 0 0 0 .7.25v.28h-3.95v-.3a1 1 0 0 0 .72-.28 1.75 1.75 0 0 0 .16-1v-4.22a1.74 1.74 0 0 0-.18-1 1 1 0 0 0-.7-.25v-.27h3.06zm-1.07-3.54a1.16 1.16 0 0 1 .86.36 1.17 1.17 0 0 1 .35.86 1.15 1.15 0 0 1-.36.85 1.17 1.17 0 0 1-.86.35 1.2 1.2 0 0 1-1.2-1.2 1.17 1.17 0 0 1 .35-.86 1.15 1.15 0 0 1 .86-.36zM223.28 49.57l.12 2.49h-.27a3.92 3.92 0 0 0-1-1.52 1.64 1.64 0 0 0-1-.41.76.76 0 0 0-.55.21.66.66 0 0 0-.23.5.64.64 0 0 0 .16.41 7.49 7.49 0 0 0 1.4 1.1 5.77 5.77 0 0 1 1.51 1.32 2.14 2.14 0 0 1 .36 1.21 2.56 2.56 0 0 1-.3 1.2 2.14 2.14 0 0 1-.86.9 2.46 2.46 0 0 1-1.23.31 4.25 4.25 0 0 1-1.39-.29 1.15 1.15 0 0 0-.32-.09.52.52 0 0 0-.43.39h-.25l-.12-2.62h.27a3.4 3.4 0 0 0 1 1.55 1.85 1.85 0 0 0 1.16.52.85.85 0 0 0 .61-.23.75.75 0 0 0 .24-.56 1 1 0 0 0-.23-.65 6.12 6.12 0 0 0-1-.83 8.18 8.18 0 0 1-1.55-1.27 2.2 2.2 0 0 1-.52-1.41 2.3 2.3 0 0 1 .58-1.53 2.09 2.09 0 0 1 1.68-.68 2.46 2.46 0 0 1 1.15.29.76.76 0 0 0 .34.12.4.4 0 0 0 .23-.06 1.48 1.48 0 0 0 .27-.33h.27zM229.51 49.57l.12 2.49h-.27a3.92 3.92 0 0 0-1-1.52 1.64 1.64 0 0 0-1-.41.76.76 0 0 0-.55.21.66.66 0 0 0-.23.5.64.64 0 0 0 .16.41 7.49 7.49 0 0 0 1.4 1.1 5.77 5.77 0 0 1 1.51 1.32 2.14 2.14 0 0 1 .36 1.21 2.56 2.56 0 0 1-.3 1.2 2.14 2.14 0 0 1-.86.9 2.46 2.46 0 0 1-1.23.31 4.25 4.25 0 0 1-1.4-.33 1.15 1.15 0 0 0-.32-.09.52.52 0 0 0-.43.39h-.26l-.12-2.62h.27a3.4 3.4 0 0 0 1 1.55 1.85 1.85 0 0 0 1.16.52.85.85 0 0 0 .61-.23.75.75 0 0 0 .24-.56 1 1 0 0 0-.23-.65 6.12 6.12 0 0 0-1-.83 8.18 8.18 0 0 1-1.55-1.27 2.2 2.2 0 0 1-.52-1.41 2.3 2.3 0 0 1 .58-1.53 2.09 2.09 0 0 1 1.68-.68 2.46 2.46 0 0 1 1.15.29.76.76 0 0 0 .34.12.4.4 0 0 0 .18-.06 1.48 1.48 0 0 0 .27-.33h.27zM234 49.78v5.79a1.74 1.74 0 0 0 .18 1 1 1 0 0 0 .7.25v.28h-3.95v-.3a1 1 0 0 0 .72-.28 1.75 1.75 0 0 0 .16-1v-4.22a1.74 1.74 0 0 0-.18-1 1 1 0 0 0-.7-.25v-.27h3.07zm-1.09-3.54a1.16 1.16 0 0 1 .86.36 1.17 1.17 0 0 1 .35.86 1.15 1.15 0 0 1-.36.85 1.17 1.17 0 0 1-.86.35 1.2 1.2 0 0 1-1.2-1.2 1.17 1.17 0 0 1 .35-.86 1.15 1.15 0 0 1 .82-.36zM239 49.56a3.39 3.39 0 0 1 1.77.49 3.15 3.15 0 0 1 1.25 1.4 4.62 4.62 0 0 1 .43 2 4.2 4.2 0 0 1-.79 2.6 3.11 3.11 0 0 1-2.66 1.25 3 3 0 0 1-2.54-1.16 4.27 4.27 0 0 1-.89-2.68 4.32 4.32 0 0 1 .91-2.74 3 3 0 0 1 2.52-1.16zm0 .55a.91.91 0 0 0-.68.3 2.1 2.1 0 0 0-.32 1.19q-.09.89-.09 2.46a10.46 10.46 0 0 0 .11 1.56 1.5 1.5 0 0 0 .37.84.87.87 0 0 0 .64.29.89.89 0 0 0 .59-.2 1.32 1.32 0 0 0 .41-.74 18.12 18.12 0 0 0 .16-3 7.43 7.43 0 0 0-.19-1.81 1.4 1.4 0 0 0-.44-.72.82.82 0 0 0-.56-.17zM246.55 49.78v.95a4.29 4.29 0 0 1 1.08-.89 2.31 2.31 0 0 1 1.11-.28 1.77 1.77 0 0 1 1.18.39 1.89 1.89 0 0 1 .63 1 7.58 7.58 0 0 1 .13 1.71v2.84a2.17 2.17 0 0 0 .15 1.05.89.89 0 0 0 .64.26v.28h-3.7v-.29a.77.77 0 0 0 .59-.34 2.25 2.25 0 0 0 .13-1v-3.22a5.32 5.32 0 0 0-.07-1.13.7.7 0 0 0-.24-.36.6.6 0 0 0-.37-.13 1.58 1.58 0 0 0-1.25 1v3.91a2.18 2.18 0 0 0 .15 1 .78.78 0 0 0 .57.27v.28h-3.7v-.28a.91.91 0 0 0 .66-.3 2.2 2.2 0 0 0 .13-1v-4.14a2.1 2.1 0 0 0-.15-1 .93.93 0 0 0-.64-.27v-.31h3zM259.66 50.54v5.07a1.68 1.68 0 0 0 .16.92 1.13 1.13 0 0 0 .92.27v.28h-4.3v-.28a1.72 1.72 0 0 0 .7-.11.58.58 0 0 0 .29-.29 2.47 2.47 0 0 0 .08-.78v-5.08h-1.06v-.76h1.06v-.91a2.43 2.43 0 0 1 .82-1.87 3.19 3.19 0 0 1 2.23-.75 2.32 2.32 0 0 1 1.43.36 1 1 0 0 1 .46.8.79.79 0 0 1-.29.61 1.11 1.11 0 0 1-.77.26.94.94 0 0 1-.64-.21.62.62 0 0 1-.24-.47 1.77 1.77 0 0 1 0-.29 1.11 1.11 0 0 0 0-.25.3.3 0 0 0-.09-.24.43.43 0 0 0-.3-.12.47.47 0 0 0-.38.19 1 1 0 0 0-.15.6v2.3000000000000003h1.08v.77h-1.08zM265.23 49.56a3.39 3.39 0 0 1 1.77.44 3.15 3.15 0 0 1 1.25 1.4 4.62 4.62 0 0 1 .43 2 4.2 4.2 0 0 1-.79 2.6 3.11 3.11 0 0 1-2.63 1.27 3 3 0 0 1-2.54-1.16 4.27 4.27 0 0 1-.89-2.68 4.32 4.32 0 0 1 .91-2.74 3 3 0 0 1 2.49-1.13zm0 .55a.91.91 0 0 0-.68.3 2.1 2.1 0 0 0-.37 1.19q-.09.89-.09 2.46a10.46 10.46 0 0 0 .11 1.56 1.5 1.5 0 0 0 .37.84.87.87 0 0 0 .64.29.89.89 0 0 0 .59-.2 1.32 1.32 0 0 0 .41-.74 18.12 18.12 0 0 0 .16-3 7.43 7.43 0 0 0-.15-1.82 1.4 1.4 0 0 0-.44-.72.82.82 0 0 0-.51-.16z" transform="translate(.02)"/></g><path class="cls-2" d="M272.82 49.78v1.66a5.33 5.33 0 0 1 1.27-1.5 1.89 1.89 0 0 1 1.05-.37.93.93 0 0 1 .7.27 1.05 1.05 0 0 1 .26.76 1.19 1.19 0 0 1-.25.81.79.79 0 0 1-.61.29 1.06 1.06 0 0 1-.72-.27l-.36-.3a.34.34 0 0 0-.18 0 .66.66 0 0 0-.43.17 1.62 1.62 0 0 0-.48.76 5.3 5.3 0 0 0-.25 1.67v2.07a1.78 1.78 0 0 0 .05.57.62.62 0 0 0 .28.31 1.6 1.6 0 0 0 .62.12v.28h-3.95v-.28a.86.86 0 0 0 .64-.26 2.44 2.44 0 0 0 .17-1.18v-4a3.05 3.05 0 0 0-.06-.8.63.63 0 0 0-.23-.32 1.22 1.22 0 0 0-.52-.14v-.32h3z" transform="translate(.02)"/><g class="cls-3"><path class="cls-2" d="M290.16 53.36l-.4 3.72h-9.41v-.29h.35a1.46 1.46 0 0 0 .74-.16.71.71 0 0 0 .31-.37 3.21 3.21 0 0 0 .09-1v-7a3.47 3.47 0 0 0-.09-1 .78.78 0 0 0-.35-.36 1.4 1.4 0 0 0-.71-.15h-.35v-.26h5.66v.29h-.46a1.46 1.46 0 0 0-.74.16.75.75 0 0 0-.32.38 3.21 3.21 0 0 0-.09 1v6.68a3.42 3.42 0 0 0 .09 1 .62.62 0 0 0 .37.33 3.72 3.72 0 0 0 .95.07h.88a3 3 0 0 0 1.41-.3 2.63 2.63 0 0 0 1-.94 7.61 7.61 0 0 0 .78-1.89h.32zM295.3 56a3.85 3.85 0 0 1-2.4 1.18 1.42 1.42 0 0 1-1-.41 1.39 1.39 0 0 1-.41-1 2 2 0 0 1 .72-1.5 13.6 13.6 0 0 1 3.13-1.78v-.76a3.57 3.57 0 0 0-.09-1 .83.83 0 0 0-.34-.37 1 1 0 0 0-.56-.16 1.44 1.44 0 0 0-.84.23.4.4 0 0 0-.2.33.68.68 0 0 0 .22.41 1 1 0 0 1 .3.65.86.86 0 0 1-.29.65 1 1 0 0 1-.75.27 1.19 1.19 0 0 1-.82-.3.91.91 0 0 1-.33-.7 1.62 1.62 0 0 1 .45-1.07 2.82 2.82 0 0 1 1.24-.79 5.06 5.06 0 0 1 1.66-.27 2.74 2.74 0 0 1 1.64.44 2.07 2.07 0 0 1 .79 1 6.19 6.19 0 0 1 .11 1.51v2.74a2.92 2.92 0 0 0 0 .63.38.38 0 0 0 .12.19.28.28 0 0 0 .18.06.56.56 0 0 0 .41-.29l.23.19a2.86 2.86 0 0 1-.81.84 1.75 1.75 0 0 1-.95.26 1.48 1.48 0 0 1-1-.29 1.33 1.33 0 0 1-.41-.89zm0-.57v-2.43a4.58 4.58 0 0 0-1.41 1.19 1.45 1.45 0 0 0-.3.85.9.9 0 0 0 .26.63.71.71 0 0 0 .55.21 1.5 1.5 0 0 0 .9-.45zM306.51 57.3l-2-5.36-2 5.36h-.41l-1.9-5.3a6.06 6.06 0 0 0-.74-1.58 1.09 1.09 0 0 0-.59-.36v-.28h3.69v.29a.88.88 0 0 0-.52.11.31.31 0 0 0-.14.25 3.83 3.83 0 0 0 .25.8l1.07 2.85 1-2.85-.05-.23a2.24 2.24 0 0 0-.41-.75 1.07 1.07 0 0 0-.54-.22v-.25h3.78v.29a1.08 1.08 0 0 0-.55.12.34.34 0 0 0-.12.28 2.91 2.91 0 0 0 .23.76l1 2.85.94-2.62a2.82 2.82 0 0 0 .2-.77.59.59 0 0 0-.15-.45 1 1 0 0 0-.58-.17v-.29h2.16v.29a1 1 0 0 0-.57.25 3.73 3.73 0 0 0-.55 1.18l-2 5.8h-.45zM318.65 47.1v4.31h.21a1.67 1.67 0 0 0 1.46-.63 3.89 3.89 0 0 0 .58-1.87h.3v5.55h-.3a4.16 4.16 0 0 0-.4-1.46 1.7 1.7 0 0 0-.7-.78 2.66 2.66 0 0 0-1.16-.2v3a4.29 4.29 0 0 0 .07 1.07.64.64 0 0 0 .28.32 1.31 1.31 0 0 0 .66.13h.63a3.41 3.41 0 0 0 3.72-2.83h.29l-.48 3.37h-9.16v-.29h.35a1.46 1.46 0 0 0 .74-.16.71.71 0 0 0 .31-.37 3.21 3.21 0 0 0 .09-1v-7a5.51 5.51 0 0 0 0-.88.74.74 0 0 0-.29-.42 1.35 1.35 0 0 0-.81-.22h-.35v-.25h8.87v3.13h-.3a3.82 3.82 0 0 0-.64-1.65 2.37 2.37 0 0 0-1.16-.73 6.29 6.29 0 0 0-1.64-.14h-1.09zM328.48 49.78v.95a4.29 4.29 0 0 1 1.08-.89 2.31 2.31 0 0 1 1.11-.28 1.77 1.77 0 0 1 1.18.39 1.89 1.89 0 0 1 .63 1 7.58 7.58 0 0 1 .13 1.71v2.84a2.17 2.17 0 0 0 .15 1.05.89.89 0 0 0 .64.26v.28h-3.7v-.29a.77.77 0 0 0 .59-.34 2.25 2.25 0 0 0 .13-1v-3.22a5.32 5.32 0 0 0-.07-1.13.69.69 0 0 0-.24-.36.6.6 0 0 0-.37-.13 1.59 1.59 0 0 0-1.25 1v3.91a2.18 2.18 0 0 0 .15 1 .78.78 0 0 0 .57.27v.28h-3.7v-.28a.91.91 0 0 0 .66-.3 2.18 2.18 0 0 0 .13-1v-4.14a2.1 2.1 0 0 0-.15-1 .93.93 0 0 0-.64-.27v-.31h3zM337.6 50.54v5.07a1.68 1.68 0 0 0 .16.92 1.13 1.13 0 0 0 .92.27v.28h-4.3v-.28a1.72 1.72 0 0 0 .7-.11.58.58 0 0 0 .29-.29 2.47 2.47 0 0 0 .08-.78v-5.08h-1.06v-.76h1.06v-.91a2.43 2.43 0 0 1 .82-1.87 3.19 3.19 0 0 1 2.23-.75 2.32 2.32 0 0 1 1.43.36 1 1 0 0 1 .46.8.79.79 0 0 1-.29.61 1.11 1.11 0 0 1-.77.26.94.94 0 0 1-.64-.21.62.62 0 0 1-.24-.47 1.77 1.77 0 0 1 0-.29 1.11 1.11 0 0 0 0-.25.3.3 0 0 0-.09-.24.43.43 0 0 0-.3-.12.47.47 0 0 0-.38.19 1 1 0 0 0-.15.6v2.3000000000000003h1.08v.77h-1.01zM343.17 49.56a3.39 3.39 0 0 1 1.77.49 3.15 3.15 0 0 1 1.25 1.4 4.6 4.6 0 0 1 .43 2 4.2 4.2 0 0 1-.79 2.6 3.11 3.11 0 0 1-2.63 1.27 3 3 0 0 1-2.54-1.16 4.27 4.27 0 0 1-.89-2.68 4.33 4.33 0 0 1 .91-2.74 3 3 0 0 1 2.49-1.18zm0 .55a.91.91 0 0 0-.68.3 2.1 2.1 0 0 0-.37 1.19q-.09.89-.09 2.46a10.46 10.46 0 0 0 .11 1.56 1.51 1.51 0 0 0 .37.84.87.87 0 0 0 .64.29.89.89 0 0 0 .59-.2 1.31 1.31 0 0 0 .41-.74 18 18 0 0 0 .16-3 7.43 7.43 0 0 0-.15-1.82 1.39 1.39 0 0 0-.44-.72.82.82 0 0 0-.52-.16z" transform="translate(.02)"/></g><path class="cls-2" d="M350.76 49.78v1.66a5.33 5.33 0 0 1 1.27-1.5 1.89 1.89 0 0 1 1.05-.37.93.93 0 0 1 .7.27 1.05 1.05 0 0 1 .26.76 1.19 1.19 0 0 1-.25.81.79.79 0 0 1-.61.29 1.06 1.06 0 0 1-.72-.27l-.36-.3a.34.34 0 0 0-.18 0 .66.66 0 0 0-.43.17 1.62 1.62 0 0 0-.49.7 5.3 5.3 0 0 0-.25 1.67v2.13a1.78 1.78 0 0 0 .05.57.62.62 0 0 0 .28.31 1.6 1.6 0 0 0 .62.12v.28h-3.95v-.28a.86.86 0 0 0 .64-.26 2.44 2.44 0 0 0 .17-1.18v-4a3.05 3.05 0 0 0-.06-.8.63.63 0 0 0-.23-.32 1.22 1.22 0 0 0-.52-.14v-.32h3z" transform="translate(.02)"/><g class="cls-3"><path class="cls-2" d="M360.5 55.2l.24.19a3.65 3.65 0 0 1-1.29 1.44 3.07 3.07 0 0 1-1.64.47 2.83 2.83 0 0 1-2.34-1.1 4.12 4.12 0 0 1-.87-2.65 4.45 4.45 0 0 1 .8-2.62 3.06 3.06 0 0 1 2.65-1.37 2.68 2.68 0 0 1 1.8.57 1.66 1.66 0 0 1 .67 1.27 1 1 0 0 1-.27.71 1 1 0 0 1-.71.27 1 1 0 0 1-.76-.3 1.77 1.77 0 0 1-.37-1.09 1.2 1.2 0 0 0-.23-.69.56.56 0 0 0-.42-.2.76.76 0 0 0-.64.4 3.33 3.33 0 0 0-.41 1.84 6 6 0 0 0 .33 2 3 3 0 0 0 .9 1.4 1.6 1.6 0 0 0 1 .34 1.54 1.54 0 0 0 .73-.18 3.37 3.37 0 0 0 .83-.7zM367.83 53.17h-4a3.78 3.78 0 0 0 .77 2.3 1.63 1.63 0 0 0 1.3.65 1.47 1.47 0 0 0 .85-.26 3.32 3.32 0 0 0 .82-.94l.27.17a4.43 4.43 0 0 1-1.31 1.71 2.83 2.83 0 0 1-1.66.5 2.77 2.77 0 0 1-2.48-1.3 4.41 4.41 0 0 1-.67-2.5 4.15 4.15 0 0 1 1-2.91 3 3 0 0 1 2.28-1.03 2.51 2.51 0 0 1 1.93.91 4.16 4.16 0 0 1 .9 2.7zm-1.92-.52a7.22 7.22 0 0 0-.14-1.73 1.42 1.42 0 0 0-.43-.71.65.65 0 0 0-.44-.14.77.77 0 0 0-.66.4 3.41 3.41 0 0 0-.46 1.91v.27h2.13zM371.77 49.78v1a4.18 4.18 0 0 1 1.11-.92 2.42 2.42 0 0 1 1.12-.26 2 2 0 0 1 1.18.33 2.07 2.07 0 0 1 .73 1 4.63 4.63 0 0 1 1.2-1 2.48 2.48 0 0 1 1.2-.31 1.93 1.93 0 0 1 1.21.35 1.81 1.81 0 0 1 .63.88 6 6 0 0 1 .18 1.71v3a2.15 2.15 0 0 0 .15 1 .93.93 0 0 0 .64.27v.28h-3.77v-.31a.84.84 0 0 0 .66-.34 2.08 2.08 0 0 0 .14-1v-3.11a5.85 5.85 0 0 0-.08-1.24.75.75 0 0 0-.25-.39.63.63 0 0 0-.39-.13 1.16 1.16 0 0 0-.68.25 3.14 3.14 0 0 0-.7.74v3.92a2.23 2.23 0 0 0 .13 1 .81.81 0 0 0 .69.32v.28h-3.78v-.3a.84.84 0 0 0 .48-.15.65.65 0 0 0 .23-.33 3.61 3.61 0 0 0 .06-.83v-3.14a5.72 5.72 0 0 0-.08-1.24.77.77 0 0 0-.26-.39.64.64 0 0 0-.39-.14 1 1 0 0 0-.57.16 3.17 3.17 0 0 0-.78.83v3.92a2.22 2.22 0 0 0 .15 1 .79.79 0 0 0 .64.29v.28h-3.77v-.26a.91.91 0 0 0 .66-.3 2.2 2.2 0 0 0 .13-1v-4.14a2.1 2.1 0 0 0-.15-1 .93.93 0 0 0-.64-.27v-.31h3zM388.26 53.17h-4a3.78 3.78 0 0 0 .77 2.3 1.63 1.63 0 0 0 1.3.65 1.47 1.47 0 0 0 .85-.26 3.32 3.32 0 0 0 .82-.94l.27.17a4.43 4.43 0 0 1-1.31 1.71 2.83 2.83 0 0 1-1.66.5 2.77 2.77 0 0 1-2.48-1.3 4.41 4.41 0 0 1-.67-2.5 4.15 4.15 0 0 1 1-2.91 3 3 0 0 1 2.32-1.08 2.51 2.51 0 0 1 1.93.91 4.16 4.16 0 0 1 .86 2.75zm-1.92-.52a7.22 7.22 0 0 0-.14-1.73 1.42 1.42 0 0 0-.43-.71.65.65 0 0 0-.44-.14.77.77 0 0 0-.66.4 3.41 3.41 0 0 0-.46 1.91v.27h2.13zM392.16 49.78v.95a4.29 4.29 0 0 1 1.08-.89 2.31 2.31 0 0 1 1.11-.28 1.77 1.77 0 0 1 1.18.39 1.89 1.89 0 0 1 .63 1 7.58 7.58 0 0 1 .13 1.71v2.84a2.17 2.17 0 0 0 .15 1.05.89.89 0 0 0 .64.26v.28h-3.7v-.29a.77.77 0 0 0 .59-.34 2.25 2.25 0 0 0 .13-1v-3.22a5.32 5.32 0 0 0-.1-1.14.7.7 0 0 0-.24-.36.6.6 0 0 0-.37-.13 1.58 1.58 0 0 0-1.25 1v3.91a2.18 2.18 0 0 0 .15 1 .78.78 0 0 0 .57.27v.28h-3.7v-.27a.91.91 0 0 0 .66-.3 2.2 2.2 0 0 0 .13-1v-4.14a2.1 2.1 0 0 0-.15-1 .93.93 0 0 0-.64-.27v-.31h3zM401 47.1v2.67h1.73v.77h-1.73v4.51a3.44 3.44 0 0 0 .06.82.59.59 0 0 0 .21.3.46.46 0 0 0 .27.11 1.24 1.24 0 0 0 1-.77l.23.17a2.14 2.14 0 0 1-2.05 1.5 1.81 1.81 0 0 1-1.18-.39 1.7 1.7 0 0 1-.61-.86 7.31 7.31 0 0 1-.08-1.44v-3.94h-1v-.27a10.08 10.08 0 0 0 1.68-1.46 8.92 8.92 0 0 0 1.21-1.71h.26zM412.72 56.79v.29h-5.54v-.29h.35a1.47 1.47 0 0 0 .74-.16.72.72 0 0 0 .31-.37 3.24 3.24 0 0 0 .09-1v-7a3.51 3.51 0 0 0-.09-1 .78.78 0 0 0-.35-.36 1.4 1.4 0 0 0-.71-.15h-.35v-.26h5.54v.29h-.35a1.46 1.46 0 0 0-.74.16.75.75 0 0 0-.32.38 3.21 3.21 0 0 0-.09 1v7a3.32 3.32 0 0 0 .09 1 .8.8 0 0 0 .35.36 1.4 1.4 0 0 0 .71.15h.35zM416.61 49.78v.95a4.29 4.29 0 0 1 1.08-.89 2.31 2.31 0 0 1 1.11-.28 1.77 1.77 0 0 1 1.2.44 1.89 1.89 0 0 1 .63 1 7.58 7.58 0 0 1 .13 1.71v2.84a2.17 2.17 0 0 0 .15 1.05.89.89 0 0 0 .64.26v.28h-3.7v-.34a.77.77 0 0 0 .59-.34 2.25 2.25 0 0 0 .13-1v-3.22a5.32 5.32 0 0 0-.07-1.13.7.7 0 0 0-.24-.36.6.6 0 0 0-.37-.13 1.58 1.58 0 0 0-1.25 1v3.91a2.18 2.18 0 0 0 .15 1 .78.78 0 0 0 .57.27v.28h-3.7v-.28a.91.91 0 0 0 .66-.3 2.2 2.2 0 0 0 .13-1v-4.14a2.1 2.1 0 0 0-.15-1 .93.93 0 0 0-.64-.27v-.31h3zM425.42 47.1v2.67h1.73v.77h-1.73v4.51a3.44 3.44 0 0 0 .06.82.59.59 0 0 0 .21.3.46.46 0 0 0 .27.11 1.24 1.24 0 0 0 1-.77l.23.17a2.14 2.14 0 0 1-2.05 1.5 1.81 1.81 0 0 1-1.18-.39 1.7 1.7 0 0 1-.61-.86 7.31 7.31 0 0 1-.08-1.44v-3.94h-1v-.27a10.08 10.08 0 0 0 1.73-1.47 8.92 8.92 0 0 0 1.21-1.71h.26zM434 53.17h-4a3.78 3.78 0 0 0 .77 2.3 1.63 1.63 0 0 0 1.3.65 1.47 1.47 0 0 0 .85-.26 3.32 3.32 0 0 0 .82-.94l.26.16a4.43 4.43 0 0 1-1.31 1.71 2.83 2.83 0 0 1-1.66.5 2.77 2.77 0 0 1-2.43-1.29 4.41 4.41 0 0 1-.67-2.5 4.15 4.15 0 0 1 1-2.91 3 3 0 0 1 2.32-1.08 2.51 2.51 0 0 1 1.93.91 4.16 4.16 0 0 1 .82 2.75zm-1.92-.52a7.22 7.22 0 0 0-.14-1.73 1.42 1.42 0 0 0-.43-.71.65.65 0 0 0-.44-.14.77.77 0 0 0-.66.4 3.41 3.41 0 0 0-.46 1.91v.27h2.13zM439.64 49.86h2.46v.86h-1.4a2.67 2.67 0 0 1 .53.7 2.15 2.15 0 0 1 .19.88 2.19 2.19 0 0 1-.43 1.36 2.88 2.88 0 0 1-1.18.9 3.4 3.4 0 0 1-1.32.32h-.94a.82.82 0 0 0-.59.23.74.74 0 0 0-.24.55.57.57 0 0 0 .21.46 1.08 1.08 0 0 0 .7.18h1.35a4.92 4.92 0 0 1 2.26.36 1.65 1.65 0 0 1 .88 1.54 2 2 0 0 1-.41 1.21 2.38 2.38 0 0 1-1.07.8 6.52 6.52 0 0 1-2.32.38 7.82 7.82 0 0 1-1.8-.19 2.5 2.5 0 0 1-1.16-.53 1 1 0 0 1-.36-.77.92.92 0 0 1 .27-.64 2.16 2.16 0 0 1 1-.48 1.53 1.53 0 0 1-1-1.39 1.64 1.64 0 0 1 .41-1 3.29 3.29 0 0 1 1.31-.88 3.21 3.21 0 0 1-1.52-1 2.34 2.34 0 0 1-.47-1.51 2.41 2.41 0 0 1 .88-1.86 3.24 3.24 0 0 1 2.25-.79 4.08 4.08 0 0 1 1.51.31zm-1.81 8.3a2.69 2.69 0 0 0-1.05.13.73.73 0 0 0-.45.66.9.9 0 0 0 .46.72 3.24 3.24 0 0 0 1.73.32 4.13 4.13 0 0 0 1.71-.29.9.9 0 0 0 .62-.81.48.48 0 0 0-.12-.33 1.13 1.13 0 0 0-.64-.32 16.67 16.67 0 0 0-2.26-.08zm.46-8.16a.91.91 0 0 0-.77.46 3.77 3.77 0 0 0-.31 1.89 2.93 2.93 0 0 0 .31 1.6.89.89 0 0 0 .73.43.94.94 0 0 0 .75-.38 3.08 3.08 0 0 0 .31-1.67 3.61 3.61 0 0 0-.35-1.91.8.8 0 0 0-.67-.42zM446 49.78v1.66a5.33 5.33 0 0 1 1.27-1.5 1.89 1.89 0 0 1 1.05-.37.93.93 0 0 1 .7.27 1.05 1.05 0 0 1 .26.76 1.19 1.19 0 0 1-.25.81.79.79 0 0 1-.61.29 1.06 1.06 0 0 1-.72-.27l-.36-.3a.34.34 0 0 0-.18 0 .66.66 0 0 0-.43.17 1.62 1.62 0 0 0-.48.76 5.3 5.3 0 0 0-.25 1.67v2.07a1.78 1.78 0 0 0 .05.57.62.62 0 0 0 .28.31 1.6 1.6 0 0 0 .62.12v.28h-3.95v-.28a.86.86 0 0 0 .64-.26 2.44 2.44 0 0 0 .17-1.18v-4a3.05 3.05 0 0 0-.06-.8.63.63 0 0 0-.23-.32 1.22 1.22 0 0 0-.52-.14v-.32h3zM452.91 49.78v5.79a1.74 1.74 0 0 0 .18 1 1 1 0 0 0 .7.25v.28h-3.95v-.3a1 1 0 0 0 .72-.28 1.75 1.75 0 0 0 .16-1v-4.22a1.75 1.75 0 0 0-.18-1 1 1 0 0 0-.7-.25v-.27h3.06zm-1.09-3.54a1.21 1.21 0 1 1-.85.36 1.16 1.16 0 0 1 .84-.36zM457.4 47.1v2.67h1.73v.77h-1.73v4.51a3.44 3.44 0 0 0 .06.82.59.59 0 0 0 .21.3.46.46 0 0 0 .27.11 1.24 1.24 0 0 0 1-.77l.23.17a2.14 2.14 0 0 1-2.05 1.5 1.81 1.81 0 0 1-1.18-.39 1.7 1.7 0 0 1-.61-.86 7.31 7.31 0 0 1-.08-1.44v-3.94h-1v-.27a10.08 10.08 0 0 0 1.68-1.46 8.92 8.92 0 0 0 1.21-1.71h.26zM463.18 57.38l-2.36-5.38a7 7 0 0 0-.79-1.51 1.34 1.34 0 0 0-.61-.39v-.32h3.88v.29a.9.9 0 0 0-.54.15.41.41 0 0 0-.16.32 3.78 3.78 0 0 0 .39 1.17l1.25 2.86.85-2.21a5.54 5.54 0 0 0 .46-1.64.59.59 0 0 0-.19-.46 1.08 1.08 0 0 0-.68-.19v-.29h2.45v.29a.91.91 0 0 0-.59.28 6.86 6.86 0 0 0-.74 1.65l-2.09 5.41a11.91 11.91 0 0 1-1.17 2.5 1.68 1.68 0 0 1-1.35.66 1.49 1.49 0 0 1-1.05-.37 1.17 1.17 0 0 1-.4-.89 1.05 1.05 0 0 1 .28-.75.9.9 0 0 1 .68-.3.83.83 0 0 1 .63.25 1.12 1.12 0 0 1 .25.77.78.78 0 0 0 .07.38.21.21 0 0 0 .18.09.58.58 0 0 0 .4-.23 4.86 4.86 0 0 0 .77-1.52z" transform="translate(.02)"/></g></g></svg>