<?xml version="1.0" encoding="utf-8"?>
<!DOCTYPE svg PUBLIC "-//W3C//DTD SVG 1.1//EN" "http://www.w3.org/Graphics/SVG/1.1/DTD/svg11.dtd">
<svg version="1.1" id="Layer_1" xmlns="http://www.w3.org/2000/svg" xmlns:xlink="http://www.w3.org/1999/xlink" x="0px" y="0px"
	 width="58px" height="51.667px" viewBox="0 0 58 51.667" enable-background="new 0 0 58 51.667" xml:space="preserve">
<path fill="#333333" d="M8.611,10.179c-2.308,0-8.121,5.544-8.121,5.544v10.533c0,0,6.617,4.712,8.722,4.712
	c1.895,0,12.293,0,19.402,0V10.179C22.992,10.179,12.712,10.179,8.611,10.179 M5.114,26.463c-0.759,0-1.375-0.616-1.375-1.375
	c0-0.76,0.616-1.375,1.375-1.375c0.76,0,1.375,0.615,1.375,1.375C6.489,25.848,5.874,26.463,5.114,26.463z M5.114,22.446
	c-0.759,0-1.375-0.616-1.375-1.375c0-0.76,0.616-1.375,1.375-1.375c0.76,0,1.375,0.615,1.375,1.375
	C6.489,21.831,5.874,22.446,5.114,22.446z M5.114,18.503c-0.759,0-1.375-0.616-1.375-1.375c0-0.759,0.616-1.375,1.375-1.375
	c0.76,0,1.375,0.616,1.375,1.375C6.489,17.888,5.874,18.503,5.114,18.503z"/>
<path fill="#333333" d="M21.137,33.854l-10.429,0.022l7.851,14.403c0.842,1.509,2.407,2.359,4.021,2.359
	c0.757,0,1.524-0.188,2.234-0.583c2.217-1.236,3.013-4.036,1.775-6.254L21.137,33.854"/>
<path fill="none" stroke="#333333" stroke-width="1.975" stroke-miterlimit="10" d="M49.154,4.667c-7.825,6.5-18.428,6.5-21.203,6.5
	c-0.093,0-0.224,0-0.337,0v18.763c5.903,0.133,16.595,3.096,21.035,7.737c4.543,4.75,6.048,0.25,6.048,0.25l0.737-32.25
	C55.435,5.667,56.978-1.833,49.154,4.667z"/>
</svg>
