<?xml version="1.0" encoding="utf-8"?>
<!DOCTYPE svg PUBLIC "-//W3C//DTD SVG 1.1//EN" "http://www.w3.org/Graphics/SVG/1.1/DTD/svg11.dtd">
<svg version="1.1" id="Layer_1" xmlns="http://www.w3.org/2000/svg" xmlns:xlink="http://www.w3.org/1999/xlink" x="0px" y="0px"
	 width="52.75px" height="52px" viewBox="0 0 52.75 52" enable-background="new 0 0 52.75 52" xml:space="preserve">
<path fill="none" stroke="#333333" stroke-width="2.365" stroke-miterlimit="10" d="M35.771,6.839
	c-5.35-3.202-12.015-4.132-18.388-1.992C5.82,8.732-0.406,21.255,3.478,32.819c3.884,11.563,16.772,17.79,28.336,13.905
	c7.228-2.427,16.08-10.951,13.897-24.311"/>
<polyline fill="#333333" points="40.166,24.101 51.507,22.248 44.91,17.505 40.166,24.101 "/>
<path fill="#333333" d="M32.812,23.081h-6.301c0.522,1.782,0.852,4.33,0.852,7.169c0,5.385-1.176,9.75-2.625,9.75
	c-1.45,0-2.625-4.365-2.625-9.75c0-2.839,0.328-5.387,0.85-7.169h-6.301c-1.608,0-2.924,1.316-2.924,2.925v17.569
	c0,1.608,5.079,3.842,6.687,3.842h7.333c1.609,0,7.98-2.233,7.98-3.842V26.006C35.738,24.397,34.421,23.081,32.812,23.081"/>
<path fill="#333333" d="M18.217,14.5c0-3.314,2.686-6,6-6c3.314,0,6,2.686,6,6s-2.686,6-6,6C20.903,20.5,18.217,17.814,18.217,14.5"
	/>
</svg>
