<?xml version="1.0" encoding="utf-8"?>
<!DOCTYPE svg PUBLIC "-//W3C//DTD SVG 1.1//EN" "http://www.w3.org/Graphics/SVG/1.1/DTD/svg11.dtd">
<svg version="1.1" id="Layer_1" xmlns="http://www.w3.org/2000/svg" xmlns:xlink="http://www.w3.org/1999/xlink" x="0px" y="0px"
	 width="59.083px" height="59.583px" viewBox="0 0 59.083 59.583" enable-background="new 0 0 59.083 59.583" xml:space="preserve">
<polyline fill="none" stroke="#333333" stroke-miterlimit="10" points="21.666,43.842 14.99,37.165 38.104,14.051 44.78,20.728 
	21.666,43.842 "/>
<rect x="25.164" y="12.602" transform="matrix(0.7071 0.7071 -0.7071 0.7071 29.2229 -12.6537)" fill="#333333" stroke="#333333" stroke-width="2" stroke-linecap="round" stroke-linejoin="round" stroke-miterlimit="10" width="9.442" height="32.688"/>
<rect x="34.729" y="36.331" transform="matrix(0.7071 0.7071 -0.7071 0.7071 44.1225 -19.0344)" fill="none" stroke="#333333" stroke-width="2" stroke-miterlimit="10" width="20.618" height="14.824"/>
<line fill="none" stroke="#333333" stroke-width="2" stroke-miterlimit="10" x1="7.445" y1="6.293" x2="52.74" y2="51.751"/>
<line fill="none" stroke="#333333" stroke-width="2" stroke-miterlimit="10" x1="37.387" y1="46.651" x2="47.748" y2="36.043"/>
<line fill="none" stroke="#333333" stroke-width="2" stroke-miterlimit="10" x1="42.421" y1="51.683" x2="52.782" y2="41.077"/>
<polyline fill="none" stroke="#333333" stroke-width="2" stroke-miterlimit="10" points="12.55,1.585 27.128,16.163 16.646,26.646 
	2.066,12.066 12.55,1.585 "/>
<line fill="none" stroke="#333333" stroke-width="2" stroke-miterlimit="10" x1="6.947" y1="17.022" x2="17.309" y2="6.416"/>
<line fill="none" stroke="#333333" stroke-width="2" stroke-miterlimit="10" x1="11.98" y1="22.056" x2="22.342" y2="11.449"/>
<path fill="none" stroke="#333333" stroke-width="2" stroke-linecap="round" stroke-miterlimit="10" d="M7.445,37.1
	c0,8.21,6.372,14.855,14.246,14.855"/>
<path fill="none" stroke="#333333" stroke-width="2" stroke-linecap="round" stroke-miterlimit="10" d="M1.167,36.612
	c0,12.114,9.483,21.917,21.202,21.917"/>
<polyline fill="none" stroke="#333333" stroke-width="2" stroke-miterlimit="10" points="16.616,26.646 2.038,12.067 12.52,1.585 
	27.099,16.165 16.616,26.646 "/>
</svg>
