<?xml version="1.0" encoding="utf-8"?>
<!DOCTYPE svg PUBLIC "-//W3C//DTD SVG 1.1//EN" "http://www.w3.org/Graphics/SVG/1.1/DTD/svg11.dtd">
<svg version="1.1" id="Layer_1" xmlns="http://www.w3.org/2000/svg" xmlns:xlink="http://www.w3.org/1999/xlink" x="0px" y="0px"
	 width="47.5px" height="46.667px" viewBox="0 0 47.5 46.667" enable-background="new 0 0 47.5 46.667" xml:space="preserve">
<path fill="#E1E31B" d="M31.076,28.158c-2.5,0.875-3.203,7.628-5.219,7.128c-2.018-0.5-13.911-13.203-13.911-14.828
	s6.5-1.375,7.75-4.625c0.74-1.924-5.75-14.5-9-15s-12,5.75-9.5,14.75s23.125,27.625,30.875,29.875s13.625-4.625,14.625-7.625
	S33.576,27.283,31.076,28.158 M9.696,2.833l3.25,5.313c0,0-7.313,4.562-8.875,5.312C2.001,7.296,9.696,2.833,9.696,2.833z
	 M34.236,43.597c0.654-1.604,4.763-9.182,4.763-9.182l5.5,2.92C44.499,37.335,40.513,45.288,34.236,43.597z"/>
</svg>
