<?xml version="1.0" encoding="utf-8"?>
<!-- Generator: Adobe Illustrator 19.2.1, SVG Export Plug-In . SVG Version: 6.00 Build 0)  -->
<!DOCTYPE svg PUBLIC "-//W3C//DTD SVG 1.1//EN" "http://www.w3.org/Graphics/SVG/1.1/DTD/svg11.dtd">
<svg version="1.1" id="Layer_1" xmlns="http://www.w3.org/2000/svg" xmlns:xlink="http://www.w3.org/1999/xlink" x="0px" y="0px"
	 viewBox="0 0 1190.5 524.8" style="enable-background:new 0 0 1190.5 524.8;" xml:space="preserve">
<style type="text/css">
	.st0{fill:#333333;}
	.st1{fill:#00A3DF;}
	.st2{fill:#FFFFFF;}
	.st3{fill:#A2A92E;}
	.st4{fill:#E1E319;}
	.st5{clip-path:url(#SVGID_2_);}
	.st6{fill:#B1B3B5;}
	.st7{clip-path:url(#SVGID_4_);}
</style>
<rect y="-16.3" class="st0" width="1190.6" height="541.1"/>
<polygon class="st1" points="1190.6,-98.8 0.1,-98.8 0,42.3 25.5,61.2 48,62 353.1,62.4 1190.6,448.4 "/>
<polygon class="st2" points="94.7,182.1 94.7,187.6 29.9,187.6 29.9,204.5 94.7,204.5 94.7,210 94.7,210 107.3,196 "/>
<polygon class="st2" points="94.7,75 94.7,80.5 29.9,80.5 29.9,97.4 94.7,97.4 94.7,102.9 94.7,102.8 107.3,88.8 "/>
<polygon class="st2" points="107.3,155.1 107.3,160.6 29.9,160.6 29.9,177.5 107.3,177.5 107.3,183 107.3,182.9 120,169 "/>
<polygon class="st2" points="61.9,20.1 61.9,25.6 29.9,25.6 29.9,42.5 61.9,42.5 61.9,48 61.9,47.9 74.6,33.9 "/>
<polygon class="st2" points="78.8,128.4 78.8,133.9 29.9,133.9 29.9,150.8 78.8,150.8 78.8,156.3 78.8,156.2 91.5,142.3 "/>
<polygon class="st2" points="128.4,124.1 29.9,124.1 29.9,107.2 128.4,107.2 128.4,101.7 141.1,115.6 128.4,129.5 128.4,129.6 "/>
<polygon class="st3" points="353.1,53.5 353.1,70.4 1190.5,449.4 1190.5,448.1 "/>
<rect x="71.2" y="53.5" class="st4" width="281.9" height="16.9"/>
<polyline class="st4" points="74.5,48.1 61.9,62 74.6,75.9 74.6,48 "/>
<polygon class="st4" points="55.5,70.4 29.9,70.4 29.9,53.5 55.5,53.5 48,62 "/>
<g>
	<g>
		<g>
			<defs>
				<polyline id="SVGID_1_" points="502,-66.2 502,480.4 0,480.4 0,-66.8 				"/>
			</defs>
			<clipPath id="SVGID_2_">
				<use xlink:href="#SVGID_1_"  style="overflow:visible;"/>
			</clipPath>
			<g class="st5">
				<path class="st6" d="M-22.6,198.3L30,160.6v16.9l-52.6,78.9L-22.6,198.3L-22.6,198.3z M-22.6,556.1L30,204.5v-16.9l-52.6,95.3
					L-22.6,556.1L-22.6,556.1z M29.9,25.6l-52.6-284v205.6l52.6,95.3V25.6z M29.9,107.2l-52.6-4.9v26.6l52.6-4.9V107.2L29.9,107.2z
					 M-22.6,143.6V176L30,150.7v-16.8L-22.6,143.6z M29.9,80.5l-52.6-25.3v32.4l52.6,9.7V80.5z"/>
			</g>
		</g>
	</g>
</g>
<g>
	<g>
		<g>
			<defs>
				<polyline id="SVGID_3_" points="502,480.4 0,480.4 0,-66.8 				"/>
			</defs>
			<clipPath id="SVGID_4_">
				<use xlink:href="#SVGID_3_"  style="overflow:visible;"/>
			</clipPath>
			<g class="st7">
				<polygon class="st3" points="29.9,53.5 -22.7,-25.4 -22.7,32.7 29.9,70.4 				"/>
			</g>
		</g>
	</g>
</g>
</svg>
