<?xml version="1.0" encoding="utf-8"?>
<!-- Generator: Adobe Illustrator 19.2.1, SVG Export Plug-In . SVG Version: 6.00 Build 0)  -->
<!DOCTYPE svg PUBLIC "-//W3C//DTD SVG 1.1//EN" "http://www.w3.org/Graphics/SVG/1.1/DTD/svg11.dtd">
<svg version="1.1" id="Layer_1" xmlns="http://www.w3.org/2000/svg" xmlns:xlink="http://www.w3.org/1999/xlink" x="0px" y="0px"
	 viewBox="0 0 1190.5 533.3" style="enable-background:new 0 0 1190.5 533.3;" xml:space="preserve">
<style type="text/css">
	.st0{fill:#333333;}
	.st1{fill:#00A3DF;}
	.st2{fill:#FFFFFF;}
	.st3{fill:#A2A92E;}
	.st4{fill:#E1E319;}
	.st5{clip-path:url(#SVGID_2_);}
	.st6{fill:#B1B3B5;}
	.st7{clip-path:url(#SVGID_4_);}
</style>
<title>ACLEI_BG</title>
<rect y="-7.8" class="st0" width="1190.6" height="541.1"/>
<polygon class="st1" points="1190.6,-90.3 0.1,-90.3 0,50.8 25.5,69.7 48,70.5 353.1,70.9 1190.6,456.9 "/>
<polygon class="st2" points="94.7,190.6 94.7,196.1 29.9,196.1 29.9,213 94.7,213 94.7,218.5 94.7,218.5 107.3,204.5 "/>
<polygon class="st2" points="94.7,83.5 94.7,89 29.9,89 29.9,105.9 94.7,105.9 94.7,111.4 94.7,111.3 107.3,97.3 "/>
<polygon class="st2" points="107.3,163.6 107.3,169.1 29.9,169.1 29.9,186 107.3,186 107.3,191.5 107.3,191.4 120,177.5 "/>
<polygon class="st2" points="61.9,28.6 61.9,34.1 29.9,34.1 29.9,51 61.9,51 61.9,56.5 61.9,56.4 74.6,42.4 "/>
<polygon class="st2" points="78.8,136.9 78.8,142.4 29.9,142.4 29.9,159.3 78.8,159.3 78.8,164.8 78.8,164.7 91.5,150.8 "/>
<polygon class="st2" points="128.4,132.6 29.9,132.6 29.9,115.7 128.4,115.7 128.4,110.2 141.1,124.1 128.4,138 128.4,138.1 "/>
<polygon class="st3" points="353.1,62 353.1,78.9 1190.5,457.9 1190.5,456.6 "/>
<rect x="71.2" y="62" class="st4" width="281.9" height="16.9"/>
<polyline class="st4" points="74.5,56.6 61.9,70.5 74.6,84.4 74.6,56.5 "/>
<polygon class="st4" points="55.5,78.9 29.9,78.9 29.9,62 55.5,62 48,70.5 "/>
<g>
	<g>
		<defs>
			<polyline id="SVGID_1_" points="502,-57.7 502,488.9 0,488.9 0,-58.3 			"/>
		</defs>
		<clipPath id="SVGID_2_">
			<use xlink:href="#SVGID_1_"  style="overflow:visible;"/>
		</clipPath>
		<g class="st5">
			<path class="st6" d="M-22.6,206.8L30,169.1V186l-52.6,78.9L-22.6,206.8L-22.6,206.8z M-22.6,564.6L30,213v-16.9l-52.6,95.3
				L-22.6,564.6L-22.6,564.6z M29.9,34.1l-52.6-284v205.6L29.9,51V34.1z M29.9,115.7l-52.6-4.9v26.6l52.6-4.9V115.7L29.9,115.7z
				 M-22.6,152.1v32.4L30,159.2v-16.8L-22.6,152.1z M29.9,89l-52.6-25.3v32.4l52.6,9.7V89z"/>
		</g>
	</g>
</g>
<g>
	<g>
		<defs>
			<polyline id="SVGID_3_" points="502,488.9 0,488.9 0,-58.3 			"/>
		</defs>
		<clipPath id="SVGID_4_">
			<use xlink:href="#SVGID_3_"  style="overflow:visible;"/>
		</clipPath>
		<g class="st7">
			<polygon class="st3" points="29.9,62 -22.7,-16.9 -22.7,41.2 29.9,78.9 			"/>
		</g>
	</g>
</g>
</svg>
